<mxfile host="app.diagrams.net" agent="Mozilla/5.0 (Windows NT 10.0; Win64; x64; rv:141.0) Gecko/20100101 Firefox/141.0" version="28.0.7">
  <diagram name="Page-1" id="RYXTkIu9O_qq9lSuSM08">
    <mxGraphModel dx="2195" dy="1783" grid="1" gridSize="10" guides="1" tooltips="1" connect="1" arrows="1" fold="1" page="1" pageScale="1" pageWidth="850" pageHeight="1100" math="0" shadow="0">
      <root>
        <mxCell id="0" />
        <mxCell id="1" parent="0" />
        <mxCell id="jZpcVFZZBrPNj7oELyAY-8" style="edgeStyle=none;curved=1;rounded=0;orthogonalLoop=1;jettySize=auto;html=1;fontSize=12;startSize=8;endSize=8;" edge="1" parent="1" source="jZpcVFZZBrPNj7oELyAY-1" target="jZpcVFZZBrPNj7oELyAY-6">
          <mxGeometry relative="1" as="geometry" />
        </mxCell>
        <mxCell id="jZpcVFZZBrPNj7oELyAY-9" style="edgeStyle=none;curved=1;rounded=0;orthogonalLoop=1;jettySize=auto;html=1;fontSize=12;startSize=8;endSize=8;" edge="1" parent="1" source="jZpcVFZZBrPNj7oELyAY-1" target="jZpcVFZZBrPNj7oELyAY-7">
          <mxGeometry relative="1" as="geometry" />
        </mxCell>
        <mxCell id="jZpcVFZZBrPNj7oELyAY-1" value="drug distribution" style="rounded=0;whiteSpace=wrap;html=1;" vertex="1" parent="1">
          <mxGeometry x="190" y="120" width="120" height="60" as="geometry" />
        </mxCell>
        <mxCell id="jZpcVFZZBrPNj7oELyAY-5" value="" style="edgeStyle=none;curved=1;rounded=0;orthogonalLoop=1;jettySize=auto;html=1;fontSize=12;startSize=8;endSize=8;" edge="1" parent="1" source="jZpcVFZZBrPNj7oELyAY-2" target="jZpcVFZZBrPNj7oELyAY-1">
          <mxGeometry relative="1" as="geometry" />
        </mxCell>
        <mxCell id="jZpcVFZZBrPNj7oELyAY-2" value="Absorption" style="rounded=0;whiteSpace=wrap;html=1;" vertex="1" parent="1">
          <mxGeometry x="190" y="20" width="120" height="60" as="geometry" />
        </mxCell>
        <mxCell id="jZpcVFZZBrPNj7oELyAY-4" value="" style="edgeStyle=none;curved=1;rounded=0;orthogonalLoop=1;jettySize=auto;html=1;fontSize=12;startSize=8;endSize=8;" edge="1" parent="1" source="jZpcVFZZBrPNj7oELyAY-3" target="jZpcVFZZBrPNj7oELyAY-2">
          <mxGeometry relative="1" as="geometry" />
        </mxCell>
        <mxCell id="jZpcVFZZBrPNj7oELyAY-3" value="Drug administration" style="rounded=0;whiteSpace=wrap;html=1;" vertex="1" parent="1">
          <mxGeometry x="190" y="-90" width="120" height="60" as="geometry" />
        </mxCell>
        <mxCell id="jZpcVFZZBrPNj7oELyAY-11" style="edgeStyle=none;curved=1;rounded=0;orthogonalLoop=1;jettySize=auto;html=1;entryX=0.5;entryY=0;entryDx=0;entryDy=0;fontSize=12;startSize=8;endSize=8;" edge="1" parent="1" source="jZpcVFZZBrPNj7oELyAY-6" target="jZpcVFZZBrPNj7oELyAY-10">
          <mxGeometry relative="1" as="geometry" />
        </mxCell>
        <mxCell id="jZpcVFZZBrPNj7oELyAY-6" value="site of action" style="rounded=0;whiteSpace=wrap;html=1;" vertex="1" parent="1">
          <mxGeometry x="140" y="230" width="120" height="60" as="geometry" />
        </mxCell>
        <mxCell id="jZpcVFZZBrPNj7oELyAY-7" value="sites of metabolism or excretion" style="rounded=0;whiteSpace=wrap;html=1;" vertex="1" parent="1">
          <mxGeometry x="300" y="330" width="150" height="60" as="geometry" />
        </mxCell>
        <mxCell id="jZpcVFZZBrPNj7oELyAY-10" value="Effect" style="rounded=0;whiteSpace=wrap;html=1;" vertex="1" parent="1">
          <mxGeometry x="90" y="330" width="120" height="60" as="geometry" />
        </mxCell>
        <mxCell id="jZpcVFZZBrPNj7oELyAY-15" style="edgeStyle=none;curved=1;rounded=0;orthogonalLoop=1;jettySize=auto;html=1;entryX=0;entryY=0.5;entryDx=0;entryDy=0;fontSize=12;startSize=8;endSize=8;" edge="1" parent="1" source="jZpcVFZZBrPNj7oELyAY-12" target="jZpcVFZZBrPNj7oELyAY-1">
          <mxGeometry relative="1" as="geometry" />
        </mxCell>
        <mxCell id="jZpcVFZZBrPNj7oELyAY-18" value="highly perfussed" style="edgeLabel;html=1;align=center;verticalAlign=middle;resizable=0;points=[];fontSize=12;" vertex="1" connectable="0" parent="jZpcVFZZBrPNj7oELyAY-15">
          <mxGeometry x="-0.2365" y="1" relative="1" as="geometry">
            <mxPoint x="-1" as="offset" />
          </mxGeometry>
        </mxCell>
        <mxCell id="jZpcVFZZBrPNj7oELyAY-12" value="First phase" style="rounded=0;whiteSpace=wrap;html=1;" vertex="1" parent="1">
          <mxGeometry x="-70" y="40" width="120" height="60" as="geometry" />
        </mxCell>
        <mxCell id="jZpcVFZZBrPNj7oELyAY-14" style="edgeStyle=none;curved=1;rounded=0;orthogonalLoop=1;jettySize=auto;html=1;fontSize=12;startSize=8;endSize=8;" edge="1" parent="1" source="jZpcVFZZBrPNj7oELyAY-13" target="jZpcVFZZBrPNj7oELyAY-1">
          <mxGeometry relative="1" as="geometry" />
        </mxCell>
        <mxCell id="jZpcVFZZBrPNj7oELyAY-19" value="low perfused" style="edgeLabel;html=1;align=center;verticalAlign=middle;resizable=0;points=[];fontSize=12;" vertex="1" connectable="0" parent="jZpcVFZZBrPNj7oELyAY-14">
          <mxGeometry x="0.0192" y="3" relative="1" as="geometry">
            <mxPoint as="offset" />
          </mxGeometry>
        </mxCell>
        <mxCell id="jZpcVFZZBrPNj7oELyAY-13" value="second phase" style="rounded=0;whiteSpace=wrap;html=1;" vertex="1" parent="1">
          <mxGeometry x="-100" y="120" width="120" height="60" as="geometry" />
        </mxCell>
        <mxCell id="jZpcVFZZBrPNj7oELyAY-21" value="" style="edgeStyle=none;curved=1;rounded=0;orthogonalLoop=1;jettySize=auto;html=1;fontSize=12;startSize=8;endSize=8;" edge="1" parent="1" source="jZpcVFZZBrPNj7oELyAY-20" target="jZpcVFZZBrPNj7oELyAY-1">
          <mxGeometry relative="1" as="geometry" />
        </mxCell>
        <mxCell id="jZpcVFZZBrPNj7oELyAY-20" value="tightness of junctions in epitherlial cells determines drug dist in tissue" style="rounded=0;whiteSpace=wrap;html=1;" vertex="1" parent="1">
          <mxGeometry x="340" y="60" width="120" height="60" as="geometry" />
        </mxCell>
        <mxCell id="jZpcVFZZBrPNj7oELyAY-23" value="" style="edgeStyle=none;curved=1;rounded=0;orthogonalLoop=1;jettySize=auto;html=1;fontSize=12;startSize=8;endSize=8;" edge="1" parent="1" source="jZpcVFZZBrPNj7oELyAY-22" target="jZpcVFZZBrPNj7oELyAY-1">
          <mxGeometry relative="1" as="geometry" />
        </mxCell>
        <mxCell id="jZpcVFZZBrPNj7oELyAY-22" value="transcellular movement" style="rounded=0;whiteSpace=wrap;html=1;" vertex="1" parent="1">
          <mxGeometry x="380" y="140" width="120" height="60" as="geometry" />
        </mxCell>
        <mxCell id="jZpcVFZZBrPNj7oELyAY-25" value="" style="edgeStyle=none;curved=1;rounded=0;orthogonalLoop=1;jettySize=auto;html=1;fontSize=12;startSize=8;endSize=8;" edge="1" parent="1" source="jZpcVFZZBrPNj7oELyAY-24" target="jZpcVFZZBrPNj7oELyAY-22">
          <mxGeometry relative="1" as="geometry" />
        </mxCell>
        <mxCell id="jZpcVFZZBrPNj7oELyAY-24" value="passive diffusion" style="rounded=0;whiteSpace=wrap;html=1;" vertex="1" parent="1">
          <mxGeometry x="530" y="90" width="120" height="60" as="geometry" />
        </mxCell>
        <mxCell id="jZpcVFZZBrPNj7oELyAY-27" value="" style="edgeStyle=none;curved=1;rounded=0;orthogonalLoop=1;jettySize=auto;html=1;fontSize=12;startSize=8;endSize=8;" edge="1" parent="1" source="jZpcVFZZBrPNj7oELyAY-26" target="jZpcVFZZBrPNj7oELyAY-22">
          <mxGeometry relative="1" as="geometry" />
        </mxCell>
        <mxCell id="jZpcVFZZBrPNj7oELyAY-26" value="Active transport" style="rounded=0;whiteSpace=wrap;html=1;" vertex="1" parent="1">
          <mxGeometry x="530" y="200" width="120" height="60" as="geometry" />
        </mxCell>
        <mxCell id="jZpcVFZZBrPNj7oELyAY-29" style="edgeStyle=none;curved=1;rounded=0;orthogonalLoop=1;jettySize=auto;html=1;fontSize=12;startSize=8;endSize=8;" edge="1" parent="1" source="jZpcVFZZBrPNj7oELyAY-28" target="jZpcVFZZBrPNj7oELyAY-1">
          <mxGeometry relative="1" as="geometry" />
        </mxCell>
        <mxCell id="jZpcVFZZBrPNj7oELyAY-28" value="efflux" style="rounded=0;whiteSpace=wrap;html=1;" vertex="1" parent="1">
          <mxGeometry x="380" y="240" width="120" height="60" as="geometry" />
        </mxCell>
        <mxCell id="jZpcVFZZBrPNj7oELyAY-31" style="edgeStyle=none;curved=1;rounded=0;orthogonalLoop=1;jettySize=auto;html=1;entryX=1;entryY=0.75;entryDx=0;entryDy=0;fontSize=12;startSize=8;endSize=8;" edge="1" parent="1" source="jZpcVFZZBrPNj7oELyAY-30" target="jZpcVFZZBrPNj7oELyAY-28">
          <mxGeometry relative="1" as="geometry" />
        </mxCell>
        <mxCell id="jZpcVFZZBrPNj7oELyAY-30" value="P-glycoprotien" style="rounded=0;whiteSpace=wrap;html=1;" vertex="1" parent="1">
          <mxGeometry x="570" y="310" width="120" height="60" as="geometry" />
        </mxCell>
        <mxCell id="jZpcVFZZBrPNj7oELyAY-32" value="OATP" style="rounded=0;whiteSpace=wrap;html=1;" vertex="1" parent="1">
          <mxGeometry x="520" y="400" width="120" height="60" as="geometry" />
        </mxCell>
        <mxCell id="jZpcVFZZBrPNj7oELyAY-33" style="edgeStyle=none;curved=1;rounded=0;orthogonalLoop=1;jettySize=auto;html=1;entryX=0.831;entryY=1.036;entryDx=0;entryDy=0;entryPerimeter=0;fontSize=12;startSize=8;endSize=8;" edge="1" parent="1" source="jZpcVFZZBrPNj7oELyAY-32" target="jZpcVFZZBrPNj7oELyAY-28">
          <mxGeometry relative="1" as="geometry" />
        </mxCell>
        <mxCell id="jZpcVFZZBrPNj7oELyAY-34" value="Drug can bind Albumin or Alpha1-acid glycoprotien" style="rounded=0;whiteSpace=wrap;html=1;" vertex="1" parent="1">
          <mxGeometry x="10" y="-70" width="120" height="60" as="geometry" />
        </mxCell>
        <mxCell id="jZpcVFZZBrPNj7oELyAY-35" style="edgeStyle=none;curved=1;rounded=0;orthogonalLoop=1;jettySize=auto;html=1;entryX=0.067;entryY=-0.061;entryDx=0;entryDy=0;entryPerimeter=0;fontSize=12;startSize=8;endSize=8;" edge="1" parent="1" source="jZpcVFZZBrPNj7oELyAY-34" target="jZpcVFZZBrPNj7oELyAY-1">
          <mxGeometry relative="1" as="geometry" />
        </mxCell>
        <mxCell id="jZpcVFZZBrPNj7oELyAY-37" value="" style="edgeStyle=none;curved=1;rounded=0;orthogonalLoop=1;jettySize=auto;html=1;fontSize=12;startSize=8;endSize=8;" edge="1" parent="1" source="jZpcVFZZBrPNj7oELyAY-36" target="jZpcVFZZBrPNj7oELyAY-34">
          <mxGeometry relative="1" as="geometry" />
        </mxCell>
        <mxCell id="jZpcVFZZBrPNj7oELyAY-36" value="important competition in drug-drug interactions" style="rounded=0;whiteSpace=wrap;html=1;" vertex="1" parent="1">
          <mxGeometry x="10" y="-170" width="120" height="60" as="geometry" />
        </mxCell>
        <mxCell id="jZpcVFZZBrPNj7oELyAY-39" value="" style="edgeStyle=none;curved=1;rounded=0;orthogonalLoop=1;jettySize=auto;html=1;fontSize=12;startSize=8;endSize=8;" edge="1" parent="1" source="jZpcVFZZBrPNj7oELyAY-38" target="jZpcVFZZBrPNj7oELyAY-34">
          <mxGeometry relative="1" as="geometry" />
        </mxCell>
        <mxCell id="jZpcVFZZBrPNj7oELyAY-38" value="disease states can also effect" style="rounded=0;whiteSpace=wrap;html=1;" vertex="1" parent="1">
          <mxGeometry x="-170" y="-80" width="120" height="60" as="geometry" />
        </mxCell>
        <mxCell id="jZpcVFZZBrPNj7oELyAY-41" style="edgeStyle=none;curved=1;rounded=0;orthogonalLoop=1;jettySize=auto;html=1;fontSize=12;startSize=8;endSize=8;" edge="1" parent="1" source="jZpcVFZZBrPNj7oELyAY-40" target="jZpcVFZZBrPNj7oELyAY-1">
          <mxGeometry relative="1" as="geometry" />
        </mxCell>
        <mxCell id="jZpcVFZZBrPNj7oELyAY-40" value="drug can accumulate in specific tissue which can act as a resevour" style="rounded=0;whiteSpace=wrap;html=1;" vertex="1" parent="1">
          <mxGeometry x="-20" y="230" width="120" height="60" as="geometry" />
        </mxCell>
        <mxCell id="jZpcVFZZBrPNj7oELyAY-43" style="edgeStyle=none;curved=1;rounded=0;orthogonalLoop=1;jettySize=auto;html=1;fontSize=12;startSize=8;endSize=8;" edge="1" parent="1" source="jZpcVFZZBrPNj7oELyAY-42" target="jZpcVFZZBrPNj7oELyAY-40">
          <mxGeometry relative="1" as="geometry" />
        </mxCell>
        <mxCell id="jZpcVFZZBrPNj7oELyAY-42" value="can be considered a termination of action" style="rounded=0;whiteSpace=wrap;html=1;" vertex="1" parent="1">
          <mxGeometry x="-120" y="340" width="120" height="60" as="geometry" />
        </mxCell>
        <mxCell id="jZpcVFZZBrPNj7oELyAY-44" value="basic renal excretion" style="rounded=0;whiteSpace=wrap;html=1;" vertex="1" parent="1">
          <mxGeometry x="290" y="450" width="120" height="60" as="geometry" />
        </mxCell>
        <mxCell id="jZpcVFZZBrPNj7oELyAY-46" style="edgeStyle=none;curved=1;rounded=0;orthogonalLoop=1;jettySize=auto;html=1;entryX=0.442;entryY=1.05;entryDx=0;entryDy=0;entryPerimeter=0;fontSize=12;startSize=8;endSize=8;" edge="1" parent="1" source="jZpcVFZZBrPNj7oELyAY-44" target="jZpcVFZZBrPNj7oELyAY-7">
          <mxGeometry relative="1" as="geometry" />
        </mxCell>
        <mxCell id="jZpcVFZZBrPNj7oELyAY-47" value="GFR determines if drug is being excreted" style="rounded=0;whiteSpace=wrap;html=1;" vertex="1" parent="1">
          <mxGeometry x="220" y="560" width="120" height="80" as="geometry" />
        </mxCell>
        <mxCell id="jZpcVFZZBrPNj7oELyAY-48" style="edgeStyle=none;curved=1;rounded=0;orthogonalLoop=1;jettySize=auto;html=1;entryX=0.317;entryY=0.953;entryDx=0;entryDy=0;entryPerimeter=0;fontSize=12;startSize=8;endSize=8;" edge="1" parent="1" source="jZpcVFZZBrPNj7oELyAY-47" target="jZpcVFZZBrPNj7oELyAY-44">
          <mxGeometry relative="1" as="geometry" />
        </mxCell>
        <mxCell id="jZpcVFZZBrPNj7oELyAY-50" style="edgeStyle=none;curved=1;rounded=0;orthogonalLoop=1;jettySize=auto;html=1;entryX=1;entryY=1;entryDx=0;entryDy=0;fontSize=12;startSize=8;endSize=8;" edge="1" parent="1" source="jZpcVFZZBrPNj7oELyAY-49" target="jZpcVFZZBrPNj7oELyAY-44">
          <mxGeometry relative="1" as="geometry" />
        </mxCell>
        <mxCell id="jZpcVFZZBrPNj7oELyAY-49" value="" style="shape=image;verticalLabelPosition=bottom;labelBackgroundColor=default;verticalAlign=top;aspect=fixed;imageAspect=0;image=data:image/png,iVBORw0KGgoAAAANSUhEUgAAAYYAAAFFCAYAAADo/Er/AAAgAElEQVR4XuzdB5hFRXk38GuqiRg19o49CioWxG5UEE00CigoEhEbooigYhd7iw3QCCr2gmJUTFDEhkGxt6gRGypq1BRbYhJN/fjN538zHM6999y7d3fv7s55nn12995z5sy8M/P+3z4X+N9zr1G7GgUaBRoFGgXWhQLzstxxz+Xzvu99Vn9e31t//j//8z9l7Ln/Ag0Y1mUttJc0CjQKNAqsMN95SNGAYR6qtWcaBRoFGgU2AQXm0RgmPTOrxtC9v9YqmsawCRZQ62KjQKPA1qNAA4atN6dtRI0CjQKNAquiQAOGVZGvPdwo0CjQKLD1KNCAYevNaRtRo0CjQKPAqijQgGFV5GsPNwo0CjQKbD0KNGDYenPaRtQo0CjQKLAqCjRgWBX52sONAo0CjQJbjwINGLbenLYRNQo0CjQKrIoCDRhWRb72cKNAo0CjwNajQAOGrTenbUSNAo0CjQKrokADhlWRrz3cKNAo0Ciw9SjQgGHrzWkbUaNAo0CjwKoo0IBhVeRrDzcKNAo0Cmw9CqwFMIxrM+W0Q8W+gnm+y/O5v5Xd3nrrro2oUaBRYIkp0IBhiSenda1RoFGgUWAjKNCAYSOo3t7ZKNAo0CiwxBRowLDEk9O61ijQKNAosBEUaMCwEVRv72wUaBRoFFhiCjRgWOLJaV1rFGgUaBTYCAo0YNgIqrd3Ngo0CjQKLDEFGjAs8eS0rjUKNAo0CmwEBRowbATV2zsbBRoFGgWWmAINGJZ4clrXGgUaBRoFNoICDRg2gurtnY0CjQKNAktMgQYMSzw5rWuNAo0CjQLrTYFFg4L+1/WP6vH0fV7XTurWTfJsq5W03iuiva9RoFFg21OgAcO2XwKNAI0CjQKNAuelQAOGtiIaBRoFGgUaBc5DgQYM22xBsM392q/92rYadT1mC/4CF7jAph3/Zu//piX8Nut4A4YtOuH/9V//NfqN3/iN4qSZBATdBTCJac7ClLz/v//7v8/3/lne19eXIQs293jez6//+q+Xnzit0KO+ZzMtge4coHHGFSfdJBp1aeNZNOrSI7TL73oNzbIONhNtW1//jwJD9lmXXtOeac7nDV5hwOAXv/jF6D//8z9Hv/zlLwtT/N3f/d0CFP/xH/9RGMFv//Zvl16G+XZ/+65mANr0vzYxo9/8zd8c/dZv/VbvSL3ztNNOG7397W8vwKDtPnCatpDGgdS053TK+4z7Qhe60OgSl7jE6IpXvOLoD/7gD0ZXu9rVRjvssEOhRR/T2+CpO586X9MA3f/93/999OMf/3j0rW99a/Ttb3979N3vfrf8/6//+q9lbofQJm1aI+hkHrvPoY/PL3axi42ucIUrjK50pSuNrnrVq44udalLjX7v935vBWhDw2WiW+vL6ikwZB01YFg9nde1hX/5l38ZnXTSSaMvfvGLhQECgRvf+MajPfbYY/SZz3xm9J3vfGd0t7vdrYBFNAoLwb1ZEAGFSJP+x5g+/elPl5999923MAmfh+lHIqAtYFxf+cpXRl/+8pfL+25605sWBu0eDLv7XBeIpmkufQStn9G+sf3kJz8Z/dM//dPo7//+70c/+MEPRhe/+MVHt73tbUc3uclNRr//+79f+r6MprXQMvQHyF/72tdG733ve0dnn312AfwrX/nKZTyYN2ZdA70xhR71XNZ0+9GPfjQ688wzR9e+9rVHl7vc5QoQWAPmz+Ud1tIPf/jD0fe+973Rv/3bv42ucY1rjG5/+9uPrn/96xfhIO/czOa5dd2cm+RlDRg2yUQN7SZmiBE+/OEPH51zzjmFCdrYmPMzn/nM0Wc/+9nRBz7wgdHRRx9dGIrNjuFf9KIXXQGGf/7nfy7SJ2ZzwQtesHzvPkzilFNOGb3tbW8bvfSlLx1d/epXP48Zou6jhaUN9z7lKU8Z3fKWtxzd9773LQAFkNaLkegHRqfvJOz3v//9o09+8pOjm93sZqMDDjhgdMlLXnJpgSHaFi3h1FNPLbQEBLe73e0KYwbM5ifaT58EV5uJut9j9g9+8IMLfe53v/uNdt9997IOYnYLcwAQ1hSQB0y0lD333HP0R3/0RwVca1Pd0HXa7ltuCjRgWO75mat3pOPDDjusSMz3v//9i/SOoT/5yU8eff7zny/A8NznPnf04Q9/ePTBD36wMJYb3OAGo3vc4x5FGn3DG95QTBaYEOZJ+nz5y19ezEh/93d/V74DDKRMbceXUHfWuzGc973vfQWQLDTS5h//8R+P9tlnn9FOO+1UNJnY+9fCJJHFrS/RUphcPvWpTxWNascddywM0TjX4v1zTd6vHoqGBqTf+ta3FkAHCAAWIBhPral13wWUCQMB/r6+YPaPetSjRmedddbospe9bBEizM0tbnGL0UUucpHzAAT6RAM744wzRieffHJZM3/6p39aBIjaNLeacbdnl4MCDRiWYx4W2ot/+Id/GD30oQ8tDPAqV7nK6Gc/+9noMpe5zOjYY48tQOAHQ3zJS15SmACb+zve8Y7RQQcdNPrEJz5RbNYY+Fve8paiFZAKAcuhhx5aJEaayMte9rLC7B/96EcXsIgPIgOJ1PnTn/60MKiYdmgLt771rUdPfOITR7vuuut5bNULJULVWCTvfATIvvSlLxV63PnOdy5mtZi41qoP87QLxDBgtD/44IOL+YuG0HUEp+3aZITpH3XUUaOPfexj5zERdvvx9a9/vYAHGjEl8SM88pGPHO23337neVeteRAQPve5z41e+9rXFs2FJhhgWEaz3Dy03+7PNGDYgisAU3jYwx5WJPkHPehBhdFj5KR/Dkeawl3veteiGdAiAAPT03Wuc52iAdzhDncojIFW8dWvfrVIqBj8i1/84tFf/MVfFAn2Fa94RZEqaQQYWCTyLKhI4IAGA9GXC1/4wiuaifdf/vKXX5fooHqR11rEm9/85gKej3nMY4r2s0wX5otpv+AFLxjd8Y53LGYboOrqmuH6NjFmTzOkPbr67jGnxx9/fDEN8RcQArzLOqHdJUCh+86UIyAkvPGNbyzmKKa5OpJpmWjZ+jI7BRowzE6zpX+CU/GBD3zg6Oc///nonve8Z2HqTCe0BAyHw/E+97lPYfS3uc1tCsOmHRx44IHlO0ycDfnEE08szIIdnuR6yCGHjP76r/969I1vfGP0yle+skT4xFFZEyWOU7+1e+SRR5aooLvf/e6jO93pTiU6KGak9SBm7cit38dsBvyY0DhUo+WsR58mvSP9ffWrX10cziR4c1Bv1tr01beJY4qatMFpevvvv38BD8IAMxItTiRXl8l3HfvaZeYCLEDo8MMPL5plH3BtND3b+2enwDIBQ1/dpBUB9Nw//nf24W2/J5CJ6ej5z39+MQvZ5C4SIH+DSCFmAOr/6aefPnrPe95Tvhc1BCyYWEiBwEXUC7DAFI477riiGQARP3wYoowSshobNFDRB8yGJEqjACY0BDZpkmlfaOxqZ6pmXDFr0XQwVP3N8olPw//G86IXvWjFJPY7v/M7q+3GQp7XN9FUfDNMfWhXm2hiGgPKcQwDf76fPtp2P0tborRe9apXFXNQorS0aY7QDf1oKQGqGjgDPHxWBIwjjjhitMsuu6xbUMFCCN0aGUuBedjttGeyjrov7fu8BoMGDAtYqNmwGDuJLjkEHIRMRpgHcxIzEO0BA/cMHwQpHmPAZETxuIcU6Huf0UC04X+gUEfDxAadxLaPfOQjxeQEpHyHOXcZ1FpEJulbpF0MDiDutdde53PYWmxAjCbFtPbUpz51dOlLX3oBM7CYJpjwgDtf0XWve93zOIL1HSBwGvM/mMM42APMfb2o6Y9O5soaMce1BmJduHbeeefia+KkzzrqaoYA7BnPeMboVre61WjvvfdezOBbKxtOgWlMvq+D055pwLDh0/p/NuU6ln1F/fpVRrBu1pMZplr/zj3xIdRDS3a1zwIMkdaBDzDBZJJslvv6fs9Lsr7+py/CU/lRrnWtaxUNCThFWo4UQmviAwEMHPXLcgFWmhvnPs2t1hgwf6GjIsMwddFK7kkYcGjS3ahdYDY3wD1gYo79LaKJrwmw0xr4qwgCXcey9twviMGzQGwtwH5Z5mQ79WMak2/AsIVWQxj+Wg5pPd4xtP/6wkH6pje9afSEJzyh+Eu65TAwYAxWrsU1r3nNoU2v6X36/a53vWv0oQ99aPTYxz62MGVXyl/4zfkvOgxwyD1IQtsiGDPQBA60lj//8z8f/cmf/EnxDQUYuu844YQTSl8EMsTctIh+rCmRW+MTKdCAoS2QLU2Bb37zmyU0ljOeo73OmzBwznY28qc97WlLAwwk+b/8y78suQsc9xh/fTHzPfvZzy4mHuOiuWHItTloNZMaMxNzFecyzQ9AxV/VdUS//vWvL2YtNKSB1BrhavrRnt04CjRg2DjatzevAwVE3pCqRWexl3eB4aMf/WgBBhoDk9MyXBi9OlN/8zd/cx5gSPkSvp7nPOc5pb/3vve918SZjw76Qdv6+Mc/Xph+NJeaRvr0mte8pmSVP+lJTyqO62XSGpdhPjdjHxowbMZZa30eTIE+YPBwmBdgkOgGGITRLsM1DhjSN8DwvOc9r/hERI3lWrT5Js55kWV/9md/NhYYhC6LcKJVjCusuAx0bX0YToEGDMNp1e7chBQYBwwZSoCBfVwxuWW4Nhsw8HeIjHrc4x63UlhvGejY+jA/BRowzE+79uQmoMA0YFAygimJGWQZgYEZTNhwfcm/IMGvl8bAgU9D6TMlYSDqaAGGxz/+8Ss+hk2wNFoXJ1CgAUNbHluaAg0Y5p/emJKmAYNyK+pzifxaluzx+UfdnoypdVZKTAOTlscwK0Xb/QuhQL0wY29vwDA/aYcAg9ZFLjVgmJ/Oy/jkNCbf1+dpzzRgWMaZ3sJ96i7Iupqquk4kWeWhVVLtJmktoykJQ1btVrkJ4arjTEmy2R/ykIcUu37CVRcxzXHM64ckN6fxjTMleR+N4R//8R+LKalVV13EDGx8G9OYfAOGjZ+j1oMpFOhm+vofOLB7qwWkkJ/wzoSr1s1tVmAQPqoWlkqoEtBkQCeHYN4F0818nwUYVPTlfG7AMC/1l+u5tQCGuuZRRtuXpd/VLPrqJuW5C5z7Ryuit1xrZ2l6011cqn3KAVAinInDSWUkb6Wrt4rGoCqs5D2agnpQKtf6vRobfwOGpVnSG96RedjttGcaMGz4tG6vDkTC8FuRQKUkHIMpyki2s1o+Etzqsg6h0GbVGEQlXeEKVyjF62QeK4Ynp0HBPaalRUjus2gMijbKY1jEe7fX6l3O0U5j8vOYkhowLOdcb9leWXB+JH6JoFFOwjGVwEB1V4cQOXegW74aQZYVGOrM5z4fg8qrgIHvRHKZ7GNnNyit7tCcRZQQnwUYHAblwKMGDFtjmzVg2BrzuC1HUZuQFH1zIptjS5mMnESGoYpKcq4xkGCL3yymJGawL3zhC6WcxzhgyHkZaitx/qa+0r777ls0pdVmIQ8BhuQxNGDYWluwAcPWms9tM5qu+ejUU08tjJE5hcTsbAn29u9///uFuTqlbSsBAx+D85mNN2dLMKMBFIcvKa7nbG3gMK8U34Bh22yn8w20AcP2nftNPXILV+kI5iOgoEw1SdkRnakCaoDMLBzPk4BBraSjjjpqaTKfw5A50Nnt+zSGGhiMM+DAdEZz+uIXv1hA44Y3vOHMx6jOEq7aNIZNvY3Gdr4Bw9ac1y0/qgCDY0MdtIPx8yvQFIRtRkqOxiBqh8bQLU3Nx3DMMceUswSWpSRGgAFz7yu73S2JUR+SBCB874Aih/kcfPDBo5122mnlvAYLY1qxvQYMW377TB1gA4apJGo3LBMFME0mIj6Fv/3bvy2VUW9+85uX8tM5n7hmfsJVSd1yGBzxGWAI85NE9qxnPavcQ7pehovPQP7Fd77znV4fg/MYHKeJ4XM+h9HHCY9GbP5qQAnd5Xy/0pWutDL2acAQGjRT0jKsho3pQwOGjaF7e+scFIhfAcNy9KTTxSR2PfjBDy5HUPYxPAySmejGN75xAY+cUx1gkAsgY/eQQw4pNvmhTHOO7g9+hK/gRS96UZHyHauZIzvTAEczYNBf5yx3j281NjRyqprKp87zftCDHjS64AUvWNoc6nNowDB4yrbcjQ0YttyUbt0BheHRFlT0JO1j6qqMhuF3R8+sIuv54he/eAEQzHEla/LcM4sdZq8NZijmpqFMc62orG9yApxBfaMb3Wh0r3vdqziQa+Yv0ko1WEC3++67r3SljtKKqU1k03HHHTfab7/9SqRSymcM6X8DhiFU2pr3NGDYmvO65UaV5BjHTSoF8cY3vrE4V3fbbbeVbN/uec6IwCwjxv/ss88uZpmLXexiK4f0YLa+lyyGYR522GEFODbqikb09a9/vWg5tBgJbDnPWb/c48jPF7zgBaUEhYS2+kob+Qy9JPv91V/9VakZxfw0NDu6AcNGrYSNf28Dho2fg9aDARTApDBydndmlF133bXY1zmb4zfoMwMBFA5qYZz8CJe//OXL22on9Lvf/e6RH5rD5S53uQG9WZtbjNElwsqRmjSd2jfgO+M55ZRTCqN36lzGM65HqRnFwb7DDjuMHvrQh66AY57pnuEc+gwBBvcqotfyGNZmTWxUq7MCw5D758l87go6aSOft1pJG7VCluS9FsIvfvGLEm1zxhlnFKbIhBQmVv/uStAqrL7whS8c3e9+9yvmme65z/wMvr/LXe5STDO1hL7ew2fa4jQGeCqnCr2tQYxpDJOn6TziEY8YXfjCF57YxZiURChpV0hvzE8BhEUAQyuJsd4rZW3fN4TRd/fZtB41YJhGofb9TBSIb0EUEqcs5rbHHnusVBOd5jAWxcNc5ExnNvuaIWqbs/eEE04oyXCypDm019PXUPsGPv3pT5eIJM7iXXbZ5Tx9tbEUBBRau+eeexbHMxPYpPFrO9FKzmZWNkMILGf9NACcRWNowDDTkl76mxswLP0UtQ5iULQFDmcmC5KyswjCvIcwRucbON9ZuWomldoBrX3JZM9+9rNH97nPfUqxvdWWsB46a5Ho/QZgL33pS0f8AvwB8XckT0GbH/jAB0ave93rig9ixx13nNrPRF95lu/i6U9/eikZcre73a1oJeM0LZ/PAgyt7PbQGd8c9zVg2BzztK17SeL90pe+NDr66KNLJA6HLAfqNIkX0bLAmVJoG56/5S1vucJQI1HLoJYxfNZZZ5UQ0atf/errQvNoQ0xD73//+0sflLPQx4wPMGDS7pG34ZK4xow0i2YDcJjiaCUc8YClAcO6TPOme0kDhk03Zduvw0w9HJzCNFXwFFmEWU5jirWJhm0+CV+ijxxsH9t9ykmw7zup7LKXvWwJbY1jO8xzmslqlpmp7a3aleUMuCTrKfgX30LebSzAjS/kAQ94QHG+z3NqG38K571MceYoV03HriY19AS3pjHMMvvLf28DhuWfo23fQ3ZxzEyegQxmDLE2kYwjUO6JVC7MFfMlkctbqJPdwoA/85nPFJPVLW5xi1JCQ3JZ7PiLBIZEIOmbSCuJaICItiLnIseT0hL0E7BJ6KPZ8BEwpc3THzkgSojwp4jSijmpplVo0UxJ23frNWDYvnO/KUZugZJaldN+4hOfWM4gmOfSDqbKyezIz8MPP3x0yUteckVaDnjQTkQ9CRfl4HZONEbdrbE0Tx/yTJzBfrP7y7PQPk3AKWzxKdSheh/+8IfLgUP6rXrs0FyEbj+1yYlPe6IVXe961zuP9tU0htXM7NZ5tgHD1pnLLTkSzBMgiOcXbjrvGQNx8n73u98tTmZmFEw/2kC9ETi6P/KRjxQQYdrhkAYOi7rSF/4MWgAmz7xVH80ZUxMzj3pPDua59KUvvVLaQr/nuXKgkRyJK17xiqODDjroPE7oBgzzUHXrPdOAYevN6aYfUb0ohWcqcgcUFLmbV1JGlGgFzm2QIIYp3vSmNy2mmtofEcYtikliHLMNE9b1r3/9lZLe42oO1SaZuowFhpx3KAVOK3EEqcN2JOph0rVWkvtpMK9+9atLmOkRRxxR7h/idJ9kXmNOOvnkk0tSHxMdLazu6yRTUt/4jj/++BEfgwTBaX6fTb84t8kAGjBsk4neTMOMCYWNWxawzGXhm84lGFcTacj4stidj4yZKZMh9NWBN13AwZjZ9zFxx2yqy8TswrxEsucc7mOCfYxTW86OEOv/uc99rpwfIUJIWCyzUHIKamnd3/wKp512Wnm/IzuBWA4gGjLevnv0Awh85StfKZqY8etDwnOnaQwZnzFl/A0Y5p2N5X2uAcPyzs227VmAQVy/KCFRSOzhzCf1WQtDCNRd4An9FOGEofleMlkk9rrNSO0Y9Kc+9alyMhpQudrVrla0F9I7po5Z1yYp78CAAdtPf/rT4tMQUSRMlGQt+9rRowEkz9b+BH0AHMxZHMXudV51qqz2ZSwPoUW0JuMCUoABKBxwwAGl//l+nMZgHowLDfTFudL6go4qvmqvaQxDZ2K572vAsGTzE4lsybq1rt3JohQ5I16ftMwfEPPNLNE4fQvcZ5gj8ww/Ar8FUxVGXTPHMMi0gal/9atfLdqDMhuc2Re96EWLE5v9v45ekoiHWQIFphv37LzzzqXon3DYRBUZSyKQ8h73M2MpFOh+md59UUiz0KGeQO+hDQkB1kc5DXXS3yRTknHLzAZU+qatBgzruj3W5WUbBQy1STd7sWvm9Xl8cFuqVtIk5l9PyLSM3mzgeVfKMoOQvmHADpmR1KWK6Gps66FRd+F9+9vfLnZ2jFeoKC0gzJoTGvNXIgPTT40ljNsBOLQOET5MUiRwkrT2maUAhgJ3tAM2fG3IZKbx5LChaAkWufYTrfTe9763OKXVbtpnn33OZ0KbFxC66+T0008vPhQlvJ3Z0F17feGq5kQuiXmRQd2AYd7dt9zPNWBYx/npJjV1bcphFEneGscA+swj8w6j24fVgs28/eg+x2TBOSpsVEROqp6u1lRR28gDADSHE088sZzNQDORPMY8xLfBSUtrUbcowBCaxdRE+sZE9TmfMbMAga6JBqhgroCISSpahjZI73wKzFbOTnB+daKh5klmmzYXxq18Nz/Dta51rQYM0wi2jb5vwLBOk43QGEcIjpFgEphNHIqYA9syZlEfqJJolT6VqmtvngQmdeRJQEg/Alh1QbZFxu3PSmJ9Q5vXv/71pUSFukAcz4u+kvHsfT/84Q8LCJx55pml+qgT3yTDmTNRUYApju+ajr5PVFP9d8A9ZivfmWt+k2c+85mlcB+bvAxs884ZzHQEnBT6U/ajW8toUZpC6Ohd+qBMiLDcPo2BRsFZDpz1tdYYOM9rH4MAgdUC96LneCu1t54afgOGdVw5mB1mhAk5PMXpWhgGM4kyCEABcxBGWZs0wmRqW3QcnHUJ6SRG9ZU4AAC5N5nDhi7qRv2cP/zDPyzMMBpDFmHNBGsQqjWNRZNQ2xy+GDOweuQjH7kieS/yXbUpR7upVySUVeLZz372s3KSmkgkfohuue568/hbuQl5EjSOlLTIO7SN7ubwfe97XzlrgZ2eViDbWgKb2kVOWqvzGbrvXOT4mcOY0Tigma26lzXTBQbFBvkkmJJqYGjhqoucmfO31QXtvrcNucdzQ/buvMAwqe0hZbdr4Td97ROIt5SPwUZji5Z1ihmk9j9bLwej8wWcyiXDlWrP+SqqhaRGYsWoYvfWFocmkGG75tBEQHZvAMOuzaHICYoBACXMCnNi72Y79xkJlqS3//77FylVu8wXntMekwcTh43Pbs7JKiIl16KlWO2adPZ6iWiYJKBcTf7CuC0b8KsBAq2YlTBuY+VgNU+ikOJrqPtSm5UwUaDi2TpDu95k6MshTWsw705UM+9MR95hTmM2qjXFRdG57ot1Anz5F9B4HDAw6dEY9G1ZgGEa4xpqhh3CzhdF+yHvmrRWI7Rlj9gn9Voc2s9FA0O04rp/fX1pwNAzu2E+whYdSYkRO00LsWgOmDZmKEkIMAAFZ/UCBrZodmBqvPIQiA4kgAcJlVTNgUhiVZ0TeGBopE9tqEwKWK5zneuMvvWtb5UaOeLpP/7xjxdAeu5zn1vqENEetMu5iGF4D2lSgpV+MG2QFMXTrzUwMHM4d+B2t7tdOXdgra/4BjiSzYENJ4zVMZps/nwGN7nJTQo9rnnNa66EatZamtIWb3nLW4qzXIRTNDdzjwkTCsyFmk38F+gto1ttJiDk/jqze8gGnpUuXYaawoK0gK4ZCIjRbOWSBBisVbWaNlpjGCdZDvXPZT/20bhrRh3KcGedi1nuD/PNOq01+TDkulR8X5+7Y/bcuNL104C37nvWtz0ToGrAMHB2I51+7GMfG933vvctTA+DZUfHrCVPkR6dF8CmTWpFZKUbMJwwI7H0YvoBAE3B9yJYlFSQTUsDYJoijaq9w25OCnYAjVBLz2P6sm7d7zmbHojY9LQD/wMal6gaBd60SWIUiZIIIcxuqPo6kEzlNotfPxyuA7gUvFuPzUmLwigxbeAQ0xrARRugDiABMS3OD4ZOw6JZvfOd7yxmIsBKu2AOAwYJW/UsegENoavmhRDA4S0kVxltzHg9z4Iwt0pu6HO3zMY4YLCW1GzaaB9D1h7NV84HLVeGeq3RdhmY/z1nzPYiDRtzNCeAX0FD/h/rvq/8ShdIaq2zXqPdfdF9ztqwpqwfJsRpvhnP65uINZYAgp7nzjnnnLKWrDNaKp4QYaW7Z+wrbdD8CUDa0YZxar/PBN0FiK5pWZvMrkyhBE9m1LpcfE3/pjFM0Rio7aRgpRAsTklMmAKnI+mdQ9BpWxKbMEbOV9KlxYu5AxXllzlktSHMUnsiWkyKk8osfJsEMAAVz9A2SIAYP+DAAAMMfBwWKpORpDJ9sGBoNw6GoWEAAn2XEOU+jNJnubJJ+nwRQ4EhkhGtR8YvrYr2s9bAgLk4D8UX/ogAACAASURBVAEYAUngnYS6OOgxDKY7QG4eaGuYvWfRwedKeGAq5hOw0wQBCJOYeZBIZ2NqG3OQRwHkzfutb33rMs44s7uS61AaDr3PRqUNYo5MmEOAgSmJxhBg8K6NymOwVtCQBsZ8R6sznnF1rcLkCAD8avYI8515dQCS0GCaOsA2/+bPvZittq0DbfgM+Pjbs+bTvrNm9ce99g76Whcx+fgMjfmbCHAEPkIWUyVrgXWUfJVEuqGv9rTPTGmNpuqv9xL0rBt7PzW98j791h99cK+16p34SvrNjKnf/kc3a8//+qIPwCOaQOiHPu7Rvu/QkmncUbTXvva1z1Papd63DRjG7EyOZgtCiCBC3uEOdygLyOlimAbJEYNwyhamSAJi97cgHNxismxMTJvUb9IsBjV0MGsmD5NmsXvWgrNpAQUJ2OJn5gAC7iXJ2uTa8hlmx7wkSgVYkUT0kWZh0TiEninF+y02z0cCq8GhHv6sDN398TE425jWowT2Wl1Rr3PkJV8Nnwvnf7SXmkEH/Gwa82FD2XDmFfCileflMJgfGxI4JA8ibWaTkPiYcWx+806Cq6XLWek3C530AaMAZkOBYVlMSVl3wNmaBg6YKg2ctjbpknvCfCepEWM2h9Y9Zm8PYNKCMQhO1rl5pJmTjAlD9pg5dT9/kb3J3KsCMMGBUGDfEOZo5taAH/uQVYDU7/9PfvKT5f3+ltBoPTEt0sr5dWJJYE512afob38CCkKGul/W6kknnVT2irXovczMBEemS+CAYdNOCD6ESMKKPY2562P8kva3yDymXGuaFgKIjMlalOCo/2ikPUKQhEe8gPDpveP2fwOGMavShgcO1DkhgEIULUrMAIpbbECCFmByLQ6Tg8nQHEwyFVAEickxqZgmsxOpAeFJDhaCRWhxAwNlG2gP1E0bh8RjE5ls7/Ue7Zh4zA2TcpFygQMbswVng1jwFkNsubMwolnuNX6aEl8MU9Kirj6bskUOrJkjmPJoKOOcegGGvv7YIOaPeSjAUt9Xq+X525xhQLQ4zIdJyTrw/Vo43Ov+kID1GTMDDF0T1jL7GAIMfGLAlWaM0dJup2kMGLh9QihCf2YQ2oP1ri1r3d7CqO0rew0TBAJoIqeFlkeQI4C534l/3g8kHLoENPxg7o5RxWztc+Y3DN79NDVAkfM2AI42CHsYPQsBUAAA1oPPmDXta+VVRLTRGOxH47dX+LiMQzCD5E1rCA8hiNKESfeAge8McABWYKQf1q7f1iPTNtOQPKLkueBVLBloYJxoaJ3bq4Dl0EMPLaA8bo80YJjAxWq7qAnDYE0QCSDqmwWVZCmTEbNEjne0kNwbKTQx8towQdQ8jJ824v+UktCtqImYT0JYfa4f2rM4TWB9ellUX4BR1+uZZhddDTO3CYWKkp6A2qIk59A/v9EO8AEGEiTNK+ac9L9rOx7Xl3mBwTwwKQF4vh3MyNytBzDwTxEk+Bg2k/M5wOC3NW4cJF+mJNLwuMu80w5EkAEGY+YXIhTYMyRk9LBPaOsEJho7Zm/f0cYxTRoHRpxKufYGcyumTNrGzO0V9aUEdlgbmKa1TGrHdAEDjcGFUQMZIM2HCKxI6iT9hKkT4ABDwIpFAMgRnFgYmMKMn0n6Bje4QRkXDQNwEX6YjTF/QMWUjBY0JOve/ULl7TtgATz0kaDEfGzczMdAjQAj74VPjaAKRPEL900qi9+AYQBHzGTHdII51MXUupu0lnTHObZiFulGGnSZYV88fleS7nNg1e2stf2bdmNRWoC0pbUABqBAa4vpiLlN6Gb3XYsChpqZZYmgqbm3GeUU0Oaikq+1E9oapKnY1JhGd9zLrjGEngQXWhpmhwELkph0Yb7upw2Ttq0DvjdzAVQIY/4GFJgvZoo2wELpdQxTnSlCBGDw3jiCaRHMLcxDtBB7GjBg2IQ5GjfTF8ABDCRua9DzBETaifXO1LvXXnsVoAmvYDbStj7RFAACn4M2aTCAgcbg2FYajjHaP57Xx0MOOaQACMYOHIEZxu4edKBNsC4wtekzs5C1SIv1Pe1MlKO2aSQEGWCnfTwFwCQps4/+DRgGAEO7ZTIFMMgcTsN2Ou/BNN23BDwxPZKdd1Dz5UzEnDavJjRNY+gbcZzt+mOz2ohMBfwOiTBZq7WC0Rk/syNG0L2WHRgiqOgnhiiQgzAxzccACDBePjPahuddpHkasx8Mm3nGHLgHs+WHYnbxHSChzZKi+QeYdUjQqW4Qh7J2mY/4njzDzGXdSZr0rLb4LdjomWqBCU2BZoDx+z7jZOJJAqWxYtZMRDQbPkHmKe1om6+MFoUZk+KBHYc68w9AoI26R3/5Z6x5ggjTMs2LCYvfRBsAyhpxr/cBqNT88h2TFXAGTOM0huy7eo31mVZr4bMr0NZtBGS2VBG9tdroW6ldTEsopSgR5pVxIYizjDkLy28L2UYmVdkwzAKYgO82AhiMg0TJRo7JMXMACH1yjQtBnGX83XuBL0aKwXlXHzAk81mkGkm8dj57zrWR5zEEWJlhmGaFcdZm0D7BAFNJSXQ+BUySCQnTrqN4aAM0V1K0HwydgGIteh8zEdDwXrTB6D2jHf2I5kF7cF8YaExM1iAmbd59R2Pwo//AyXOZf+NgEkqEEdMQIDGH+kELMib3+1y7PvMDKLXpPs/5oQ35zH1o4H1owGwNnHyvLaYlz+tz6GaMxk9zoGEZv3e7b5z5swHDanZqe3aFAqQTDJIKLK/Dxpz3qiWP+GOoy5zbVHWO11rKnNdsNY/GYEy1im3TiUwjGYpSIqklEzpOvXHOvVnp4x1oy6bNRDIJGFIrCTDUJTGWARi6/Z40f2FQ3Xj8GnhjGsm81L4474opNr9ryTdCRZ5JuzEHeb5rCrYmUy4lknjaqc2+K1LyuWYtl3ekfW3WyWXdd3RplDHW/an7Wq+xmI1Ds/SjFqKmrckGDLPuznZ/LwUsJOo3p7AfavKsDLveHKSy+HHYSsW9i/IiMYsyqU1Vs74nA5gXGLoqNZOSzGKmDb9JjtnAi/TtMKewfWP0bNx9wCBKjfmBxkA6FC6dsttMJMsCDEPnrKZ1xtsFiT469GmRXd+T5/r60QWjun33A4Zc3fdM8ndlTWRMQ2kwjeV0TThpdxrgTmq3AcM0qrfvB1OAnZVTFOPiIKujq4Y0Um8YdmARGPwIfAqigB74wAcW2zo1eV7zUd2PRQEDtZ4JR6igkt8cmsCMmYNzfDW+h5ox0siAA6d7X4gnIA0w0Bjc0wcMHLHMKDSvRdBxyNzmnnmZYpf5dZl6mCCBwtiYZ+rjXLvvDePrG38fGNWgxBzEAS2SqXvMa1cSr5kzUxTncQ6Lqhl4pP+altOk+tybMTM51XkJDRhmWZnt3jWjADsm6RQoSMBLeO6szMeGwLSZaGgHokE49oBOfd7BagcyLzBE8qt/sydzRMt5UV0WmNmo/tbneaXDmAFsfuHAbOPAB9PrXiRZACVSRohlrTHIfOaoRFux7WzZAGbWuVktzWd5PozR2EO/mHxiytGe7/0PgK0V4CjyB5N0f76PmSdmopj8fO6+lNCPQOMzNK3LVviMw1j4K3oqwxKm7jvO3GTee09MTe4BDCKDJMcqr+P93uW+jDGl4usoyJidPO/Sfn2Wun5bb9aeygdDzlmfBH5dzaYL6n3rv9YwahDP3835PMvK32L3ckAzddg4mDipbZ4QTgufOUo4qL+1I0QV2CwLMGRz1HZtm5MUTlPghAeQpHPRJPMCQ8p/8y8AXVm0nMh9TkP3YoqSJPk74nzWJ8Ag+kV/ASIQ3wiNYZYlj6lgmCJrkuCJxpK1kr1uPJLSjF1UDroARVFJsoKTF0Bzkwgpd4HjWBKqdgAsPxFzIJoAAfNG63AfpsvpK9yT0zaAr0802CRXJvlVaKwciswbZk171H/ar6Q3GodoKdqGPnAm0wStET40uRDMpvxIxudd2vU7ORvqRBmDfnsHQOSsVuZiUm5CH5Pvm5NmSpplpbZ7J1LAIrbAZWsr+yF0b9aTzCxIm5GjWQRSEv5klcrUJBGlHPlqp2M1GkMNDMaNqWDKivqJXTcOSUbMP/o+LzAkskRCF3oo/00S7msPiNIY+BgSs8904TP+D45xvgmMS3+VSllmjQGNzb+wUdoXRsqkqB4XMCAwuDBz38suZmqU+CUs0xgxfYyW/4uJD2hinP6WF0Gr9ZxwUvOEdsJJlR3xI4zVMzRWDNyzIoEk0VmPgAEN/S86CHDLUTBv1oCQWe0xjWpLpnSqKXuvdoWf0u4AOeafz0TeMVNaQ+ZPORQABbTQRfirvAhAJmQV+BAAGjCsljO05xdCgVp1JFVh6lT5hEcOZYpph0TFiSuBB7NjkyVtAQXJPonrXm3nFwUMzA02KK2GpIdR+IwNGsPAgFbDgEmJTBcYnUqpGICrS9falIRZMD1hjNEu0DFgIJRz2U1JAV8MVCy+0FDMmcBBSgZ+1gotIMUSMWvJZLKFAygYPs0Bg6bJccIz5aAfBq5NzB/DBRAyla1F9MKc1QADQjRh/5PMjz766MKsAwxyKDwvlNq6xdBTnE+eQ5LRgIfsaRI/bTLntUhmAzjAH3gDdOvdfgIM9hLQwviBjSxpWpALHeRMqA01NIeomZJWyz3a84MpYLHZaJiYDaBmi8U+y6UNDJAdnfRkA5PumAXEYdtssbnO0m7fvYsCBmPGNJgZlOuwSan2GAuGYQzzAgOThNh0YaoYDHNQN1M+YwOiTBWYBmDlgCa9hsFK6lIiAfNLvaV5+7Va2s/yPIaLOaOxMWDiaMtcZLyAF52UoKBNmANMmxSNoSuJQcOgMSldIRkMcAIGjJmG4XtMPvWHaBLeQQNBMxK9NS1/xDqUUey7AIMMZQwbMJDsk1fg/Zi6teY5dCcweD/N2juYCSWbMZO6D3DQ6rQPGKwhJS8AHuADAMLCAZ61oaaS//0NYIYklzZgmGUFtntXTQELLmYPiW427dDoCi9PhjMHqQQe0hsVO+VHEv45D0PrRqYsAhgytjoJC+OV+MashoHQcubxtYQeGKHkPj4GUmI2fp/GQEpW8JHJyUFRGAmTCK1ByK/DjPRtMx3tSROyHkjRyjgACRokYYEvigaBwWOYBAraBbOTpDU2eDTjk2BeAgw0B8+iHx+GaDLmHMBh7WL2zFNyZRznynzFT1T7O0TM8aMFGJiK3MfPITPanFujIuhoz2jOJwA8/AjnllBH2lc/CTABCZqGopzmESjE4ewzGgO/BlMl0CMkAI2UytB/PoYGDKtmY62BtaAApsNxTKKh2ub85SHMHINlP/WT8tdd6WaoaSpjqyMjAI/Nh9lgCBguhqnOfVT/IVEdk+jmHaRLwKBdNu55gYHtXE4CJoeWOfuhj5bxMQAG2gLmJnSYZMp0wf+BISVAYDOYkkJnGliyfZl+ctgSJslJTBonnZPsaRZMTGjvOxoo+hk7qZopKGWptc+sxtRknTBX+Q59rT//Mz9xQGufqTDnMIguco81C5g4oM2XvtVBEhg+TcG9zIKp8Kp/fmRrAwtAoY/6arzAx7PaAnT2FXDxLn02VvcBFSDmfyA5ZJ81jWEtOF9rcyIFMF1qPWesY0lJMq4h1UfrBVsnMnl+VkDodlLbIkTUqSF92VQYOGcuqZIaTpIc4rybtgTiRMfI5wGFRDuRREnLTCQ5oW6cBtYFBgyFiSGHGbGPYxqpx7+ZgCHO3O4a8Hmyguv1gkbGGj9C/kajvuMsSeYJHfVMmGutZaatZD5nTWovNZei0eZ3vZ5jak3fMo91KC5pP6GqiQxKAEedcZ93R1PtCgyTtPRpoBDTY/e+7ljG/Z9+1+2s0PHcP/532uZp329NClispBvmDCF37K7ZKBs5Yv0ilbFLi5oivcVRzO5Mok7xsXmYeT22bOLEss8y7mxqpgS5HCR/wEDSnaappFYSjYEUyYTCVwP8SKLmATAAxGUPV+2OtS7t4LvkHyQ/ob4/6410n6Mwu+11mX8YN0Yc9lUzb38nhyBtJT8hYFP3sfYFJdch7eb+MFHAkn4GBHNPSmkEDGpw7OtnGHLe2QXTIay5Zu4ZawOGWXZxu/d8FIgUw6TBYSbJS9z2ENvnWpIzG1tEi+geWo0NieE+5SlPWSlDvAgQqyXNWceUJC52ZGYgdmWmoEi949rr0xgwxkioYTSbBRjClGuGROAAdjGZ+C6MPNpArSUE+Gvpu5a283etLdRMMdpDPguTZV5iNmL6ybGg2oq0Hy1G36KNhGHnd853qTO0tW8c2vdOjuq8s2bw8Y8wQfHBMU/Rej2jP4SJ7noJUNT9GKeFN2CYdde2+6dSIBuZVMqMwT6q8Bt77UZeWew2regTFVGBBOcghyafSNT2RZit5m0DI2FPF4nEAc/hmlP6JoFWFxjYnLsMLQlum0FjCDAkk9ja4dhny3dqWldT8H8yolN80e+YWdIesETP0DISeq0F+DvaQcxVfmvf85zYwmSd3873kHtqEEsmdTKctRfQ1y+hzOYoZ4fnWd/xfblXtJJ+1me/RFuyRkQAipQCDNYKZ7skOZFw3ZpONTD0gUa9NxswbCSn2qLvzgK3sG0gNeJFS0jOGeJnWCuyZLHbFOL75R2I+FHKwilaGMiigGE1Y2DuElkj7FXcOgdlJMFJ7fYBQ/f+Ghj4f4Y4KlczltU8G0aOHkKB+YSEdmKSjst1iprxoA+zGTOgKrw5ppN/hlSOcQsB5bT1DOAV1cR5HIleJBEHNGYry5hGkv9pBkyiGK7oJc5vTm2XvJCU0wZaAFd/MWkOYv3D+F3GoH391b6gAv0WmcTRzAmt7/xcEvLUuRLVx1ekDQ51bTCBel4YLu1PCK/P0OWlL33paNdddy2hrqLSOL2Bj+gp7Rs/wEAPbcef1mdu6pqcmilpNau5PXueMsVx9gqZFN4n7K8Gh3ml6lnJXNtiPWvDivcHXPpFq4nJxfeL6Fe9kaa1FzOX+2xoUV0YhhyOmOCmMfEaGFJdtTuWzQQMmWPRXSRosf8kYvTAvJkq1SvCMJlO5DWoRYS5YubWHgYopFM2sYgi32HG5ttnhAH3CpSg0ZK8hcUKN5WP4DdwEenEnMe8h3ELa7WOmSCZgoCWw6OAEwDi1xHqihEDFZ+5R4Saz7QBuERTyWCWtyCxzXrEsN0PmLw/JTGY0IzVO4AQrcB3cjYACaBDE8d+iqwCkt531llnFVADqkDBe6wz+RXR4hswzMpR2v0zU6AraZDOOaItePHYNnFfZMjML5rhgT5gsPkwD07ZOlplI4AhTksMSFYtc4W8BdLeNEAIGbYiMKCLYAESOrMNhozRCduUt8BE6bNkHUtWQy9MFcMkaTuaEzPUBqbPZAhkSNzuJW1jsOz6bPbCP2kkBAf+Md9rl+QOWORKyHRX3oIDP8Ag7FmghTUlD8F3/Fjm1I9LP2gCNBaMfqeddio/GD2mT0sEejnPhCbL7OkZzJuwoA2ghcnTSlLqI6UxABHNRmguEDEua1z/CR2EMxoEzSLFGBswzMBM2q3zUaAGBszKAibRKAtAqpOYU581O02anq8X/U/pG1U/xcj0j705p2jFDjuUGS+qb/pFcpWpTHrE8Eh7s5jetiIwGJNMZjQRToxxYtyYGwmYYz7lLDBNpwgKJiCdY7iizQAtzcEcM+UAFExYsh8GDAyAB43A+5hrMFvSOzAyL9YuRzBmziwqKU2fmONI53xVotr4PoAAUyAfFmBgwvHDSUw74CMBTjQYJiHgl5IdKuMCPfkL+uj8ZpFmkfZpEJi9ZDrjJHTpq+eAjT4DFtqCfvM/AAbjBGpAS1+BqxwX/egThJqPYVE7u7XTSwELjPRLOmcOoIoLvcwJZLMW2ZuVzIkO8RyTAFsy6YstOE4999jcQjpj011tktvQfgZEOSpJoZLuMBcMDW22MzCEOZH0JeWZIwwfM2Ua8TcwIAUzBTGlYNZMRDQtzBszJtmrnUSrwBj5GEjKahEpXQEolL2IGci5IkxUnMvAw7pR8oL2AaRI3pirtjHXAANmrTwFYABWss7lywAbWrJ+ADTmKv1hUuJboAEAO+sPQPBBYPpMaMYEjABCkiaZn1IKAxAEEJiWmKfsNTkv+qCv+sO/h16AhCAEIGk++tOAYehubfctlAIxk9hgOSTGoiQZxfm1VhJ6QmdlyFLXbUqSn3ezr2K8mDKJzGZ3sdGSMOvs2IUS5FeNxa+AcTBloA1A4DjEuOJ8HfruragxoAGNEwMlaZszjt1I/5gqRojpYqC+M7ecrjQBc0jLIFXHoaw9lW+FUBMAPA9QzD9AIVn7DUSEowIS7THHWCeAxD2YKjCxhmmhACWlM4CQ8hju9z0AAgQ0B/1wzojvjMv/fHDeA2zMvfH5XjvGaD1ap0xExgk8aAbeSRvA/D1LS9CW9o3f98DBmta+542fAKR/da5Fvc6axjB017X7Vk0BjMtiJ1lZwAq9WfTT4vNX82KbSXVOjNcmt8E4H23WxKhr32YBXDYTAMFc2KhT2nk1feg+m1j3ZMtS64ECJiM7Wf/mAcpUV5U7wvmMUfS9O3kMyx6VpO8BT7/rzN+Y/AB7wlndk8REmikmyGRJQiahY6A5JyFrLmZMbdehrclrqBPX6ndFyk4kW9ZQ6B1Qj8aa/no/53lyLfJ9GHHte8vY60g5fUzSZNrommITVpvwWN8n1yNrLyG06W/zMSxyh7e2ZqIAqQpDJnHJ6CWxsaEmiSebZqZGJ9wc2y07LzMAZxtG0ScNZWPYeEwXSh2zBwsFXESJjK405n+gRWLExElvbNekO0xpNcCQWklbBRgmhU32AZ/PrCVmE74kIA/gk7cwyTyXd9WMsv6725cAhN911nOX0a6lH62vT1261Npnnc8wrl9NY1gUF2rtDKJApCCmHVIyFZuUnEN9FpUdTVqiXksiopWwsbqSpdo109TlEWxwmgMGK/ltVifwJEJk/ACIPZlTk7mDaS0lK2bxK9Tvisaw1YChHuMQBpu5rZl8Et6GPF8z+0lA0Md8x8390PcO2kTVTUNAYZZ+urcbwVd/lra6wFFrc/V3+XtlLs79o9VKmnWWt9H9tAfMl1PRosIYmVIWYVaK2YHzjZPOOQbMCdqm+ifTNSaIOrEtU0Di9DztwZGiAGweKb6rKegbmzbHpggadmLO5mgKkWpr5jR0WWxFYBg69rW6rwaZIZL2WvVjXLvzsNlpzzRgWO9ZbO9boQAzigWI8ZKaOfrEbIstp/Z3JfpZSOdZ7Yn1dqZuIqBiogEMgEmcOq1CZAtnYpeJc+KpVSQRSL9c84BDLUExbah4KkKLJuLdIlCGJrFNosNW9DHMMu9ree9q1uNa92vW9hswzEqxdv+6USBOML85pCUECSN17CJGnJr483TIwhcjzqRCGldcjHYQlZjj+5RTThkdf/zxxSGprHXq59eqMvCS2OT5eQ7bqSUv46S9GKfwSuf/cm7XkU+rNTcYYw7qUaNqK/gY5pn/7fTMNCbfR4tpzzSNYTutoCUca70AJfOIpsHYxGArHsZpyN4+awlsDFKIovBGmdaJLIp9n5aipkzq6vB1iA3vagwYtegWYYxCSLtaRZek9YarzQ7RjJjNmM8kr0mm0t5qwaDug3GLtweInPsBhlra3YwlMZZw6S5Nl6Yx+QYMSzNVrSNDKVAvan9LuqE1qG1DWqc9iOtPJFHd7iSGyqQiE1QMuExryUXRFrxH20oJSCaTROQA9pQgqDWGAANHOTNX/BTTxlebjrxLfR+mIwDFXyE5K+GCGcciAAIwoJ0oLOUZGjBMm6nN/30Dhs0/h20EYyhQS7SYm2QiGaN8AGrWSE6S9DPUMasNUjNgwNBTfqNrJ1YqQaao6q+YaJ8dmcagvg6Gnroy0yYymgl/ApMVUJCVuu+++xazVMpALwIMuhpDgIHGIEkrgFjH62+mPIZptN7u3zdg2O4rYBuMP5J2pHrMXT4BM47IoiSlIcUkpspcorAaW76iZiKKsoHq55RBkDGrxk3OLqi/D8DQLmrNY9pUeL/yBeoe0YAAG82HP2EtS4BEY0A3GkMDhmkztfm/b8Cw+eewjWAgBbLYRQ7JQ+B7UJMmZ0dPk7Q9L4mOv4KPgZTeV+pboTMlAxyEAzxqM5K/+T04n2VMK0Y21NfBfCTSitajLhR/Aq0lGanT+j+QTOe7DTCoxIleDRjmpeLmeq4Bw+aar9bbBVAAoxNB9LSnPa0UGBNhlCMLJzVvs6gno1yz5zBm4aB1aQFMmk8DE1eCIsy63mgKm6nvT1sADkNCVRMRJZv53ve+dynolszpPlPVAsi00kQDhkVSc3O01YBhc8xT6+UCKYDRWfgibTiTnbiWQ0amAQPGr1aO4mgOTOFcHlKmwHN+JKF5p9977bVXAaQhkj6wEeUkP4KWUx9nOuT51ZCvAcNqqLc5n23AsDnnrfV6FRTIohd26qQsYZ4k8CFXtAa17EUDhblPKo0Qid49/BPOkKAtqNg5RFvQL6WNFafzvpy+ttaAEHokXJUJq5mShqySzX9PA4bNP4dtBDNSIIteFjPpW2QPc9I0W3+9WfgQROooUqeQHgewi1kJACTSKY5vZ0cABRVWnYjlCEbXEGDQhiquL3jBC8pZwA6KWWvzUU3SWmNwzGQLV51xwW3C2xswbMJJa11eDAX4AYRfYs6OWpRPMO3KhvGsBDV1jzBOTmTmKM7gGhSABACSGOd+oKCURkxIQ4BBG0CIxM4vojb/egOD93PYp+x29/0twW3aytlc328UMNRF81Cs/r/v7wheFzj3j1ZEb3OtsaXtLYb+2te+tmQq8zNwFk+7whCzSOVGSDSjDXhehFPOU3Z4D0ezkhWyrdVXyiFC3s1xPQkY8i4gpJ9Kaaef9TZYK5NSDYJyFJjenvrUp5bjIV31e2tgcCbxWvVp2vzU36f/fX3p+64PbBdN53kAfZ5nhtJpXNvzA4TjBAAAIABJREFUsNlxz+Qd+b6+r/tMA4ahM9fuWzMKWJRi8x2riOEqTz10E9aLnZlIYTyZzKKWhMOGcQIJYECb4DCumdSkd61IQueWz9CeZDkAccQRR6yUvMimSrjq0L4PJaj2OMnlTAAmpcJljSexrzuWl7/85SX5Dy034qoZT923ScCgnzWt62THfAfEU523CyjdqLPuu7pMsM5I7zLMcWvDfWGYs5ZOn7Ym6j5035857IJj+hNa9UXedQHaPQ0YNmJXtHfORQEZynID+Bow73muMJacghVGUpfdHsecJknW2UgynV/4whcWQHCIfF8pD+8GUHIkAIm/Z71qpuVvIOeUOlFUfCLJy6hPA8s7MK7jjjuuHGRz+OGHz/rqVd+fYoLnnHNOySR3RCXToHH0aWWZM3OVg3cc8CQEOBVp3YOumVdtSUo0fjks064auAGs581dzdzzfj4qwQw1ANUMWVQa0GVGDDCPe38fGKBPfTaIvqTg5DTgrN8TevidY0n1ZxyN+/rYNIZpK6d9v+EUIA0LA8XMHJA+6xUGU0uetWQEHKZJr9Pe6WhQtn3ah0PkY4LC/EUrffnLXy6JdxgHBjIPKKT/9W+MQ//5RVRtzdGgfef5em9OjJNnsZ6mJPRWwPCYY44pfhzMVpmQRIyNY1rGx/+jCq5jUPmZlCzXd20AOX/7/cEPfrB8B0QwcUe5pi5VKuyinXu9D8BkHXiHEibORxaskEx7zwFyCZOADJ0ztwlg0Ja/mSOFVxuXwoyZ4+SyGEsEkgCP99My/V+DXY4h9ZlnAnzpl7Z85nt/u9868OMQKODrvA/1wBxUpYKwdtCqzq3RhitBHTUw9WkjPmumpGncoH2/LhRQRpuke9hhhxVgWARDy4E9BjDEuey+Se+VjIfp2oCOLLX5SK4keVFO3iFRjilMCOykonyzjM97vDPnOtSSXj05Pscwn/70pxdmvMcee5yn/tRaTmTMGnw8r3vd60qJEE5yjDOO8u4c1JK86DImMAzacat77713+RvTYxpET1K68ibadlwsRgcId9lll5LZTqvyOXMiPxB63epWt1rxWWGmork8Dxz4aJwsqM+CEICG/gKHnB+uHRosps63Qyo3LqVY+K7k0VhnKgbroxBo6+SGN7xhKaZozN4rmk0fb3GLWxRTpr7yezFvAiLa5ZlnnlnatP6toc9+9rPlc1qieUUHfZbQKUybICKK70c/+lF5P+FEf/RRhB9A8W6AqI/eHbrVgkf37wYMa7lTWtszUYDjWalswCCbeRHXOAY6DQDGvZvGkHMQmHNsVhVcaQnOc8CEhJDakNFQxpkHJvWtfv80p3h9L6kUSGFwci2SLDgLCM1Ld+MhrTLV+GHe4OPA5B7/+Mefz6/TtaPzL6HjVa961cLc+HAwRpVkaQg0EOtC4UWMXa0qwBvaAw3+F+d4f/jDHy4HL5GoMXmFFs0HbQQw0LqYBTFf80YgYb7CRDFmZ4cDhDve8Y7lJD7+HO+i0Xi3IAe1vbyHWRFDNk/yWp71rGeV5z0LGIDbscceW7QLEr/PtKWsCWnfe6wbzNseMH7nl5g7h0jpK/BCCwEVwAFo6ae/Aag5x/RpU3kngHM/kHb+CU0OLWiRKRbZTEnzrvb23LpRYBHA0HVITnP4zTo4wPD85z+/SH42rAghm8zmFPpKquxzii6CMdft9oEKifD73/9+6R+m8oAHPOB8FWtnHe8s98eU5zcmrtQ5yZ1ZCJPunrtR0wRT1G+MkwSN4R511FGFKRuXyrcyzTE7hQsxOtI1LQoYmhcSP2aPQSuwiJljhp55+MMfXrQGZiDBA75jugTimDm/EeYL6IGQqDX99z0GrAIwvwMAASQy7mlkgMb7gZN3AyBlWvifUuadRuOkQVoEEyQwoFUATlI9LcR7jA9zl+AZjUetLz43gRmKQcrTMQaCByZvfLQrgAUQaA7GCjRVFrYmAc8jHvGIAizGrG+J+mvAMMsKb/duCAWoxTathR0fw6yMvWZOGESeXy1jTjsYmIxjUiKG4H+SLUbcJ9nH0ThUOxhH+DqSJJFP3eQ90jofDakXMyZV9jmn12pyY5NmWmPKYhrUD8wvJdW7fp7QxdzzSwAQfgPmI4zOcxiy7HQMDpN9//vfX6RxwEAKZ0JJiRIFFZmkSPSYNMDwDhK5dvQNCNztbndbMe2Q/J/5zGeWZEXAgJli0KR8AoBngABznhMBvVv/MGlaDpMRUAAOAIy2duihh5a+ezew03fM3nOYus/NjTYAD1Aj7RM2/DBtac84jjzyyGI2UhreiYCAzv1ooV3AwARHmwIMQMBvmi0TG5A45JBDCrAwZwEGJrZmSlqrndDaXSgFMAdSGkaLKWThDmHqNSCEiWOUqcUUR5y2Zg0zrPuBSSjljemx9aqsipnFqTfObBSHYG3CGjKuLoEzzoCC79mgmR6cK4GGGGKKCiaMcaETNaaxOF0lEJJy0RnAY9zs4OzqfSXJMU7OXEz5oIMOKvZxEWrOuCC5OxGPo5gWQprGQNnyzQVAFrprTkjS3kuKVsqdD0EQgKglzD/AAIB8hrmS+M2fM7oxWKYZ/QESNFiaBWaaMivmfb/99iuMW/vMWkxX3uldgAFwPfCBDyzCg/kCTrQc4wcC8UPFNATIgJHvjJEpyWf6CBysMf8DIdoGRk+7IfV7PxqhCT8EP5d70IYJy9/GKFCCtkAD07dUGm4aw3rsjPaOVVEAU+NYJPHMCgxh3gk5ZPO1UW0OEhpmwwZN/Q6DmqezwkbZqJXqJslxQNcO5jqO3KbzfpsUc+iLiJoXHDCv2PHRjTRJ0hYpQ4LFgNfyXIg+2hkvBqovmFBAGYOjNSRktTtmY8FwSdgJU2Z2wTgBi7nEMPkAMGOMjoTufswRkyQ5A0hMnkSNATKrAQNSM7MOhuw778KEtYfhoqP7tKNdkj2Q46Rlo/d+jmLrxn0Yt+eNy3tJ5z7XH98BONJ7DmtCK/cBOHOiP0xgNDvjIr0bl/7xrWgPHdzjPWnLdwDIe7ThN4DSL7Q2HmMGbkAPuGmTycrf1qH27K36YKvMZVerbVFJ83CI9szCKTAvMCQaho0WM0mUCKaBWWIGNhvGQVLiGNx5551XzomehTkDBqUwmAs4OknmkcrTjg0FCKjubMkYTcIQh0ZGTSJuxqtNDIH0rAyIn2RC5/lZxrbaCe0ylvrdk+L0xzGmhHIaZ4CuzyTX/cz9mHLyENJ+GF2doNb1B81DA+8bZyoMDbomtO576hDXrvlzCF1rTTRCUvcdtdDSR/MGDPPMfntmzSkwLzCQ+KjcmDApisRMOwAK2QwYKGmJ5EbixEAxUo7O+prGSPkUnvzkJxdJkyNSVEv3GQDEJswGTlKjpZD+uoxqHoJm82oLszRGbefkuEUAzzz9qpnROHNal3l139M1ayRvoL6vTwuq/VDJefBswMHzCVuOCa7bTvo8bf7rvqS/Ab38jrlPH8ZlaXfbCdhHy0pCZldqDw3zjm6+xDiQrWk/znzUgGHeld+eW1MKBBj4GIYmuFnMTANs1KR3TkZqdBy0keYxa34GnwOIxNfvv//+RZWvs1EnDZKJ4xnPeEZxPNMc6rMY8hx1XpgmezNHYpLTFkG8bohnzDdhhIt4x2rbmFcK75P8mVqYd4Arc8040KkFANohxyxTUIASoPssiWK0yT5H+CzAEDrpH7OliKP4r/zPdEYA6YtUC5B6X5i/8XvO/fXBUu4NAHTnhpnLO9CmBoU+DaZpDKtd2e35DaHArMCQjSRblX1YhEf3sJ1IVtmAkS4DDkCBgzHZpOMk7jwHGMSpaw/zrzdkiGYcKsUKt2RznofZDJ2ASJresZHawtD+jtMSwshof8kO5lAXjCC6ypngzIDmyT0YJaBPxjOzU2jBls/PIaw0WodquOYuiZMc4i4Az0kc+mHSyTbWXsAjbUfgiCbgee8STioiigbJ3Cj/gC1fNnKd7UxA0VZOKUw2s3uMgfPYmuSM9n+0kIzTe5MhzWfgPSKmrP+Y0DIW74kGkue0o806K3qcltF8DPOu6vbcQikQYFASY0iCm40j+YkkKISwrm9jcwQUanComSfbv/OTJSyJXZ90BkQNDMJVtSNpC1PpXsYh09d5DaJp1vKaVzpfyz7N0nb6by5FATHz0cKY4JjixPFLJAT6aO4+OQQcvKRqTm1zzTmMUSZah9aGudImmRk5ZOMExxxpIKKNSNz+jjMXc9U2py4GD9j1xZzSOrzD2hTtI2tZf0VDyUV4zGMeUxzApH5RUt7Dec2RzCkumogPDLABKMDBtKkd5kDRTUAGACaLW/CC92kn4df6rO9AyW+ApF80JSZU9DMmz8aRze8WZzw6KCOS9howzLJi273rToFZgYFEyQEsuQwDjt0do7DBOaNtGH4HCUS1NpF7SJI2rGieSP+1zbrrNOVUpg3Y9DKL+86NwCzc43sber2vuv/r/e553qe/QEGyICaIgWFe/CZCNIVayiswF8JYJb/xDUli22effQrDxmB9JmrHWjD3In2EzmKSwARzxoC9j9mHTwqDBgTawagx27e+9a0lksd6wFBpK7KHPUMjkE3NBOlcDHkU1o825EL4Xn+cRmit8HeJ0MK8gQ0hxjoFWDKQmUABD22GgGIPaNN9AA2jNxZhvIAQWDkkCvMXVMHXJTxZHgfaEXDQwP3GAFxpRwDW9wIigJeIujpqyrw1H8M8q7c9s+YUmAUYqMhiz0lqBxxwwMqpbTpp42E0kuVITBiMe/gf6hwG0qdNjhHYuHFE2yDasMFTo8dmBSYpiaEdEmINDGHIgEFyEY0iYbdrTrxN/AIgTnNjAnrIQx5SQjj5gMTlm2PJWYACIzSvmCr6KymhxhAGqiaU+cUUgYT7zBmNjqnFHHve/35jvKK5JIx5BqMlPAAGzJNUbq6T4QygJNnRSGQZA3yMnnYLFJgzhVlbQ8yUmDeNBbOXFEdrIKBYUzQK+QePetSjyuFSAAgAGC+woi1Yd7QkTD2hukJMfW5t8cNZ1yeccEIBTcEOaMdEBGyEUdOItccHgcYABFBa82jagGETb5rt1PVZgIGt1ma30ZUriC0YYGAabL5yDUiCNo1NSb23mWqJmgRm42IqNmH8ATYV+y0Jla8gx39Sz21MTkzJVAGGWtrCmGgMDRiGrV5zZo4wLNoBCdzcYngYG4ZHWsfMaRUYpaQuTJX/ARDTGs0hQUF2MZMMxo/JYujaw5TNP4HAPNIWAApgMY+YN6YtlwazJmFLVvMukrckPWAjGk3bgIxWSMNRBkO2M2CgpcqaZp4S+Uaat14wde/EqAGJ9WHsJHsASNq3jmgGzEsS92g5xseRDrxoCNaxtWdshJ/ddtuthE9j9tbviSeeWJLijEu/acr2B+GHluXzBgzD1ma7awkoMAswkOZsxpzzHN9B4sFt/NiEOYvZhGsJPwCA2TgDgi1ZVJNNihlgJEwANqNMWZKpTet+/5PMlO7I8aHACPjoB2AAHpjG0OiqJSD/hnXBnJl780kSB8pJ+jIXBx54YNEYzCkQFwWE6dIq+BjMC3ML5kn6l8zmf98pKWGN8EEAEUzZ3AMI84v5Y7Y0h5SU4ENibgECMooFJ0iYkz3ts1e/+tXFqaxvAYIUDPQ9YKAx8CXQGmgWQE6hO0ycUKPvAE+Sm3cBDdpI8lJoHQCS6ctYZFujgXWv/IVxGDft6a53vWsBSRnNQACNtMX34R7992508T7tKFXSNIYNW/LtxbNQYBZgYJPFSDjRkmRWO9FyeAnpD6PBpIFDwlfrMFaagQ2OsYuCIaWmTDGNhMRIYs3BKDYXCVOSXEJRAYCNDkgaMMwy6//fto225h9jB7oYqt8YLsYOgDFNWgW7P/qTwtn0SdgYtzljugMq/gb25oKGQQMAHDlYibRtHjFx0r/3JRvY58DCXOqDtUGT0B7Gy0wFRPRN+z7THrDyN0DQR20zTWmfn4Pk75mAk77qG7MVoPI8xp+wXP0AhsbvJ2YwbaAVzYf5y7hoLTQO93Bw87/pP1r40ec4+H1OY6jDaJuPYbY1uxR3bzZn4rxEmwUYSO6AwaagrtcM3wYgbSmWRlJk+3VPQgTr5KaYJzB2mxMwkARtUBscWJAO2YBd2k69+4Q+as+mZNe16ZgYRCVR94dEV81Lr63yXMxwtTku4cX5nWQxYwYQADkH3vgsmmJdsyr7JmGcteDgb23nMJ+sn7oPMUuOCwPOoTnuy3vzzkTC5Z0Jm02/6xDmZHbn3jrfIMEP3blO3k2i77r5LTmYx3P2FdMqQAJEfBfya7Z8VNIyMM6uR39o7PqQvg+5ZyswiVmAgQNRVIhNyb6MSWRzY+hUZ5EXJDlRHzaD6JI678D9AETEiXBXTJx2wS7LBsy/4HmmI1qDdzFj+J90yaaccFXgEOAhRSoh3YBhtlVZhxXXT2Zv1YysDtMNk6yZch+jT5vJRfB/DRr1+9N+Hzh0312/K4w6wNOlQHeMNd8IANXjmETBSXwh74n5k+8lpikmtS1ddnutGGY98UOW9qz39y2WSUCyVuMcMrb1vGcWYLC52Y9VFGVb7VbuFFlCW8ixi1RxzjzMGz0jibH/kqYOPvjgYi5KfR72WQ5RZiWOPFqDK+Gq2hFVEmCoN7xN2IBhtpWTZKohAlX2AzONK5rDtGfr76N1BFS6hyoBjDoZLVnz3pf3Y+SEEGtGH/THuohGWkfAeSaaQQCuK0z2aSbde4ZSNc/5Ha3I37XmlbF0NakaQOv31QlvfX+v7IFz//jfoR1dy/sWxThteoRLJuSQPufddRXPWfsjpDJ2xyyavkXOrm7hJWtxSP820z2zAgM7MmlfYhBHY6S0WrIMHW2OnP0bs4ONLwyRuUiWrM2dzFDP0Q6o3hyAbLk+MwcijvqAIe8X9cGB2TSG4asPo3bFBDKNybsfoJsb0UjJWB76RnvUnhWOyuHND1BL7NaWsE9riy+pq60k85lPhIOaU1nYqigiDmH5CxE0wpD1LQw1z2fN+L0oYOhjy/VnNX+qAaSmXZh8DRr1vX1/r4D7sgCD6AKLxGIxkSTDcXbBWu2sJ8XfwtDYkh3iUaNpbfMLoerP/M02rWqnBUJKlVAiZC4SKAeW2jldpu5esdAONuEk6gOGTGRMGsaYRdbdQNM21NCNM+m+tZAH9NuGEn43JPNZH8y30ESOR7HqNmI2XE2H2l6decWAPKcEgfhuERuhcz233c8CDExJXY2hAcPsqyuam/lgxiMcAF3M2MWJKqQ4ZaRJ9hzDmDBTH6ex/Wqe3AfICXgA3n7yv0ghzD9OYeuGT4jTV/SYiB8+KCGiHLtAgqlFdI+IIT80Tg5kgMGJrL+CGWiWhBPnPxMk9E/UkjYTamrNMN+IFPJOGiV/luf9Dq/q27vz7LVpz3RBouZ1fUCQ7zcdMGAmFhWb71Of+tSSxSruHNMlFdr0FoOwLxOHgViQJAaSelTG2B5JjiY5Zgj35JQlf7tPxIGFlgJWGDs7tINEENACsgge97jHlSzIRDRwdlp02qZ66o9wPIXZSK4kIODhefZwC9zf3qMdoCd00uK34Gg32ptVSxm3AGbf2ot7wobLCW7TnLaRTsyT5ChzCBzQLxusC+hZ2NYCB7HYb7QU1ZSIlO7m7NIV3WkDk4AhUUlNYxi2NtAYAxc2bO3bN3JKRByJGMNUfSakFEBIbKPBicmXgczHZB8xCxKeMHYM3hxZD/aJGH6mR3b2VKXFqAl0MpD5kgiYop0AhHaZEu1RQp3fBDv5BtqLAGLtCBXloxL5I9LIOKxFfETJipyX4B6HD0VjFcLqcKA6bLRv/Q2j4v/d1YDhV7QQ10tasBGVSDDxFoVyBxgpaYAz0aLDzP0W28skAEgkQplgEj7QEOcriUTcsggV0oLkFzZrYY8Wl0WoLYvIe0keVFrvCjNhIiL9YiQWlzAyJzmJq/c8aZVtm2PUorM4AQabOUCR7GMDpO6O/krIEYmDGVrYpF61ZEg181zGjKkOvdZKIzFngBsjEGM9DRhqVZfUhlnYvDabzWmO4wgMiPgNSEQV2bCkUmCO2XS1xxo46zEPAQagY64aMExfVdHgMXKlLqwD5h3MlFRPI7QfMF/7jYBm/Tvz+aUvfWmRyjHhlMtwtrKjK60Hnwk48Jk9zGxIoyel23/akIEMGOw7wiWhwd4i8VsjAIrwIOyZAAag+JwAg/dbQ/YQBs+vJacA8wcCAILW4t3GRGj0XsIcy4Rnc/rfuH01jcn3UXjaM9tGY3jFK15RVEuxuRixhZHTkUjZkNxRf2qZkPQtBGYjCwDjx2AxdiohaQMwABJllYVEYpxqj5DqLSYg4iL9q7ApM5bkARiiMZhowCB1HTCQfkgssiD1FyhwnAIAi4naasFqD1ORPMVUYQEBI6GXPic1WVykEZoRtdXiM6Z5LmBHAqoZY3dhjZNi6giM2hk1qR/j1GYMwcZn10WzacBQq7f6i+GLRDLXVH4b2jzmfF1zaANjNJgAAJEDkUzoccDQHcs4YKjvaz6G4SsxJkFmRHvUPsH8AbtwYKakBzzgAQUY/C1eH3OX7a4cBMEp1XGZlphwCRb2tvXJzGRvARrlIAhh0fppIva5zGjCAq0FL7COAAqTDwbPdEs4M/dMSPa7tlMbCaAQQFPQjqBJgNM/4yGo0PqtSaZla9A6ZdUgEEYwmYfJz/PMtgIGk6kuiUXD8WMxmATmJZIIaR1o+EzdHAwYM6EVWEhCG5kxSN6ke9KFe2TAIiQJwpGOFoDJtlAtDr4NkoMfzAYw5JoEDBiyPmP6ASoL5ElPelLxN+irfgEGGbs0GOBlEzCBYOakDX0DSEMY6bhFFOm7XjB9fpVx292943w63We8owaRvFsb7Mvmbeh5DOlv7NQ0BvZnm44WoU8YDCCwodHX3EokYneu8xmGakINGIYz/aF3mhvavR+CD+nanJKoMWvAQLKXZMa8yuGLyWL+GDCNwVoADPYtwVBmsTlVEoUwxpTLVMSuT5ACMgQ8GioBATDY+8ACYwcIBDDAox+i02gONHThzwQOpiyfeRbvAQyENRqKzwGL9adNmc34UjKP/a/PLAY58nQeJj/PM9sGGDATiIyB5vIZCfSwww4rtUFI9NRB9l/lkGkMfsfuRxpXY4SaivFbYJg0jYF6iXmTEO585zsXxKdWWlgYO1AAKvExjAMGUpE2FOFiwjJBzEraUQPGe2kpCXVkIrIAqa7KS5NaRM9Y1H6AB4Bgo+w7F2DoxlyW+zB0tKQtzVJKIrHm0SKAP9Oin5j1mBZJivw4CSMcCgY1fcY5n+t7bHpCRDMlDVtZ5ojGj/mbO1qc9Ww/AGLCnn0L+H1G0CN0AXp7B7OPn8Je9xkQYLLBxGnnTMHmDvO2XjijU9rbO60LzzIlu1I3Sb9cBC+Oblonoc6e8179YTqkFTAr0y70zwWMmJdoq/iK7wg/AMO+pjHoR3Jw5mHy8zyzbYCB+YEjWZGrXOx8JpxjivQhGQrCQ3ARBJgD5k86ZfdHLAuNNGGySR8cVqR63wEQpiaLLvV1MBtoT7LnqLJwSAVhOMCKCYjWQvJwqaFisXGKkVo5njFCQEODYVaiAVjMVGuOc++jvpJkRD4xlWCgGJ/njNt9a32Ns13Ow2D7+toHDLM41WvNZ5L5y3fz9nmojyHhqhtRdnut18FatZ/DdrQ/aX66jC2O4Em29XyX37UZ1GfaoFnWB/Pk83q91O34PEJGtOD6e23G0ew+bQOl+jS2vrOpa/pOGtO4eZj2zLYBhvoc1xCrnqjUBMFg45gOE/F/fcpRFmTS3LXj3twXk0mSawBN0t3zXR0PXafL65v/LcAcP+neOtkm0THupfHk7NfcF7ONTZSU/K2S1xBgoAmlXPWswDCUaTVgGEqp9bsvJsHsze6bw8zHAfsQwSX32HNpJ7/z/j5/WZh837vzWbff44QT46pBZxKFpzH5pjGscn2GwdS/h0gm9WLs60KiKurvaokgn9ft1AtvUkJbLd2knS6j7Hv/Kkm1YY+vFhjGSVrzgkAfIYb6GGJKahrD8OVkbSdkfBrDm3VOu5L+uOdrRtznZxuqydQaSf13H8+ZJPw0YBi+fua6cxbJc55FuZr2V/NspI8agOYi0BI8lAQ3Re/m0Ri64Nk1G8zKTBowLMGiWIMurHa/DZHw67U2SRid1pcGDGuwALoS5CIYw7huTpvgaYtpLfu2xqRdWPOLAoYaIKZphbN2fojGwPksqIDzuWkMs1J47e9fzV6d1rs+LX8167EBwzSKt++3PAUCDEPDVTeCIAIKhA13M5/rvjRg2IiZ2ZrvbMCwNee1jWoGCsxSK2mGZhd66ySNIZKosMfmY1go2bdtYw0Ytu3Ut4GHAusNDJPU/nGz0oChrdf1pEADhvWkdnvXUlJgUcBQO/vqUOTEuycsMUSYxb/TgGEpl86W7VQDhi07tW1gQymwKGCQ/6HQoYJnfssbwfwlLqqFJRmwL/djSOJbA4ahs9nuWwQFGjAsgoqtjU1NgdUAAy1AoiMwUJLAb2UOlMGgKUgGTKl01S7VtZKNnkxXhBsCDJNKYjQfw6ZefkvZ+QYMSzktrVPrSYG+qKQhoYXuUU5EHRw/Cg+qY6NgXmoj5bxm5Z0VMvNbeZMb3OAGJcKo74CfvrEPqZUU57PaXfMWN1xPurd3LS8FGjAs79y0nq0TBebNY2A6cryiCrqqc6qGmRo2dXmSgIxyJqluqwwz7SGlTab5G4YCQzvac50WzRZ/TQOGLT7BbXjTKTALMNgwfmgCSiEDBiXJHe7SV0479+tF6l8pweE5Z2wwL9VmpZiWur1uwDB9Htsdi6NAA4bF0bK1tEkpMCswGKZT31ShVUJZ2XMljF2pV1X/jjZAi4jfweEtyiArqx5/xLgwVp9zPivRngQ3IJTT4kL2VnZ7ky7AJex2A4YlnJTWpfWlwFBgqKVnO7FoAAAgAElEQVR/5clJ/g5IcTRq7UDmjGZmYjrCyFP3vtYMHP7ifAxHsvI5pKhhn8ZQAwMwUC7d2QGumK783U5wW991s5Xf1oBhK89uG9sgCsxSEsOGwfSdwOVAlNvc5jYFFGoz0jnnnFPOsHCAirMynNYnZLWuoU+jcECMsy2c3eF8jSEag3uACee2k/T8Dpg4VMahStvtoJ6abkOCBgYtinNvWmRbQ9+5LPd1gaHO0cnfk8p7942jbjN/972ne199b9/fqRp9gXO//N9lIWDrx+anwCzAYLQii5x853xeJ77REGgDLovUeb7OABadxJegTIVDkGqNwTOAw4FMzElO/RqX46BdPgaO5ZxR7cxw76exyJHQtqMnt6PzGTtI2DAaom3OMYiJb9ZVWjPCaYEBk9peT3BZZCn8cQw7ptCcaV6X9Z/GlhswzLoK2/0bSoFZ8hgsbrZ8zN9JezSBSOx+Y0rOffbj5D4n+jk21Ql4NTDQGBwTSbNwep525Tx0r2w8PgZgFI3lDW94QzFh3fSmNy3HvnKA02Sc1LfdNIY49dEUDYAogHAq4qzAEObqWEztaSfzNitAmCvmRIdjreaqGeq0Pjh6Vwj1aqrrjmPw3X5kzcZUOgkY+oAGTYZqDJO0hhWNsWkMq1lm7dkuBWYFBufnnnLKKaODDjqoJKt1NyuG4jD5Y489dqTtZzzjGSVvoT5jF4D8+Mc/LsDAJMU0xaE9TgXXpk2vDcxL+8mBABD7779/0SBe+9rXbktgQDf0A5hCgh1f+6AHPagwyIQOD135THIPfvCDC/Ay1T35yU/uzQvpmkO6iYrf//73y1nrzmWf51oxkfzqSFjv81OHQnfXnuOCrTnCSASWaYd+dfs2icHzjVl7jhK2fh1X7Lhf2vEKgz63v2H6fYcO1YDQgGGeldGeWRcKzAoMNAZnbR9wwAGjy1zmMueRSm1mPgbHufp5+tOfPtpjjz1GD3zgA4sjOpvUhlA2401velPJZ3CIvPvHaQy0iXe/+90rTuozzjijtEUqpo04f9shQy972cvKWeBMXNvhCmNB97POOmv0ohe9qICCLHRAicHXx9YOoQnaHn/88cUsd9ppp40+8YlPFLqaA+XPaREiyVzmjDYnGIA5sP6fpsFcKNmQFpOAAffvsMMOZf4wV33vajfepaQK6d+92taG9i9ykYus+KT0h5bkeeMEjNbzox71qNI/Z7MDkvRLO9pDN+8mcDgHXl/d43/akvHlCF9+MADpWSZS7wAGgJOQBHz5yPQvtDBW7/j5z39exqdNfYkG1wXVzEvAr/t/0xiGrNx2z0IpMAsweLGN8opXvKKYb4Sr1lKbzSSMFXO5+tWvXjSLBzzgAaN73vOe59MYRDVhYHwMNus4yVb7ymoIV/U3RvCa17ymSG3MUPIhrnzlK49Ic4Do0EMPLcl22+GqGQbG9L3vfa9koZsfdKdJzXo2ubl79atfPXrxi19cwPuJT3zi6HWve93o6KOPHv3gBz8o8++0PzQ3J5i3PBZJjv7Xpxvf+Mbl/+OOO270hCc8ofww8fERucf/H/jAB0ann356YcAi0wganjXHIsxe8pKXlP/vcY97FCasT/5nmnr84x9fTJo0TuYqjNhngMw7vR8t0IC50QFO+nmVq1ylfPbWt7519PGPf7y0R9p33jnBQ0AEBg5QTz755MLorT1r80lPelLRfk899dTSVz9Ml84xMQb00Xfa8GGHHVYAQztAxtq8wx3uMNpnn33OE4HXNIbtsEs36RhncT5byCQ5G8sG2nPPPc/D0ElH2bBMEoCDyYkvIqYGbZDM+B/8xtxr5lUDjb+1SfIKMCjGZ5NjPEpwYDbu8RnmQFIWubRdrkiZKT/CF2N+aGkAmTQ7zTZf0+rMM89cie466aSTRle84hVLiDDmZs7f8Y53jJiJzD1maF5I8Zgy05GAA3PCtPXYxz62gDiw1h99ATie0zegQ4rGdPU5wgFwYw6yRsyrIAM+rdve9raF2fpf9jzA8LxcGiYrAQi0UEBGg6Lp0B6e+tSnFi2IZkE7ZQLSX9oCho2503Tl1+ivfjz0oQ8t7xE4QSP19yUucYlirvRjTe63336j5z//+QUoMf373//+I+asT33qU+Vgqdvd7nYlLNv6NtaXv/zlRbNpGsN22Z2beJxDayVlMWNAX/ziF4vEZTPYLDXjcR9Jy4a2cangLp/HUarY3oknnlikfWGnfYyrts/ahJgOyQyTscFJiQmB1bbvhKvaeOzr1H+fJ2Jq0VNUS3vpa8ZXaz+zMOV5+hi6YsTf/OY3C5PGBDn3SbTMfbP04aMf/WhhpsKMgQIAxtiYqWgMZ599djH/kfpJ9QSBaAgnnHBCiVpj3gPOgAETxWxpGtYKweIud7nLCtONwIC5mlP/f/KTnywAJKJNe7RToOB546RFuACXtYGh0yiYrgCCtWL86ma98IUvLFqshEqaDXpYewDEddRRRxXtlllK0AStk1aKkQMMQg2Q0rdddtmljAXwWN/WPy0CiNDSrnvd6xbzEkACGLRhgGWOgJPPaDwNGOZZ6e2ZdaXArAluFrVNITIJgyZxjYs8wSCTBY1pJnKGiYlNl9TIjDTpiq3WhiW1klBJeq5uTSbSrg3Kx4BZYSQAoo8xzuqUrfvY114kd31L/zwzC1OeZ+LzXkmHaMSMxkxHm8LcAMUsYxVNhsGT7OMXUAARk8XkMGzmm8c97nFFACClP+QhDynMN3Z3oAEQ3IOJ6g9tjsbgOwEHTDH8GMKNtaG/oRdgYMphAvIOWiDNc6+99irOX3N68MEHj+54xzuW9Xeve92rAACBA8OnNanh5W8gSWig5QC7Y445ppi1hErrz93udrdCJ30EOgEGAgj/mHfoK+bvvcCKdmM9ey9hxL3W8v3ud7+iIQiU4LRnykNHVwOGeVZ3e2bDKDAUGCL1Y+7sqKTTd73rXUU63G233YqkXseSY1gx8wQgAArmbROS+tiph1zs56RAWgqmpcZS2s/z0VSo8TZ9zoSoVfch75p2T9fUVWsOxsk0JoQ213oAg3cZL7AWlQSwSask2G4tqmnjY2rB5DHLaHvs7P7nRKU90Bj4BTBu64G5RTIjiRjzvP3tb1+0QczaPRgzuzttgQ+A+QfAkPgBF5Oj77PGSPdyVR72sIeVzzB5pplESpHkrVvSu8g42ggtBzBg2sZMYwBCBA99sDb5G5i0AIf2CTQ3u9nNRoccckgBEcIKwKEx0GBoEdbwjjvuWMxd3gMggBm/hDVJK3I/rcK4rDe0utKVrlT6pA/WCIASGIF+TWOYtgrb9xtOgVmAQWdtsEj/GDwHIkebDUbCrKV4GzQnt5HGOJtJfBgHZlCXtJhECMBg47397W8vdto64zpSZnwXGDEAwsxImzlNruvoWy3hu5s7ICgqKPkd6dtq3zXt+ZiTjBVzw6DiW5gVmOKriFkn48T8EnWjPxgg5ut7vge/RfqgA2By6UsidDzrSrvWhTkiZLg/fibt+IxWEm0yWmPaA1iex6i9z4/+6Hu0UusQ6KRf7qdBJvlP39NXn1kzfgMLAAgIOKppf9pJRJFxADhOZX8DK+1Yo13zaaKxvFvfo702YJi2otv3G06BWYGhXtQkQREkpC+b6kY3ulGJ/MAoEqFhc9AuhD3aXNRzoaW+H2riILmx5ZLqOB9JjLWJqM/ej0HUGst6EboLQLMy5nn6GXOSZ+u6U/MA06wZxLm/fq7Ohu+OJ/RJYMFq+6u9hEF3aV2/q7tGrI/uGkzuBMbPBMRJDUwiENXr1T0En/Q/AlC3D/k8/dRWA4Z5Vnl7Zl0pMCswpHOR0P1PUmSHZgLIBsCUY3bCxMWzsyPH5p0EtSGDBS5sudonRVLnJc25+rSO7iZcD+Zcb/iMab3eO4SG0+4JzcYxuIBPnMXaC/hOansSc+4DjTroIAx/FoCr575uv/48fq9xvqLuc/X/AbTQoQamceuuKyw0YJi2Gtv3G06BeYGhBgh/p6oqkwM13W/Mn2klYYUkrEmbchwxcuZztAShhey1nJgxDdQRSjUjWbQJaVwfa6l1HHPd8Mme0oGaifcxx3ESeZdx9r2mngd/92mLXaAhlceEk3fTUlOrqAsYAa+67T5tsm9+hqyTcaDTJxTUNMj7unumDzC6dKq1wb6/V+bs3D9aEb1l32GbqH+rBYZ6U0ySwKKmZ9POIk0HGIAMU5TII9tARAkthN161gzftZqimrnOMsa16s8i2o1fiZ8IU2Z3Nza2eIwa8E9bB/m+D1xqLYGAYb75Hep7w5T5HggdNM+a0fbd22XEotr0NQEJ3Wf6GH+tEYybz2kseYjG0NUi6v8n/R2waNVVF7HSWxsrFFgEMIwjZ9+GmYdZYhSiUvguRI2IwBHVIoJGrD1w4NuomcV6T3E0Fmdfx2k6z1jXu995Xw3cNTOMVC5XQDmIm9/85iXZjPYn50FOi7BMWcMisiYBf5//oqulfO1rXyv2fRFNdRFAEVcioeRSOD1QcpmwZ+9MiY2036cl+ExYqfUjd6YLKl3GbO6i3bpX2+Z4XNuT5q0Bw0at6vbeuSmwlsDQldjCZGbtbA0MQgvjVE5UlDFITgojGZJgtmimTdLlqKz9H/OOd1b6LPr+FSn0VwXstC8uXzSZ0NTQTnkIQQVCO5WUwKwz5j5zTRd8YlKq7+WrSiZ0nLvaFIYq8o2fyTvlTgAGWmMin2qJv57fJB5KSJNbAWBcXQ2h9h/k+64GmDGk/doPMlRA6oJQ3jXud9MYFr3CW3tTKYC5ymAV6ZPic30q9dSGJtzQJ2XN0h5gECMvRBBDqGPzOab9CF1kZpjlWhQ4ZHyASfx6wjU3KzAoRSHDmU9HljLTjbIQJG15ADKA0e4973lPYdLi9YUty11QzoLJRiSaENSU5aBdyEdAq4QrS2ITHpp7AYvkMOB64IEHlqAG7xe4IDdFiDNgkMx35JFHljya3XffvfQvtY2AB60mcyuvg7Yj30GyndwD32nHupE8p4yH9+gLgBNdx9xES7GuhJpKdNMGMBIKLFmOdlgz8wYMs+y+du9SUyDAIGHHBlzGywZW3iHAkPOea8l2szLhZaI3emL2Escwe2YizFyGMk0NQyehp7qqekOSDjFySV2qjiq3ztTDbCPnRPQYCZ2kLqtYHoucFO95ylOeUnICPO8zTFrGurpEotCUw1BiQoKaRDKfY9KAgSADpNzn3Zi592DkymdYI8xO2pS1LcfAMxi7cSmhIQRaYp6wVIl3xmUfAEH30ELlzDBjMm/xbflfghtQYNpswLBMK7j1ZWEUsPFsZhtiNQecLKxDVUPRXOQxsDkHGGpH82q1kbXo92ZuU1IXqVtBOIxVKQsMXhkJoIAxZl5I8Zh0DQzqBGGcJHBSvLM21FtS0yjZzXxCGLG8FFni7mWWkhXP3MNsJZkRk/e3MhSAw3e0A4mSotLUxFJqAmAp5cHflEsfaTFqPNGAaAmkfCDCXGVs6iQBDCUvAgzAgw+FJsTJTlgCCrRqGor30IzQISVDmvN5M6/41vdeCgQYbIhl0xjCgDAIG7wBw9ovYpI+cxggUJSOVK8MCUYMGFQMzdWnMWCwTC3qBgEUGgcJnkmHdE/7Y5LC+NVeUiWV2UjFVSbDMG/fu9f7SfYAgPQPGDBn/aExMA3pk7MSlAARKZWzP4AWYKOd0DRUhNU/5i7aCF+G9rzf+uLE5py2FwADExfmr//ewVTJxKYOFO0EUDWNYe3XZHvDBlBAZA8TAAciH8Oi7O6LHApgSME1mc9rVTF1kX3erG2JCsIcmXTY4dn91V0i7acMdcZGY+A7ACaYLKkas1dITnVVZkomQL4K0j3Bg/+BZK8YIvMUs5Oy2c5nUMPI3AIBh0HxMTA/Yf7AYe+99y4SPvOV/vA3WRfuFRUlo975Cmos8RcAGkxfCQ1CBnByhoN6WiLb9NnntFFgAxA/9KEPFTOTbH5ajPIm+kujpuF4PzOT93PEN2DYrCu99XsiBWx+G8NmInEt2vG8CPLbxMwJ7NWY1NAaS4t493ZpozaHkIqdp8GOzgaP3v7nfI1dHV0weVI905FnlLUmkQMCz2LSqZqquikhhNZH2vY+jJ2jGONVUDHlr1VbtRZTrFHRRNqLPJac7OadtF3CjP7RApirVJdVWrs2QwIC95P4hTUzTWpHgqTLcyq66psAAs8LdqApuAdQAS8mKyVgEiIdAaWZkrbLLtlG41SRkkRGLWY3tcmWRWvI5qbSc0ACBZu1XYulQB0OmUzyvszkIUIDjQEoKJGdcNT0Ns8nYY4/g0Yi4qdvzdWZ0HXYaD36uk/duk11GGz3+W5ORZ0DIWmPpkNrkBsDOFRHBSp9NGjAsNj12FpbAgqwvdIYSHm0hq40vpEgkU1IpWcuYG+uHYxLQL5t1YUuc+0yRGsFEwUqKdndR6Dad0TqHndmxkYQtx6T0Fn7g6aSSKwuyDVT0kbMUnvnmlEgoZ5+sxVjvICBKt6VFm349QCIWnLNhmNG4phkloh/YWhV1jUjXmv4PBnAIUfWCBNQiiROWjdd6XucVrCe5K6Boe7PJG2paQzrOUPtXWtKgZoJc/KxqYroAA6k8qT/2+CzVEJdTafTp5z3II5c7DhbtoQmqny7loMCfdrCrD0bZ5ZZDyFkXF+74xpiPmvAMOvMt/uXlgI1MJDwRKMIS5QYJGRQdqvIDpt0LYGhbyOKJhHmKG48cebJRt1IprG0k7kkHRvCRIcw5I2c42lMfpxpbNIU9K3xvs9qs1S9P/v+TmmOaP6tiN6SbIKt0I0uOChn7aB0YYYiMMR9C9djBwYeNuwindPez8HoAj7eIUoKIHz+858vJRAkG4kSSVJbMyNthZW3vGNowLC8c9N6to4UqH0NmLScATHd6sv4zvm+4rWFKWLKdWGz1XYzwAAQlEpQpwYoeZdD3sXSK5Nc23o3Uppc7Xjb88tPgQYMyz9HrYfrRIEaHKiowvXY988444zyI35d1qs8gtQpmta1oY5E75J4RFNx3elOdyp1b0SB9B1k34BhGuWX//t5mO96jWqevk3ztzRT0nrNXnvPQikwbjPQIJiXFFWT4CTuXEarJKA+Bh2A8VziwvuYe+1kZjISLiuh6aCDDioglFLGXbPRamzYCyVYa2wuCtTrTEKZZDGn/cWcOFejC35oHmBgXlVXSYJeSnrrVvZIA4YFT1JrbuMoUPsfnNwlnFX5AiGjyYbtHqEY09A3vvGNYhq66U1vWkxBXRBJ20JRRUNxcmtXYlRd537jRt/evEgK1IzxJz/5STEZSqxkQvSzTNc8wKD/BCA/wqppvXXp9e74IkDVn9f7zefN+bxMq6L15XwUsEBJ/8oIKDSmQJq6SilU1re4VdRU1Mz9Ql+7ZqVsDHXw1ch/whOeMFL2YK0joNr0rj8FugxPvaHvfe97M5+dsV49nxcY0j/7QvmNe93rXuWjaL+1cNSAYb1ms71nzShgEZPqqMtKBCQDWbRS3+V+picnbqmbowZO1wSUE7UUXVNrR7187bcaSGs2jRvScBcU1CxSpE5F02W9VgsMxkUDVl5m1113Pc8wa9NSn3mpqynk/z7toYWrLusK2gb9qhevRc3PoIYMs88Nb3jDsRRQlvikk04qVVsBQ/eyqDEH9Y+cAaEGUqSrbUDWbTHEPtOIAAM+q2UzH/VpvauZJCYl697pdV2NIf83YFgNhduzS0UBmxozd8KVMNZx1zRg4GxUg0bVSvX4JdQ1x/JSTfWqO1ObS+J7okEKh17maxEag/GJqiNA1VpwSss0U9Iyr4DWt5kpEGBw4lVq0XelLYufKYnGEFNSn8Ygo9mpXA5A4axrwDDzdCztA13TR6qpqrwqq32Zr0UBgwN+lBWva0Z1/Qx9mkqfptVMScu8YlrfSqSREt2ykdWn715h7kOAQRVOh68If3VUYru2DgVqiTh1r/wmKGwnYKAxpNZYIvgmhbBaAQ0Yts4+2DYjGQoMTsCqnc99AIJBAAZOOmcCt2trUKAr3SanhV/BUZ/bCRgcPcqUBBRSSiY+hr49EWCotZY4mX3X93dAuNVK2hr7Z1OOAjBg5nwMkzSGWYChaQybcimM7XQNDDEhAQcZ7oo0bidguP/9719yGwIOMSv1mav6zEXjwKD+vAHD1to/m3I0Di5xBi9T0mp8DBZzNIYGDJtyKUwEhjA5gJAfR2kSGLYTMNz3vvctVQISij0pHHvLA0PszBvlTOx776x9qe/PhLUaPaMVH8Nqnc8NGLYWGHSdqJFi41+gLfjhe9pOwHDggQcWjSHgMKl8/ZYHhvrs1LVkpjXDrt9pkXa9/7P2owa3LPpZ29iKWz8+hgYMW3F2FzOmgILf0Rb4F2gMwpi3EzAwuQKFmJMmlazfssCQbNba677WB7zUDLx78HdOIMtCrev6dB1AXaaftuLs6UYULGYLbb5WGjBsvjlb7x73AQNtATAof7KdgIHJFTDU5qRxAuaWBgaTTzroOlzWQuqOYwtBf/nLX5ZDyHfYYYeVGj4ya02CSXGvvgW9u+fR1kARScc4LGhlpv20A2KaKWm9mexmfN84YLBH1dDaTsBAs8Y7tj0w/OAHPxidfPLJoz322GO04447nufEr1ns/OMk+lpDyAIECG9+85vLUZB77713eTdQEC4JKGTVquhIjVUS92Y3u1nZb+PKQQcYvvzlL4/e8Y53lGJY17jGNVaAodaItpt5qWkMm5FVr2+fGzD8f3pLcGvAcC4hLAjM9Igjjhg97nGPK4lLMS85ZF5FRdKCyoPSxV0Og3HQOyJe6UpXKlK9UsyYNoZ/qUtd6jwHtmjP/dq60IUuVCp3fvvb3x496EEPKrXQvVtJaMDw2Mc+tqC1Eg4YmixEh81wCKkBrx0lcpXH9bd3k2poCT7/8Ic/XJK5nBWw8847lzZcAE9/jXe7aRENGNaXyW7Gt/UBg73lZ16N4SIXuUjZd36v1Z7DM/Ces88+eyFkDzDQFvChRCZtO1OSBfGlL32plGR+/OMfP7rtbW9bmKeaOKecckopkYDZO5AFk/7xj388kiKP2TicRTIIoim8pjohZu0kr0MOOaTU6XedddZZ5RlggNj77rtv0QaEUF7vetcrIOAZAAScfvjDH5Z2aTLHH398AQXfv+pVryqLgCbgcBjHWKocSsNwr/hjEypm/7nPfe7o+9//ftEeTO7uu+9ewjUB06QU93nMZ7EzDlmZs2ori2i7AcOQmdne9ywaGOxrmfE583utqesskbe97W0jwuxqrgYMFfWc1wsYojFEK3jYwx5WmLCKnJiy+jjKLX/xi18slTUd3AE0ZMEec8wxI/G/DniREPPsZz+7mIdI8y972cvKQfFOEnMcJIC4+93vPnrOc54zuutd7zryHlIFqf+Rj3xkOZbScZTOEghoicU/88wzy5nCzgO4xz3uURi/vw899NCyKJSUlsClkihgYpaiRQAsJ469+MUvHu2yyy5FetGvLKJZmO9qFt16PxsQcrgKDcr89OUxpF/TSmK0cNX1nsH1e98igeEyl7lMsQbMKgStZrT6jy+9/e1vX00zK6akba8xoCKCYsjMOJg8IlPNHvrQh44OP/zwcqLXkUceWaR9qqXj8ICIwzve8IY3jPbaa6/ChJ/3vOcV5sxG537MX9E1mgEz0tFHH11MPa985StLu4qxkfJpBC6MWo1/v/VH8TfP7rfffqPPfOYzo29961uj29/+9gUQAIBy0u7Rjra9y/cOmtEH/gkAw7RF01EDhXmJyUsbX/jCF8ozfdcsYDHLBpilXf2at+36OeB96qmnjg477LDezOeMv2U+r4qnbOqHFwkM+++/fxEoXfYdoXDWdT+UmMzSsXJ4hmWC1WLeq2kMFeU4gB/+8IeXUspMRtDyKle5SpEyMVWfYfyke6Yc577us88+5fAO0vfNb37zIv2rY46w73znO4vG4HNRQinnzCHsXZgxKf/Rj350kWLFDdfA4P3aw/SB053vfOeiqdAY1OchAe+5556j008/vQAO05G+Kg1Mq6G9AAFahIVjLGyR97vf/Yp5S5y2//WjXrBhprMwY/2eZdGvV9t1n9CISQ4Im5NxF63QgT7jqqs2jWFedrP8z9XAYM+mHMY8PgZCHfOuPWbd0fzX8sILdtttt/IKJxA6ynbeqwFDRTkM+Nhjjy1mIdI04ogU8v973vOewpSvfe1rF8ndJL/lLW9Z8TG4j5nnqKOOKkzH86R0n+f8VN9j0uyAFoxyzTvttFNZNNA+9XtoCtrGPEkdnNwcX8w/nN8ip3zmb34KIAMMOKf10/PaPe2008r7AQgfhIWub0CFjyGS+KxMet7FttHPoT+HfH0eQ4ADAzCn/6+9e3m17SjXBr7P1zralHykJ6KgIKJ4C9hQsKNBCbEj2IghxnxJTBSRxGuyvYDEaLIDJhovsReMooJ4QcEbQUXjJaAgIiqCB8WGDf+Cczz7V37PpnY5xpxjjHlZc65VAxZrrTlr1KhR9db7vPeyiUWJke4ArQNL0IGfzFcHhpNeyd0939om6CQJbsljmOt8/sAHPlAGylfIjLzry6FR+IGL35HAuvSaAwy18BVgzXPXFdHL9wddRM8g2dzrl2OXxzh9jrFyIpHkXQgGIwEC2jFTfPCDHyxSPibOz5ACVAlV1Z70kXv0DXjc7zNXQk797bMQq+d5fiKQ3MOshYC18az87T5jzljdo437V2UwLiWkY7iP85lJjnaWg3oy1xz+Nj4T3x/+8IcCvIQAJkEOfu1zTnQHhmNY7XljzP7cpimpA8NwRVUrE0A4CmAIcdQkNWRiaUkuxMTWD6WvvvrqYroJo0/7of5Xke+U9hlfK/WPvUtyLM6KllDPb4CBL6euroo4RZ9x2N15552XbLMAlCbHbwMk6hyQXkRvHuM9ltb7AAZ0JPgh2j/a28bVNYZtzOKMPsaYb1nvmZgAACAASURBVM3w/U1ap1WQ0ofKaUxh9DOGdUm7mMvkdzGOueM+ifZMSRz0LTCEGQAOwQLMfS4mwJTpfspTnnIpBl17ZkVmqV5d9SRWcnfP3Acw8FeKFnT9/e9/L77HseCPOW/agWHObO2h7VRGO7Xdrod8KOPY9Xu2/QcY+BjqcNXMB1AXMMBpyFEt50Nk17Oe9axLmeZAmIZBY+jAsO8V3P3z9gEMNFHRiPyMLhFL26jc2oFh9/TRn3AKZ2BMY6hf1SYVrsxxT7vgvOdbSAmSDgynkDCqV9oHMHicUHe+qwSBCHwADoJIll4dGJbOXL/vTM/AmI+hnhTmwO985zvnfvKTn5SEQ+VPgEHtsI/zuWsMp4+c9gUMZu5pT3taMWsKUnExT6rgquSNC82pqiCqacrVgWHKLPU2fQaaGVgHDGEKNihTkWzx1n/TNYbTTVb7BAYzyY+VSgn+54imOdAghJ4KlyaATLk6MEyZpd6mz8AAMKw68znNaQ0AYAgUtKl9DDLk5YX063TMwL6BwazJGaA5MC+55CEBBiU1XB/60IcmTW4HhknT1Bv1Gbh8Btad+ax1GMOq7G/AIPcEyCQq6aw69E8bjZ0EMJhDvgY+h4BDPa9TgYF2kbI6El1/9rOfLV6enuC2eOr6jcc2A6muWmc+t+9Q5634bigUuAPDsa389PGeFDAYIZ+DEjktzU0FBn2obCDaSZkcSa1Lrw4MS2eu33d0M/CnP/2pZKWrlZSaMkuAIc5nWe40BjWsXLuqtX90E33EAz4pYBD5RtpPif4lGkM03m1MfweGbcxi7+OgZyBmnl/84hfnPvvZz5aihal6uWTg+lOeRHkNDmpAQ8prM92X9N3vOdkZOClgUIFZfbOha47G0Gq8S2dzF8BQz23GeRQlMZZOYr/vcGcgTJw0r2rq73//+3Nq2KQo3pKRh6iVTXf4koOdcjrX0sq0S8Zx2u4ZYmqrsvrTfqp/Z0qFgJMCBuUxnOLYXiLkFMlsLz4J1Z7VS6uvdg79z7dGW55zdWCYM1u97VHNgE2Rwoi0BcDgzAznaG/D7GPDqqOkTyWPU2RvKKLpqCbuhAZbV+I0hFXzWINCmLl7/J2ck1oqtd5T1vykgGFoyscAjy+CozqZ06uAId8p1a/C8tSrA8PUmertjmYGbCghpxgBicuGUCDPQUtO3JO0hnlseolMcj6HhDjl0Z3Up9ptGNBUSXbTcRzr/bV0CwSsmYrAErquuOKKotUNSfm5T6Vi+SYSxNQn42xVe0hSWI7S1J+EMdE+qZS8ar4iTISGjClnPjuMy/NaRlwXV6zHu6S6aqoje7ecntb2rwCkg7jGwKT9XJ/2gWN+1fyacnVgmDJLvc1RzUA2sygkjNuRrRzEzr/I2RhTzApTXlq8ufO0nd/gcKScvxF/Q9cexmexlvq1ojF8//vfLwdMOWJXZdshANcO+Do/xfo6+Iqvx8mGjzzySDkn/elPf3oBGqeYWRtH4ap4PKaJRFPQd2gjRTGBi5/Pf/7zlwFDKhWnz9yb8xyUVHEp4b7uPAbPl7/gzHbA5thfjmgAmf4zkwIe5M8MXfX4M6fKbBBiJMopIz/l6sAwZZZ6m6OaAZv4iSeeKFVSMRDM+sUvfnGRlrbNqG1ElTGV0AAQfA1O9eNIJKEOVdk9qsnc4WBbYMAUz58/Xxg5Bi9xcBUw/O53vyvnqjt1EdNX9p6UnuN3aQrWnBbx3Oc+t9QhwiA9V/ABTcPRtuzv2j3zmc8szwM4mLT1w0if+tSnliN+1c9K8qPgA3W1SPbWXF+kcm3RhM+ZGdEiwAJ22ni+e6MN6cMzaTRAzPHCz3/+88tzaLYEDO+Bbv1PExJRp8Cj5/iflhqQUgjS2L1jtCYamDZOdxwyPw0tcQeGHRJ+73o/MxCTTaQ+Z1h/4hOfKMxZtMeVV155ye5cawpjWkMYVq3Ct1Jb3izObZsdkwEOGJbQQxt4rAT7fmbm8J8Sv4JSEM7aFn8vQOCee+4595rXvGbwUKloDIAAMDjDO8AghPjmm28upxxaP0yWxkib+9a3vlVogWmIJM4cA4Qwc8xTFV2ah9MTn/3sZxfmDixoLkpjY+IYJkYOKKw3QNHuOc95TunDd5gzgcA9wEg7Z7jTBNzneZzN//jHP8oCoZ2Yw4yVU9nRwcYC1IwXHen3Gc94xjkZzkyXwANw6NdzzUvAKod2AQKfGeeFCxc6MBz+lugj3NYM1JKnDUWFt/ElC3HU1Q7J+pnrgKEFiDF7d22GIDU6qpUpADOQjVqblbb1zqelH8wMw/vhD3946Xx0kvltt91WQB1Da7WGCAJjwHDTTTcVYHAELzr42Mc+VgIOHHd5yy23FNMOf4G/mRsx6p/+9KcFSAgTzkpGO08++eS5H/zgBwVAfvzjH18KLjBeWcXak/StNYbNTJlsY4lmtJ8wfkCHNjD+l7zkJYXZ/+pXvyqai7+ZJJ3JTlvB+Ak3xo6etSfx69tnThM0P+aBlkGrARwAxrsZh//dmxMfARqNYerVNYapM9XbHewMhDGToDAYuQpOYnO8aphKqynUjuE6esXmsvH92Iw2GMYeKXWVb8I9+mKaYDp42cteVuzfNWPblm/jYBdjxsCybrQFob80BtIvhklbSJ7ImDkOE33ooYeKT4G07z5ntvv/u9/97rk3vOENxRzE6cq/9Mtf/rJ8h2EqVOekRfcA79/+9rdlnV7wgheU8E6gkbOaMW4ahHH6YR4S5YPpAgYMX10jz2JSRC+YtzMXMFj/f+QjHyn+A9rQVVddVaR4ZiPj9n7mgkkK7Tgt8Ne//nURajB+fWnz85//vPRH+7n99tsLTRojzcIzAgzAA90CiQAGjeT+++8fdOZ3U9IMou1Nj2cGwuRtYJIgUw5pPdpCbQYaK3Hx17/+tdio//jHPxYV36YTK85EwRxB9Se9roo0SkSJ5ymfrC82bwykRyj9Oz0FkAGqucKQnbf98MMPn7vxxhtL4iCGNuYXwpDvu+++si6kakzZGgAE869qKXCnMQAGjBXDBwxf+tKXytpixNddd13RMEjtmLDvaR0YLXPQN77xjcKImYE807hJ9OiNgxjtYM7u83wAgyHLbyHNewcaCRDDrAkM3plmwlSVo2WZufRL++CXMD5g4sQ3NIQ+ARRgMR7P0l+Awf/GACS8NzqmPfCBGQNT0tSrawxTZ6q3O/gZsJExFc43p7DVmcgtICQskSlBPoLNbfPYhADFvRgFiYx0x/FHmrQxk1TUMnsbPJoFswVmo9DeJsl0Bz/pGwwwwKCLhBdjhF//+tdL1A27fUBhaP3cR9Jn7knYqpBhWofgA2BB0ua3IIVbY0xV29/85jclcgnD9mxrav0xYwyftmktFaMDOPwW3/72t8u9xo02ABn/Ajs+jYGT2LNj6yfZX3vttQVgAIVn0DYIHMADw0ar3s1nmDng8Z1naG9stBQnCaJFdOi9lOTWhjPbuHOP/uJgByb6db+/lYOZenVgmDpTvd3Bz4ANyIRjo4lUWWXCiZTK+Wgziw33uz3bWZ82K3szCQ9jIfHZxEmkqplWwEJ7UitnaEJkD34CT3CAtfYQRlofjjRmgkvug3vCYGMKjGCAUbd+ngARRu3ZSYCrn0N6f/TRR0tEG8DhlEYLrggWEQTidPacfKcdYHjRi15U7knkUEsvtUZbg2V9DzMY57nvgReNqu4vfSZUNkuZNrSdxx57bPIKd2CYPFW94aHPwBAwjJmOqOpf+cpXigbwile8otiKs8lj+3ZvomZIhhjF448/XkAEOLhq5lXPDy2EGaIDwzSqyZzXDG3o77Y365PonPQRm33dNsw/jLf+nb/r+/RpvZU8sdYYpTyGSONDb1X3E1rSjjOZk5kPYW5iJRpkEopWlGfQdiRs5mjQjKeexwgpaJ1PxDtNvVYBQ6sp12DWrmP2TzvfaZfP/+PiH/+cOrjers/AnBlYBwyR5DB50h8VnAMy+Q2ehTnEJBRQ8VmkUCYIESqve93riuS2Chg4OBVA6xrD+lUcYwurIsciDcdGb10T9jnGrBJI0DJJfQUYkiTGpISm/Lb+X/jCF/4t87kFn9DJUJb1JSZ48VljV5ugVmsT/jYeY0+GfcuktdEHTSjZ4HXI9JSyIProwLCeZnuLI5kBm1JSUW1KCmOpJRSMXXSIWPB6A0fK048r0l1d4sLGpNKzMQuHrOsj1dNE9WdK6sCwG+KxntYpDF0tLI5ryYXWra6XhJFGcsUkw2CtaxLWfJ6/QweYq/7Z7T2LxsCUNGQ6DAPnx+AQlotQ00+e7/dYLSfvFIcyxs/XVTNy35P+taGB1KBQayjGStPh+KZt6Ic/gy+EjyJ95n3zPtGQfd+BYTd023s9gRmogUHSE+mwBgZD4jy0wZ/3vOcVf4FNWm8+fTAXSEwSJYLxx24ccBHJIqtanL2KmJHyaoYBGJiS5FR0jWF7xBBm6DeGzQHMYS1ix7oBe8wZgDMP0gZF7UgyS7SO9YvTWLCBtn/5y18KLdACU4ZCGw5feQq0BmvqmZise/xguvIg0IvPhZcCD3kMySFAc0AGI/YZGkMzxodm3Jvx+J5/iomIwzzPA1zoyNi1F7mkrc/0BwA8A0M3Hv4weRGJkuKkR88AxfiMlVAEKNwvwMLlf89m9hKtlXpNLdgO+Unc301J26P13tOWZiDAgNG/7W1vK0RdX4hWKKuoF8X0bJQ6Rj4Sm4J7fAnq9STOvO5HlAdwYeeV/NQ+R9sODFta1BXdYNgq5mJiJGTrIXJM/SQMkMSMyXMAA/JkLct1EUUkh0G5FI5ZDBhztt7XXHNNARHMlvM5+QuYMkaM6fodRuy5gImUL1MZw1XPCOMGViKkYqLUlzFhzoQKNCcyDjMGPnIqJMFh7v72XbKX/e9+4xA+DXCAh88An+cZE58G7UkorM/db3xAMCG6GRvw8J768s7GrnyIQIwODLun4f6EPcxAfAxjwEBKY0YCDq9//esLQ4mdOjZnG0qtHeYACVc2SWuX1ZY5ieRGa0hNpNaU1DWG3Sx6fEUiyjB3oaTCg2kPtAOMW2awAACSMS2CWQ/jxiBf+tKXFsYtgk3wAbMipghM5CUIVUUXpGhOW38DIVV6SfnpAyNHS0AC7bkPyCQpzfMwXOGuQm9j4qFNaIeOAJJ2mDYzkd8AiuROcNGX79Elek3IK40XGGqrH+AE7CTGaQ+QAI9xmxMAA5D05x4gQ9PSn33hM8+jYZkD79mBYTf023vd8wysAwYbSCx6GHpdfMx3pD15EGEon/rUp4pEVl+xw5I6JWXJbCbdtU7SrjHsdvExM1FlGJ9kL8lrMokxNZ8J57RG1lrdKpqF9SaNK0An/JQ/ilSNCQoqIIljzG984xsLE9YP4YA073k/+tGPSlsZ18yQ6M19vrf+wlrdw5SF+Scvgf8DIwcCQEiUE2AAGrH9R4sAMvIhAgJMXP4m+fuN1lx8GMxDaNazCTDMWoABANEcAF2AQT+0gJjZaA6eTYuiPZgnfjOgC+CACa3aOyQ0u/aNdFPSbum7977FGVgHDDYMYCAJyo5F8LHBhtGIPBGOqqSCjFm1c9qyGtqSUEmOmEgHhi0u4oyuMFxmI+UzJLFhcCRzmoPMZZ8BDCW3gYh8AjSCIVtX2c8AAnNlUiFlA3SlLDBRtYkklpGcgQETJKm6BgYhrSR10jdG7DtMWeG9AANBA+Nm8iH5AwZCRfwU6CtSvd+01dAlSd7YgACTEAmf6Yc24FmACuDoA6jpP8X3gF6Awe9kkXt/Gobn6NO4aArGSwsRBsuHARhSvbX7GGYQZm96WDOwDhhsNvHgNg+iTwniHOijXj2pkORF+lRXRzE1an0rITmcx8aSgVofzpMZ6RrDbmkjzmfmHQwS4+IfwCgxPswXw2fyY/LB4ACDdbQ2+c3/YH2Zn1zKn7zwhS8s7THgr33ta0WSRisYPFrxP8aK3pSgABZoIRFLNAiMm3kKYwdU2qRUN2mdSceF0ZPmjZGAgSETXPRHizCGCCake7TmmS5/A408I+W89e/dvVfKYvgN+HxH+6AteEd+GEDmMxfa57/wGyB2jWG3dNx738MMrAMGzIQp4Zvf/Oa566+/vpgdkgFLmxANYpOSzpSzUG/JAT/RCAIONtUXv/jFIqHJg6ijnzow7GGhLz4ifgZrHjt9ykL4LmZC0jDGaQ2tE0ZPerZ2pGP+B9qDdmiA5JwsabSRshXeSu4Lk4srJkXP8lxaZMJn3d+Gy8b5XEfJ+Tv9xMeVPIv0m8KMdZZ93l2feWfzkAzvjKdN2HNfnceR+zP2gE0Agpm0RyXth577U3Y4A1OAgaSm0B4bMZW53uQ2FMmN/ddJYs5yppbnSpatEEZRSUo5MxEMJWF1jWF3C51EsTbvoF5Lf4fBW9OsEcmYiYhWQTuwfrGh1yPOWgMVz0Nbiumx0Q9l89b3JqBhLAN7iF7yWZvg1gJJGxqd/4cS3TKmOoQ0Y/PZWLKbeaM1MNF1YNgdHZ/6nqdkdK6ahDpLdWjTTJ3AdcBgE2mD6dvgIpNS0MwzItWl/g5VO6GotVTlvADgIMGN3XboaoFh1cZd935DeRLr7hn6vl6nTddsyfO3dU8NDOmTqcRakvijBYYx17kPGH2u2M0TslwzzYQuk9iTAU3bBCp1HwlzjTnRWqGZoTpac2g7zNyz6rpc6+io3kve0//6yGlu6S+1oYbWhHnLIVMBzbxPdz5vi4JPaT91hjBij+Qxh/Dbqcnh53NrydT9rAOGbDbmABK/UEWO5jrctH2HbETMRv/sxZyQYt0597QfGvO2gCFmg5gBlpJU3j3vE7PD0v4O4T5gwBfE6Sv3hAYo+gcjrSXp0CdbOme0decwjuQfQKhDlwMMfgMG9wIJQQmEAvTqf34HtvuEedJIaZn68lmO8Gyl8xak68zlSPP6FfXk/UQrBeiGaHRsPZjIAJp3xuD51/gxRDjVz8z9AMTccMpHW+jAcAjUfiRjICmJzCFVUDun1mAZej0MV7w4m7+okqXXOmDQb8ojYCgcl2LamZXayKI6WslG1LdIEpEuNpmok2zQXQIDR6TcC6WWpx7kPqYtYGac6+aY83QTIF+6Rtu6D1PDlNWjEgAAGIRwWht0hDlzEvMnJG4fcxdlJKlNSezY9zmvMXsMkNPY2vtfe0ySszcRPDREjmr/M0vJUZATwDkNkNCI/SBKCTPH1FMKG1D4zHj4LgCA+/ztWf7Wv++TnYyRC4MVJeVChwQb7ZP57G/3+O0ZmL6/tfNsfaBzc2Z89iywi++Fk9r/fjjvnV3BB7MEGAK20VYCgPXvWkjRroD4xQ97Eb1t7Y4T7MdmcSoVOzypey4w1BKTjeG0LlVO2TWXXlOAIYRo43A+MivZ2CQkGyTjqu3DkTTFxduk3pckWEuc+q0Z7bY0Bv4O0VIyuUXLbHKRZq2ZpLxUh92kv5O61xqR1oG00/rkKXAqY2QAD8PjOCXdpwietQGuzgJXTwk4aE8DFKKc09P4HTBvGqX2pGsSNzMVmneQD60EswWyQDvMH02IBsLE9atPIOVv92PSooIwbEEOKbkib4HWatyAzXNoC6mb9PKXv7xEKKE3gKM/AAA8RGK5nwABWDyDM10fnoOOPUtCH78KDUI7CW/6SL6D+40dgAjvNbYAQ5zpU0xJHRhOalccyHMxGXWAhPtF+poztBoYEKuTzmw6VUuXXlOBIRILIpaLYHPbiEL/bFyMASOxUfkiMAEbiGYh5DGmp1bG2RUwAE3AAJQ2uTAQfWGMmM2xXjGHWTsZzUDA0aDADg195jOfKQJGkr8wU1I+AHEmgRwWTN9FMwD4hAK/E/YqR0LiHLMhzQBjfeKJn11k+leU+UMbPhfI8OpXv7rcS1NIjgOhg/aBQUtqY+ZiFkI7OYBHn/oHGgBI6Qz0h4H7DkMGWiKnAACgkISHJmkLQq+9h72IyXt/0XQ0AnND0MLcRVMJz5albYzGBhxovfJ6vAttgbbCRIr+//M/n3LxGf862jampPhiWj9HvQ86MBzrrtrCuBECgsdkqPGYzCZmCcBw9913l35oIEuvqcAQNTfaA1AghZHOU9AsNniqNRMOSRTziJMxoYZjY92WxoARAE1JV5sCA5u8vjjdjxUYaiZkvdQyEm9Pc8DUMEqlLmhXHMWkdkwUM5SMKKkNo2V2cglRpm3wFylJgflhwiTqN73pTaUvUrhMZgyZJO1vTBrgKHvC9CKvBXMHDMYADDBo6+cz4zH/tAr0RqugeQA2n9FaATeQQIu0Ou/q/Wg3xkQ4ceIccxBTj+Q6/QISDJ+2oyaUMepDqDVwAYayvc1XkjcJQRzMtC7jQ9eATDtzkMCLOus5JtMODEs51Bm4j42VxgAYSCabAANTEmDQz76BoTUBkZwwAsBACou0FC0j77nufbcJDO9///vPveMd79gaMGA65vpYrzAmDFLZEmHD6iZh0AEGTNqxnOiTREwyVlOJiUg7DNAFFGiMwFJ7zJcPhiYhwVG//BSkaxI/kw7mik5oDEptACRmK/4I4EE7IJ0TJDBTjNdRpfJjAJXxkM4BvRBYAg3zD78XgAAqgMq9nm8cQMbYZHC7tPe38hUpvudvmeBAwjiMh2ZAKzFHNCjv7j35X4AKPw0gAS60lRSFBCgBh1QgjsbQhtR2jWHiTgrhtsg68fZLzTa9Px1tq596/KcNGNo1G4rYqDWNYwQGdmQnyh07MIQOvQ8mR+IG5rQAkjApmG0fOGOaOaMbc/eZtcXMgT6mLzsaw6YF6CuMklmK0OIZNElrTlvAvFOqWtAEpo3pyxY2JqBE+gdctALaB38AZsscSXMgiauC6jvAhP6ABdCxt9Q8Mk6fY9aYPAABOAAkpSxyLgMQotl6P453bdOH9zIOjN0cAT2msgAUvwIg0QfAMc6UKPc7iXDRks80MLSMokbFhJONMfp64hICV7dtGXWiI1oHbrsAkW7HmFY7nki5uW8dM5sDXNsEhpiSSLH78DFMec9NwfQQNYbTBAzWJyHE2ZuRbDFFtO57DDyfpzZWzITJGs65z/k/AkDyWhKumtBs9+fZ7tUuGcrGksS6PDvOcu0SSusZ2e/6z5iAlb/16zKmuqy777Svcy/CDzKOMHDtMp60z9kieWZdAwmAGl+AoQaFOiS99a2dSY0hHv+AAVWSVEGSgPz+F+oYJhyGgnCyKK09mnSjXxIGm6J2ULw+T9aisG8nDjrESgXUznPHTg/TFrFwSulb2xDGFKY4pU0HhstnqQWSDgxTqGh5mzCjMQCvv89+aJ+WKJtaE6zbRmLP3vZ/ju5M2PN///f/XLzln5ci1CKEtYLglDetBbm811C0X8uY62fWfeSZ6wVCuTj/pwBCgKg2H9Ug1M7V2Nzl83Ydaj6Z744uXNWAefTZ8jBwE6QM8w033FDsiyIAOLKEmOXyskCDekg1E8US5M1kiZDgtOLcYucj4YjHdg87INs25xRnGXtliCNF4Ngd77jjjmITHCJEn5EIlJB2D9sq1XM9gUwh33+12SYwmK/z588Xu/ehaAzTZ+JfLTswzJ2xzdoPMZwhRlgzIgJZHKurmJ177EmaLBNTtJMIe37npwaSlkHXPGHd23pGInrybkmezL6NBSEaSF0DKlaHIcad+2sazTsRMpODkbOh66ztGjxrU9IY8J2JqCTSwYULF0qs+5vf/ObCtEUJAAb2SvZF9r9EEiAWNk7SP8bN6++ISUQmlpiaxv4ossBZwOLT9WOROLZETngeBxoGiSjZC0n8gMj97KcPPfRQcfyyKfqxsLERGotnASX9cyrde++9RdIRSUS7Ya9Mjfk6OasmyHWE7B2NQVmIbTifjx0Y2vnapsYgkojzmZCxyXVaTEmXSZpVIbo2MEA7YMCebp+IECJ05UjXmIZqYE/fQkdZBIS9RnMIGNgz9nSYax3G2QJW9leYem1eSrG7mJv175n8HvwWsSbUwBAh0R4XImt8OTq2rh0VOol5LACZNoRV/IAwKtwWr6nBsgXOem5r5t8C0ZkABov/wAMPlLAwYWsmR8VNkoQoBod4kMYlumDciI6Ez4kkkoRE73hICyh8jAMKEwUeav1LNhKtEMLzvaqfKnYCIiDhmeKvHSrCrMSphtEDpBwPKNKAdiCnAEHdd999hWGLlCARqE1PQ2G39EPLEZUBaGqppgWGIf9I2mMyGNY2opKM0XztM1x1EwY75d5DBIaEqx678zl0an8SiGivaNW+skcILT7DWF32jj3FqWxvYqQxr9q3TLboWV/u59BVD0s4qmQv92Cc+sRQk9zIrPvnP//XxWefu5T9rA0BkgAmssje9gzOa8KaiCG8wP+sAhh3eEeS6URQ4QPGyTmNmQM27TNO97A83HLLLeVdzAkh0DsYl7buMRb8KmeYe74+vJvfSoTcdNP/uxj++n8vWSZas3MLuB0YLhKeFHrAACAwfsyQdC9hhOROkhMiFs9/ohYcD4np24Q0BOisBAO/gvjiT37ykwUYAEUmmkkFCMjCpZW85z3vKYR95513FlMLzUBI2oMPPlju5UP43Oc+V0xS4qGZnkQYaC/EDWAhCufgSgCSmEN6Algf/vCHL51bm4PKh1TxISaIcPhIPvrRj5bkIu+5iZmqA8M41CSPYRsaw2kCBvSGCRLO+NqAgb0n+uarX/1qibhB+8y8zMEEKcwac0ZvNHXAoXw6DULOQ5y3NH1zhSkTnjBTAp+wT4KXPaYP9xoDpuw59hkzr/0MtAg6nsfkHH+gveI+AEMDBCQp0mfs+IhcCyfQYeZyD1zASySV8Fq8xPsZA8tD6h7JpRCJhE95d8Khvuxv78FUhL8oH5LzGYAJngZcYioaMj3V+/tMA0PseIDBZDPL+Oyuu+4qDFpmIslckhf0xoQtokQUWgQgQQQIijRPymAqsoi0Dan5GKvwtNgHAQNJQSYxKd+zqJ6ym+3flgAAGBtJREFUXgEDE5BwMsk87of4zDmYs82gX8QJUN7+9reXMdEqhNfJ0KRZUK2FyRmjMWHwOTt2jk0UUSK6W2+9tYDb3JIYNSvswNCBYYoW1tInkwtBhxZN8kXbpGSME2PNKWkYIZOL0hYEM3tKBI4kMZ9JXrRXCHFCQQlcpH3MleRtfyRLmcCWshsENJc9h/G7jwlKzoCzqDF2exbfwJD1DTAADCEOczY2ZmO5DgROzJ8gKTsb3wBa+A2mbwzyDoyBxE+zYJGgWWDWzELxowAQvARfAIL2vJwLe5U5mmALFLTLiXX1GtTWglboa81F9X1D39UO8dqPcrTOZ4tIK4DwJtSkIzYHjVMBMWW+BAuO2EgPGK2JxrxJBdLUSTVUWQuPgBDOI488UkxCYqVzWSjSPzMPwgZKFhHAOFyGJIMIgZFEMITohzQJKOLDQETvfe97ixREGiEt6YuE4hn6oz1ob3FsgCzS1A3qufq0mfTXgeHymeumpKmUtKwdBmM/YXykXRqDvUUr8JspFuNlSsEQAwzaMtkwFdEYUlDO/5gw4Yx0TrrO2eCf/vSny/8YNAZv35DYrbExEAwBAGlfKQo+QgKZ9oQewEVoM0bjsZftb7kPEu4Ih/pzv6Q3pmf72/6Kr8F+8zfrBWFMP0DF396JVkBQi3/R2HwHPLw7gRWPkB1N0PV87yqwxlzpI2G261bkzAODhYLCshNTSwRq0wKkz7Phc9xAewSK0DB1DNziQ352f9IDlZFKqg2VEdNGLIjUhTEjDtFJCACgIALp7AjMfaQYfahqanFoDGygVFvjVDsFEUJ44zQu4GaMAMb3CAAzJ0HkNKc68mAdUeT7OJ/jY+jA0IFhKu1sox1BjORtH2FyyeblH5A5TPDBYO0d+88esQcxcEIepovZ0q4Jc4QppTUwa8ITcLG/aNYYKjMw6dy+tL+ADhMyExIA8XxCG8ZsX7MeECQBCpMUrcD+Y1pSe0u/2uIbTD40AJ/jHfgN4VGfQIaWo4qr73xG86cV+YzPk8ZgPCwYeBOtSb0oIOaZr33ta4v5mLBKSMSbWCVSIZnZO6Yka1ObkobW6swDQ0LIIGsmLLa6JM/4H5EiJgw2ZRTqsrY57CPHDWrnfsTXRg0AB59h2u4jzSe2uLXzYfpU4kQ35KSqhLl5RsLzcgQiQvXcMQfT1E2bWkk2YPcx/PusdY1hKiXNbxftluCDidpX9gEGSSsGCAQXZlt+B8yeQ5YTmVlVyDlBilRPaHI9/vjjRdiz7xIi7nu0zdzC1MR3l+NgSegYM43BPRzfzLyENkzaZwDIMwmQng+U9E2rYCmwT0U2skK4hK4T/vgpPMf4c860z2kW/gd09rz3ZXoCNngF0OCTIkTiI8bunWgJ+jI2WhHzmTnxfPfyefrdXmNWhDMNDHXMbz1h7WS19rdVIZ+xtbXSdRtfHBAaG8PQVmrbTgk9rd9lrvO4A8NqhtaBYT7Dn3NHhLb6HIJaoMK4k7AVf2GStiKYxdeA9lOemzCVMNHUQ1KYTv0kTDhCmD0cYcv9Oc8jQqBnJvfJGEnn9XnSyUBOH/qLkEcYTMSg+1yEOd/rPyfI5f2SJ+Wdo6WEH6SchTb6Tdu0M/Z8NsbL2nU508Awh0jTNosxh6EPTbrFnMLYhxB+LoPXx5LxBhgS+rjkuRl/dz6PU1uPSlq9EwMQEaYSpx/zKCbmp87Xyf8R1OJorWk4mc2c20w8NIv4EaKRt0Ki/91HK/c7ABTtPH3W0T/5O/uwftuUutAmyXWeUfsC2rHn/VthtuUpefd673dgWML193zPEma9zyGyzyrIxp66aYJbB4YODEtpNzlAAYYxQSuMt05GqwW6dr8FUMLMa2YfKbxm5u39Q4KSvmghMSmnTR0BlD5rIdNYgEENIi3jTx9DVoDWIlGDyZi5aAio8syuMSyl1jNwXweG1YvcTUm73wS11BtgqD8L0+Mc5ifkgI0JJ+3c18bltwwYEPBZ8DMQgkQt1aCSZ+e+tr98L5JIH/IbhMrWIODv2sQMRFz8AZzm/AVMUauu+p3GgLK9vwPD7un0TD1h28AgyYZzbV/nMex6sZggJB0KaeYkXKoBbtOUdFpKYmTtcq4xmzumjGGTxjl6vSsbP6eqkE1RQgnLxLg5iIEFZpzDc9jgtfc/yR6N59xnkUuSSZmUOJqtKZABOgJPOJlFD1lnAOA+ORD8ApzYxijvgr/CwTuc4MbLd5CimkxPyYbWr/tSP02GMwdyB4Zd79ze/0YzsE1gsLFkcIogsWmWXnNOcFv6jKn3tcAw9b62naiSHNTTayVdPjuie+QIJa9AqLhQb3lHGD+wUEVArTNROIQP5xFgxMJEhZMLHadJCHslpWPY4v79L94feCQiSDgoZg4QhJGqQqCfOIvRrlwmoeEAQr80DJnP9oswUol46p8BHyHjwkZFEwEN4/W/kHRHegIT/g1jFCor9HbdtUoDGLq3awzrZrR/P2sGtgkMfAz8FWLEhb8uvQIMNpjihXUd+6V9Lr0PMKhPRWMgSS69tgkMpF7jMcfHfIJb5lK4qOQ1VQJoVvICMF1zJr8G4/fOpHC5DWjC3xi5SgYk9NQ8AwjCTeUz0AoEV5DQtU0+kuoBQIMTGjOXNGYMcgOADSCQI2Bu9SdvAHgIE5VXJMfCiXPyFvTtgCChs3IN5DnQEHJWtPdR00x/LkmzHRiW7qJ+395mYNvAEI1hE1OSUD4F0wCDMiJ1kcC9Tcz/fxBgkKwoS30TYMAgaAwkxk01hgCDSLJjPfO5XkflJ8T8W2snm/mf1C8HQJkYCaJyCJxlLOfhLW95S2GuNFRFLEnsNAr3ayPZFCAQUJiezBdaAjS0AfkRSlnoX9KbpDkF8fQNGACLPANrBaCsPVMSHwHwYrZSI83zaAyAg1nLPbSdRDXRFJiqJKhFm8jY19Fx1xjWzVD/fqczcMjA4MVJh4cADCT02lk5d1ECDNs48xmjw6xoDMcODBggBz+J2lpLNMNg+RVI3moNkeZpEXwCnLjs9NaCeYgAARgwZAUpJZdJPpNwxjGs3ISMYYxd2QgCi5ITagzROpiQlK/gC9APIcB9TFjuAwzK6eiXtqLUDZDxLH9zJMvcpnUwWyl6ya/BPAYsmJCAifczXu/Ij7HuOkRgqJ3x+bv97D8uDvyf616uf3/4MwAYSPmYjCzOTcw2qRKpn00O6onGcCjAwP6NEXdg2D49YyPMLsBB5i6pnZSPWcuG9j16AICSz9j5lZJQtoJ0j/Erhkc7YPd/8sknC+PmDBYEwU9AcqdhcGYzDzH56IvJki8DU6eRJIIIsAAlvgnaAUZOqwBYfAc+QxOJLgIoxst85Rn6ZVqivaRfjmw+BhqL+9blC81lr/vwMXRg2D79H2SPibwADMlj2KRWEomIj4Hzea4pqSZsG1QNHJtHddnEfp/EJMaU5L1ImHOvRDFFY/A+mMwm12kpu20OzA/7P+ZNS8iZy9YePZG+U2MMXWC8KbKHLswFjTKMPiGtopLcp18alr+TMZ2sZs8H9mieWSoF8wCBz/xvbMxBnuHvMHXt9W38vqeRACrP11YfhCzj1c5Ytck41q1/B4Z1M9S/3/oM1HHS0Rg40mKWWCfNjA1IaN8999xTpDBOQ9fUvrIRIiHef//9ZbPffvvtJwoMpESFzO6+++4SZTL3fdKeacHZGer0kHaXXubHmjFtAV8SbM1Epo5v6fN3cZ/xRxolbY8lgdV0W2dER9L3fV07rKapetxjWcp1JnNAK/fVmdg+Ay6uCFJ5dvucjDnvmGzrdQJYB4ZdUFrvc+UMIDob0EWSdZ6E6pRU6qkle4ceoE8HCZGaOO4CDFPMU/Umdr8xiQQBWOs20S6Xm8PSWDgQhTbO0V7ihMTE2MnFz3NAs5UvvTAoJjs2biGbmZ86+3Zp3yd53xgjbLOJh4CvBoz6+2hr9Xu1IJr27fPbfsL46yM9a8Gn7af+v85mbpPuxua8A8NJUuMpfnbqswxtCsRJusfIOeRUeRT2lyMUl06LZ7LxCuXDSJUX9qyUDhjafK1Uh/E5F0Pt/Le+9a2louTQBl86xrn3YcLO3GD7BnZCHNujVNPnEDPxnXn2PpK1aAwiWZZeARv1/4GN8zo4SAPox6gxLJ0L962ijdDWSc5JxjeXhjswbEIV/d5/m4GorJhR1POWYbHbCr0Ttoe5MPsI91tynkM9AEydXThMiwOaU06YZ0oY1NJ/Tfz+ZosloUtsYvsV2jdURnhfyx7NSmQJ0xYnp0gViVLsxas0mawDMBAhIzlLiCQnaYByyXukX0AlTNLaitd3nkBs4+v6NW7rsYl2uO4Z/fvNZqADw2bz1+8emAFMQ+15kRA1KPgb8+aw88OGz04taQezinNuk0kFSJx2IjScpuUS/tcWHGufYSNw1Mk4ZdJS9kAi0VTVe5Mxr7oXuHonPgJhjmruczYCrDETWaR6cw2A3e/AFlE3OQdkyXgDCgEk6+wcZIfJW0vOcY7ZdZf7RY4J8TxJaXrdOM/y9x0YzvLq7+DdEZS0fAlDbPWu2qnmb9IuOzczjSSfHHC+6XBCzJgprUTYYU69Y5sdKiXsmbHfivggjdMygMmmGsym75P7w5CBqZIMYu2BX5ye7XPCbDFgZh7vQ9uICSp18zcZX+aahia2n/nN+OIUzby2jD8mDZrLpuHJm4y/37t6BjowdArZ6gxEWsWYxy4MKyWH2xPgNhlMaxpK6KHP8zPWf8CrLoVc197fZFyb3lsDHunfWOsy0aveKYfOaBMgmePAHuq7nWdjqee6vmcIGPL9UNnoCBItsLTrt86M1jWRzajuzAPDXKfMJtM99qxNx1Dfv2lfm7yfezGJOeaXEOA2NnLbV1u2eEp00UnP36r533SuMh9T5mHKOGqNpmbo+XxsTQNQwKTVJuv/sxY1MObvVpur5+aQ13DT/bWv+zswXJQmE86V4/0kgVCLk3yybjFqApZk4id1bdaFr62SyDKueqN5Flt4ElVWMVTv4+ckHajr5m7X389lEnPb73r82+x/U2AZG8uSfoED7YdPh2kx1UZrYPA8SV38Kkx7fBj8VuoKOSKTszv0L7dC2QqmQHujFk7q/Zn2p3mdt0EzZwYYZJBKceckU0+EA89VS0/qrUtxf+c733nuuuuuK+nkbe3yesLCuNUwEf3BbqpO+sc//vEScVNfY5snBCr9Xbp9jvFjilFPRbJWfQGdO+6449ytt95abPSrLu+reNaDDz542ZGE2yCcY+ljLgOY2/5Y5sE4lzDwXb0fYOAnUQyOE1vdH8X9Wue1KLG77rqrBCko2ieoQe2gBx54oNB/jppUudS5FfaGoIF27435Onb1fsfe76kHBgSoroioDoAQB5myCU5TIoGQ7mWVKmiFOSNETPl73/teifkWLkgNV3tEJAgVmBTjM3VKHn744eJwVVwL4IgE0VbfCBdoCOfLvRyILv+LgLEZpLhLnTdWlzh8fZGY1F/3TBuIsxbx33jjjSXuv5akPMu7eC99AicFtiQ2ARpj9nm7cY6diPv49zcDpPz4E5Y8NQzHbzSv1Iey4ur4YPzKUZP6BQIQkghd8knsR+G2X/7yl0vdKNngfBQCHIzJXuAEFzqL/uXJ2He0ZYDjeeoh0bZpG35oKv0anoFdA4P+62e0fw99t6pWUvpbW0Qvkh9VVQ1yUjOmmktpXdI9KV8EDQn8b3/7W9EYJO3QGACDEEFMFZHqS+ZoytwiRlUPaRoyeFUxJAU99thjpTCckEfEjnhJLOrUqMboPgW3gIpql7SYXJKzTMBtt91WAMahHrJMEbmNITxQP0BA+KH4dGMyziuuuKKM22YT9UPbAQykMpuJhKVgmE2oNlG/+gzMmQH7wJkACsMt8QnVmx39Yuj6kpSYYnFoEwjIbcHUCWUqgqpyiv7tT8mQyl2jbSVDCHkELPtQKWoJgcDLfgcskvqYmWjPqVz6rne9a6PSIHPm7RjbnnpgEGOtfg5JI+o0gsTESeUOxyBZIyqZsjSGAMOjjz5apHMSN+kGwWLs1FhJVJE4ECuNQWYqVVdZBu08w3eklFe+8pXlGUAKECmvC4hoJ/WlPrtFQeCA6Pz580UjYUOVsIW4AQPVWxw4aUpRNIQvKxYYGQetgKbhfWwom4UKLqzwwoULJeO4S0zHuGVPbsykcFo12t8GMKBz5x8QqqJBC6sltNC+HVjDlKReFQHrhhtuKPtYsh9gcLiOcRB6AAT6BgL2iwqlwAWoSAp0tKW2QmTtCXvTWQv9OqMaAxOSOjyyWZlREKMyAzfffHMhLsQn3h0xKYmL8AGDU48weP4GTDoheUxOygtg7LloHohbW3XPaRSAAVGS8AEDgiRteS5GTUoiBV111VWXrQzidgUY3ve+95VxUI8lKfF7KKimb6V1aRTMXcxWJCQEbxwOCxHDbhNce+2155waZWORpLR3KPimYYt9U52tGcjeISRtCgzu18+9995bTEloV6IjAKDF03btVwIP4Yc5iCnYUZW0Y/WjmF0JQ/bI448/XvYc2rc/r7766uKXkL1O+JNhb98T0Ahk9tKxnyWxS+o71RqDieNjYI9HEKRsF0kcKEj8uf7664sELZJB1EN8DD5nEmLSwegdsceGiWD1hyiZbvgsmKWYaAAKhy8Ng1ZBO0DIAQaggamrSElNBhDtBgNQmDfGj9nbFPpD2D5T3oDZiwnr3e9+97lrrrmm/OZct9FoC+y0tKErr7yyjIfERZKibTCJ0W6YmuaEle6SCHvfZ2MGWrsxsyuzEK0evb7qVa8q+zDnDKBPwRaEH2Yjvge0CzjsS5/TioEBk5SgD0Ig06k9wNRKwCIY6UcfBCZ7FpgoAtivM6gxeGXE5Zg9amc0BhIEWyOpn20TMQICTmEqp4qR6vErLcz0grkKp0OYzDl8D9ohYFI/yZtUz2dAoyDV0wwACqZNUkGw7Jp+AAINgPrLdJSNYLyeZcwI22+mKRFLnMq0EmOKCi3rlMbDxAVEmMwQPn8EDUU4n1OdABQpC3h5FpBUqTPz0zdHn4F9zUDtfBZK7dhMdEpQYdpsI6do6sJTCUR+27dom6ZA6+avw+DtJ4KbYzFZCexDZin7lP+BIEZjJxSK9ItWsq/3PrbnnFqNoV0ImgNCxGzj7OVr4FDzv8+1QYgYve9SQkBkkImqq3+SQLT1me/043/31H2kno3vSfUAh3kJwwYWDvKuq12mpEAKjOnLuNOPz1N61+f1aUxswBlDmL62eQ9A4sqYl5gDphB4HT2waTLVlOf1Nsc1A3UpD3snGeZDocIJCU/eQ53J3SZTapPwVTOS0G99+DsRVfbSoZQ7OdSV2xYwtNFHdR7JiUQlHeKEY9JMRRxumDM1l1Rzmi6L7T1T9mJX4HOa5uyY3mUOwxha+9wfpj5W7TZz0unnZKhjzjob4Vj7DgwL129ISlrY1crb6oXb5WbzHJoJ81kkuLnvM2d8cwm49335asyZjwRgTF1PkvlY/77jr+uS+9TZ3G+7uftqVfuh71rAaLWHIW1iK3kM257GXTHwXfVbv3+eUf+OqWnb86Q/WahMZsxtYQxzGNBcojyEvo9xzKskvTG6mDPXY33QEoRa87XxL/Tr8GZgLj3X7eVfCSyoTYT1G4pAq/1JLR2OgcZBAsM2lm4fILBqnLt8fk0YHHz8KbUteQ5DmUuUu+p7V/3OBeVDmY+5414FLoIkOI2nHLu6jb3X+5g3A3NpLu3tedGPIjXHqhOLrlxVaujMAcO8pemt+wyc3hnYpZByemdtf2+2FBhI9YCB1UDQy9CZIcLnU2Q0b3S0pqT9LUl/Up+BPgN9Bk52BuYAQ90WMKjwEGAY6gcwpIjpEmCoNYqYl/LZ2lpJJzut/el9BvoM9Bk43hlYCgzuk1+imkTrO8hsSDyUIjDkYM49q5zPHRiOl676yPsM9Bk44hlYCgwtYx/rh/8uIcstgKzzMXRgOGLC6kPvM9Bn4HhnYBNgqN96qJ8AQtcYjpc++sj7DPQZOIMzsEtgWGUu6qakM0hs/ZX7DPQZOI4Z6MBwHOvUR9lnoM9An4G9zUAHhr1NdX9Qn4E+A30GjmMGOjAcxzr1UfYZ6DPQZ2BvM9CBYW9T3R/UZ6DPQJ+B45iBDgzHsU59lH0G+gz0GdjbDHRg2NtU9wf1Gegz0GfgOGagA8NxrFMfZZ+BPgN9BvY2AycNDF60zYBu6yJp02sl7Y0k+oP6DPQZOOszcKzA8L+apQg/vwTdtAAAAABJRU5ErkJggg==;" vertex="1" parent="1">
          <mxGeometry x="400" y="560" width="280" height="233.33" as="geometry" />
        </mxCell>
        <mxCell id="jZpcVFZZBrPNj7oELyAY-52" style="edgeStyle=none;curved=1;rounded=0;orthogonalLoop=1;jettySize=auto;html=1;fontSize=12;startSize=8;endSize=8;" edge="1" parent="1" source="jZpcVFZZBrPNj7oELyAY-51" target="jZpcVFZZBrPNj7oELyAY-7">
          <mxGeometry relative="1" as="geometry" />
        </mxCell>
        <mxCell id="jZpcVFZZBrPNj7oELyAY-51" value="Biliary and fecal excretion" style="rounded=0;whiteSpace=wrap;html=1;" vertex="1" parent="1">
          <mxGeometry x="110" y="460" width="120" height="60" as="geometry" />
        </mxCell>
        <mxCell id="jZpcVFZZBrPNj7oELyAY-54" style="edgeStyle=none;curved=1;rounded=0;orthogonalLoop=1;jettySize=auto;html=1;fontSize=12;startSize=8;endSize=8;" edge="1" parent="1" source="jZpcVFZZBrPNj7oELyAY-53" target="jZpcVFZZBrPNj7oELyAY-51">
          <mxGeometry relative="1" as="geometry" />
        </mxCell>
        <mxCell id="jZpcVFZZBrPNj7oELyAY-53" value="ABC transporters" style="rounded=0;whiteSpace=wrap;html=1;" vertex="1" parent="1">
          <mxGeometry x="10" y="560" width="120" height="60" as="geometry" />
        </mxCell>
        <mxCell id="jZpcVFZZBrPNj7oELyAY-56" style="edgeStyle=none;curved=1;rounded=0;orthogonalLoop=1;jettySize=auto;html=1;entryX=0;entryY=0.75;entryDx=0;entryDy=0;fontSize=12;startSize=8;endSize=8;" edge="1" parent="1" source="jZpcVFZZBrPNj7oELyAY-55" target="jZpcVFZZBrPNj7oELyAY-7">
          <mxGeometry relative="1" as="geometry" />
        </mxCell>
        <mxCell id="jZpcVFZZBrPNj7oELyAY-55" value="" style="shape=image;verticalLabelPosition=bottom;labelBackgroundColor=default;verticalAlign=top;aspect=fixed;imageAspect=0;image=data:image/png,iVBORw0KGgoAAAANSUhEUgAAAmsAAAGNCAYAAABOuTbmAAAgAElEQVR4XuzdBbhuRfU/8A0oDWKL3Z1ggIXd3YWBHdiADQZ2iy0q2N0Jdne3GKjYgnTzP5/xv+5v7ma/77vfOuc956x5nvvce8/ZMfOdmbW+811rZm9yxlJpsiQCiUAikAgkAolAIpAILCQCmyRZW8h+yUolAolAIpAIJAKJQCJQEEiylgMhEUgEEoFEIBFIBBKBBUYgydoCd05WLRFIBBKBRCARSAQSgSRrOQYSgUQgEUgEEoFEIBFYYASSrC1w52TVEoFEIBFIBBKBRCARSLKWYyARSAQSgUQgEUgEEoEFRiDJ2gJ3TlYtEUgEEoFEIBFIBBKBJGs5BhKBRCARSAQSgUQgEVhgBJKsLXDnZNUSgUQgEUgEEoFEIBFIspZjIBFIBBKBRCARSAQSgQVGIMnaAndOVi0RSAQSgUQgEUgEEoEkazkGEoFEIBFIBBKBRCARWGAEkqwtcOdk1RKBRCARSAQSgUQgEUiylmMgEUgEEoFEIBFIBBKBBUYgydoCd05WLRFIBBKBRCARSAQSgSRrOQYSgUQgEUgEEoFEIBFYYASSrC1w52TVEoFEIBFIBBKBRCARSLKWYyARSAQSgUQgEUgEEoEFRiDJ2gJ3TlYtEUgEEoFEIBFIBBKBJGs5BhKBRCARSAQSgUQgEVhgBJKsLXDnZNUSgUQgEVhJBM4444xmk002Wckq5LsTgURgCYEkazkMEoFEIBFIBDYgkAQtB0MisHgIJFlbvD5ZlTUKA3/66advWIkPWpGnM1iVXZyVXicInHrqqc1vfvOb5k9/+lNz0kknNec5z3may172ss3Zzna2dYJANjMRWDwEkqwtXp+suhp1ka/6Z/4d/4+/5xlaeeYzn9l89KMfbR7ykIc0D33oQze8e9UBmxVOBJYZgd/+9rfNE57whOYrX/lKc+SRR5a3n+UsZ2mueMUrljl1oQtdaJlrlK+bNQK5WJ41osvzvCRry4Pzmn/LiSee2PzlL39pDj/88Oaf//xnc9xxx5U2n+Mc52gucIELNBe5yEXKvzfbbLO5k6cb3ehGzRe+8IVC1l7/+tfP/X1rvnOzgesCAWraXe5yl+bHP/5xc/GLX7y51rWu1WyxxRZlTv/sZz9rDjrooObmN795zqc1MBqOOeaYRhQk1dLV05lJ1lZPXy1kTYVMPvOZzzQHHHBA8/3vf79B2k455ZTmtNNOK/U961nP2my++eaFqN3znvdsHv3oRzfnPve5y++s8JQ+Klutzo26/sY3vnHz+c9/vqhqr3vd6xYSt6zUbBBoK7ijxsZs3rr2nmK+3v3ud28+8IEPNJe//OWbj3/8482OO+7YbLrppmVO//3vfy+q2pZbbrn2Gr9KW9RlP4epZvG7r3/9682DH/zgsqB+xSte0dz+9rdfpQisr2onWVtf/T2z1jLuVtvPfe5zm4997GPNySef3Fz0ohdtLnaxizXnPe95i1G3cmPkf//73zd//OMfi3GgsD3rWc8qK/itttpqKFFz/3/+85/m6KOPLmRvhx126FX/IGuhrPW6KS9alQhwQP/4xz/K2JJbtc022/Qi/6uysXOs9C9+8Yvmpje9aVHFX/nKV5aFTpbFR4AdFtFQzn/+85eQ9aASZE2ayH777VcuQ9osaC1ycqGz2P2dZG2x+2dha3fooYc2j33sYwthQ9L23HPP5ha3uEUxGNttt10JdyrkdoRNDsyrXvWq5gc/+EGR3h//+Mc3z3jGM4a2T3Lz4x73uOZLX/pSc9e73nWDgRkFSpK1UQitnd/Lq3rgAx/Y/PrXv24e+chHNg9/+MPXTuOWsSWf/exnmzvf+c5lAfWRj3yk2XXXXTe8PXOclrEjxnwVkn2Pe9yj2Nu3ve1tzRWucIWRZI2axnYr++yzT/O85z2v/DvJ2pjgL/PlSdaWGfC18Drk67rXvW4jGZlS9r73va+5xjWu0dm02tBT2O52t7s13/ve90oI9DWveU1ZwQu1KG2ncOyxxza3vvWtmy9/+cvlvve85z294Euy1gumNXHREUcc0ey2225lLD7xiU9sXvSiF62Jdi1XIyKUxtGbi9RJGwmucpWrLFcV8j1TIPDVr361ud71rlfI2uc+97kyF0YVdvXd7353iYbc61736h2xGPXc/P18EUiyNl9818zTg0j9+9//LrlnhxxySHPhC1+4EKhddtmldzv//Oc/lxDot771rRIy/fCHP9xc+cpXTrLWG8G8sEYgydp04yHI2pvf/OaiTFLJpTVc6lKXyo0E00G7LHdPQtaWpWL5kpkjkGRt5pCu3QfKIXv7299e8hyUl7/85c3DHvawseVzqzrPOOGEE5onPelJzbOf/ezOZ6SytnbH0qxalmRtOiSDrL3lLW9pHvGIRyRZmw7OZb97Eclahs3nMwySrM0H1zX5VEnc973vfZsPfvCDzdWudrWiilHXxi0SYm93u9uV3aM777xzw+DELjOE0O4zfx9//PElj8bv5ay99a1vLT+vd0FJKFfqfIub3OQmJSRQbzBwj/wmyt5///vfkoh79rOffUOOXfsZo9qkHlRGIWHP839tsNM1NliMOhRYcjDCGjtmvVM9HZXw17/+teyoVccLXvCCE22xF+bwx25cfzzb///whz+URHKhE8/Xh1tvvfWZmux67bLB429/+1tz1FFHlZ2+sJN3KGQWx7GMwktb9Kd7o6+H4eN5chbtNnZ9JE7HruAYIzYXOE7isMMOK/mNNq/ENZ4hxK5t9bti/ESfe4fn+GOB4Pfbbrvthr7UP8NKfYYgfI3vf/3rX6X+cD/nOc9ZsJLLOe4463pvXX99oi9txPFufapvjMNznetcG1IM2u/1DH2pjsq73vWuslObsiatgepdn4koly3SFUb1dfv38Rz1U9fYEOI6mERdYdV1rzFonij6clA96n6IsePoEf3XtXNSv+sndTLGvUd99JU6xX1d49RY9swaF31gbhlD6nm+852vzN1BBf6Bh9xe76nH3aDNAupt/LtehELah37/xCc+0VznOtfZ6HUx/sO2uEe94env9tyob67HmZ9H/jE7Cl/P2n777QtWxnj03zCyFva9jR37wOZZfGmbeukHGHaNi3HH4Fq4PsnaWujFZWqDHZ03uMENikF6zGMe07zwhS/sNUGjejGJTdi99967eclLXlLOcfrGN75RyJ/CkFPbvMN1P/rRjwoZYhCudKUrlZ9FYYjsRr3mNa+5EQJtssYwvf/97y/nRElEZ5gZN0TDMx/1qEc1zmbrWxgUOT7CRRwzh6leDDcD45k2XDinqsvQBw5f/OIXC7m49rWvXf5mAOXxqafnMmDqqG5vetOb+lavXOfeN77xjcXx2pov8R4O+++/f/OhD32o4BwY2OzRlZjP6bzhDW8oxzggkNrJ4XIiduZyRHYQuhcxGFY+/elPl/Fy6UtfunnBC14wlHzCx7uf9rSnNb/85S+L4lMfL/CrX/2qbE7h6NQH6fe3zS2eX48RffKyl72s/LyryKN0Fh9yj5B6r/s5TaRbPpD2XeYylzlTX9ZOyT0//OEPi9osJzPqFmTtcpe7XFk82IQzTYl3IgYUauPaWLFw4PzNCX1jHJoHD3rQgzYiXvW75fd98pOfLO3iKM0NxFi+mr/jXXA1buSnTlokwsPZwitw9izkCM4IhznTRW4QEv2tfcbEqLnKXjjY93e/+13zgAc8oNl99903kDXv1F7jWX1slIoFl/ZGfa5//es3e+yxRzkMuF30rTFhjhlbCK7jMJ761KcWDJEai0hHn9i4YW7UY8W/jWtzne3zfve08TDuuzA3p+P8SG013vS7fmvvmLcYO/jgg0t9oiCoiLl3Gq+XuMQlhnYru4TMG2tyQ5E1hMo7kTVjDV4wueQlL9kZPo/2W1Sx7/rgOc95TpmXxh77RgRgW9kp9fXcm93sZmUzhLM613tJsrbeR8AY7Zd4bOeRifqOd7yj5K4pXavWUY9lxCgiCtKGMCgI4R3ucIdiFBQTl1G0yg0HEs824U1yqltNiuoNBgwCI4q4MCyMib8RD++gFiIfwkDawwANWxn+/Oc/b+5///s33/nOdwo5o0AwKgqHyfl7ppWmIxCcXTVICVAnDhwBdlYdEmNbvXvVEwGAB2PvoNJxCsdGaXr1q19dnE5gjAhyvg49pQ4gxRLL4RRF+xEPKupPf/rTQqgZS6tc/3afTxEx+kgSIuO5SPMgtcyOs6c85SkFLyR1kCIbY8mzkQ27jdWNgY/yzW9+syRGuyZUF38jRurXVs4QEopDXTfXy7u83/3uV4irlby6BenkQDh040/73vnOd5YFRZdC52c2wcDLPRYWHLhnut+YMN5c97Wvfa2oyZMWbTMm9BmiYezqT3+0nWPl8PzRN3YHGttXv/rVz9Q3xjs1RjFezGsE3jyr26mv3vve9w7daTioPeaud9ixi2DCBDkwxv0uVGTv9kkrpADpqN+vvbe61a0acw8pUBcEr11g45lIn+MoKIzmlUVTPacRR/1uDiMFCJHnwcscjn5Htjzntre97UavYjdsqDKGnOcIMxEApBkpR5gQUv83f+qxrn7ugQeVXx29H6nyO/fFZ76ca6et9bzSDosei9RoL+z8OxToevz7GdzibEsNUX+7fY1Jc4D9GVRgjyyJosR5meqrH40ZbTBXjDv24cADDyx2PU4DqG2KPjV3RVUU5Ewb733vexeFMOwee2n8wkGfWDBZYPr9ei5J1tZz74/ZdmfzIBMm6re//e1yeOak271NRMaZ47/jHe9YJi4jwwD85Cc/Kas+E5UCR11DwPbdd99i0MIYIXBXvepViwpSlyBrSJ9rOAsGiRpIxXK95zMcnulv5MXK0fMGkTWrZobFStZ1Vu+UpZqscQCOKPnUpz5VDCQy2Tb2Udcga0iJHD4rU8aeMeYM1CNW6vVRCn26DY6MrNX7fe5zn2JIkUfElkohgRz2nk9NQA6jOF4FwUPYbP7wHGoG58VgM8yMOLUMCeTcEBmEjarY5UQR0Sc/+cmFEDmKZdRniyK8ydkha44YiIIMGyPqgQBwzow7YiyHsnZW6ouotEMp6kB1QaSoXZ5howynaUxzmo6b0T5jHVmlaNRqabyHMqIPkQBjDilFkjhKjpTCwyla4FAyjMFxSt0e7zAG9Y0+pJDc8pa3LITAWDc/tAlJefGLX1zIuLEthYDTqxdWrtN32ovQvvSlLy19/PznP7/8rbjefDcOLE7GKe61wKMQUaNuc5vbFJx32mmnQlKQHYSGKkXlM+6CsHlfzENhv9gAgQQ8/elPLwuwqF+E9lzPqRsH6mrMeXdd4Ifow88cswhAABEB9bEAYA/gZQ6zcZTbulCHjCmFamW++voDW4IAB1kzt+IrEK71fMeiGKOIkp3u8DB33BPnUlJ5jTt1RFzZpXp+Gm+UOe1GxNgNBIfdoQTWyrKFKbzrYjyyJ+YO4mhcdBV9Zo6Y58aDCASF20LE2I4z3mKeqK9FA5uDkHXZUaQsfqcPKYQIskUr7IxpCxAkkHJskUfJIxJQ+dmqYYvpccbnars2ydpq67EVrC9Hz3BQHxgijm3SwlgxEpwxg4iQxWosjC8ywcBTYiY5uiNyThAPjqgOBUS9GUbtEk5AJmqFKa5hHIROkUqfsWJAGXKr8S4lDpm4053uVEIgHKV3MHDtEmQNcUFMGURONshfO3QyDjGulTVEA94IJsIRjjicXV0v98GcaqOf1cd90Sf+5gy0m7FmyF3v5/7mnLsKAjArslY/36oeETcekWcEZVRBBI0993DUFgrCzfDWrmif/yM0CBhyqP+pVO1P9AiFUYaNY84oFg81MYKVEKsxOOzg0mF1N0YpMr4ywKmpt3d2jUFtQCAQOW1w1I7r66+HxHhSz64NBqNwHPV7TtZ7EQpjAwFCigY5cfOQkxa6fe1rX1vaFeMOMWcDpB4gCuaWZ9dzAsHWR6HeeB8bFe9jTxACYxRu1FD9XuMQbaKIIhKwFrqtC2UKCfM8JNlCgX3RN20VvW4rkqd+bJ4d8Z4fNrS+LtI/KFTII6JC2e0qlFo4sJ1sU5uQd2Hdh6ypg/Ygo/CGmWNBjN0uu4RoUxctDix61IXSGzYmMA6yZmwg1DC0yNO39bzwDnVgj6WIeBZ1T1h0vZYka+u158dsNzJBXWEc5JVQVkzAcQhEPXEZX4oGIkZtsSqzCqwdHNJj9UkFsVq20upTqF3IhkKFsEqNsEnbeHmHa6x4hRus8rskfCt2YS4GhVrG2HaVeD6Cxshy0FaaQqdtrIKseQ4nznhb9bdDbTVR6tN+19Rkzf2IVxx2GnWsFRv3uE4Yg7NUH8eywL9tcOv73UNJoi6EkhL31HWtydqwMGjcM0xZq+vDUd7whjcsxARZa5+zFsQr7vF/1yCOHC2ySc2sn9l2nBRJZ7ghOvL3IozpOjhTb+DG4Qjjtc8NnJUSYEwZd1RhBNF7g9DUWMf7tNV1+oezQ14sIqKtdb2CrJmLHDMyOE3xbAouZ2uxwHlThwaNZXXllCn3Fi/sTFt9ReQQGOSPMiREGDlu7BPFzVxHppE6CmbdRvixI+Y8XChcw+Ywgu1adqkuQdYoUwoCxibUxLDLLlpIUJPUz2JvVDhcCoNogL5jA0PNq+sSu0EtTNk8i496Xnfh3YesUdzYZ/frF8p2e963xzX1U3gebuoeebD1dUHWzG82yQG9bN6gQkEUAudv9K8/bfs8zThdTfcmWVtNvbUCdY2JxmiR00ONYDymKZ7LcVgtUZ+szNpGsSZrkyhrVpmUQE52GKmME705h+9+97sblK1oH4fsDCoGmZOw2hZWHFaEKoQ/PY/EL0QRuwoD05qsccKcaZf6NwnONVnzXjkuyIzShYU6IQFCFPrWClb4uI8KRN3iGK2q5QLJ82l/Q3LWZC0wCbLWR1nTRqEdoRxOQ7/4pm2oBYOwoaoh8ghBHOQchMfPOCVkx3imXIbSNeh5k/Sne4SkjBE5Q0JPo0LJ2ivsR12TdmCx4f52cV3XOWuT1tN9+sWY8F7jLsj8sHmIhFFxETeKTpcTp8IIHVrsScuIZHULCwq6cW+uWXDUTl0bEXSEib1BuhHScReb2laTNSo4lW/QIcIx14VyqXFCqvpRSG/U3BIihqFQNRul3bUK6N9B1jwLGUXWRpVRZM2YhhVCK18T8a3DsIOez15T36SJCMfaPEFl7iJrlH5HNklzGbaYocBR7JB9G0XYTCkNk/TbKFwW/fdJ1ha9h1a4fjGRKERyKxgqKy4rw2kUg0nJWp93xm5QyoMV3qh75BNpE7IoNNLOuxICFWpDKIW75MKMMrQMHufIeVMkkdIgYm2yJl+F0R32qZhxh0FN1qzgqSXySQYVddI+4SqExmqawR6FHcfqjxCWNnK2SF77XTVZY3hH7SwcpaxNQtbcgzwja5wAUskBBKka1FaORR/CR2io3pnrHuoRFUmbKRJ2uE2ihg7rY3WwWBLSREQ4rVFF3agc2isnTR4Y5bi9IJglWQsMvY+TpQohUhSxUWMJoaFysjExd9tthAOVmkosnB+LRoQUCdFWKnj7XcaoaxAryrv5MOqj9G2FKuoSZM0YQhhHfTbPfTYIWejJYfRu6nOt+nYRaDZXCN58odIjqu0F3zzImhwyaqEFASWSatzniA9jns1gH2GLrCGxdV8IUesj4U8qNHszbFy4zqJKvifM3BNH4Iwa/2vt90nW1lqPzqk9Vk3ImnATlYEyMcr4DquKeylPHPu8lDWSPIc8qiCejAYDI0TX/nQW42zFSC3wvFEfuQ4nKflb7g0Cw6mEctgma1ahnGgYoWlwjbYia4gl5QgRlfMyKsfQCtpmhFA2GOwow+rkekcqIGRImOe0jzwIsqavEZp5kLU+n5viyIW9kQj/HrYTLtpeK7w2r0SIPTAxJ4RiKSES5CkGHMu4CfnDxqn55h2cvWNjtKFvqTcGUQn1QV20g0OWQC63Mr5g0Pf5XUQDmfQ8CrQ53rXxpF0H/6ckceiIlfu6UgIiNIa4UpLsLnVYN7LMmcuZaisvnL4wIqXRvBAunbTEblDqntSM2N047HlSHIRd4WHDyihV1LOMOySNCkjplnPYJto1WTMu+3xuapSy5vfeJ8fOvLZwU/qoWSIZFqnGqX9Tm7uUNW2DHbs7rOg3ixP9imRb/LZzRiftx9V2X5K11dZjK1Rfzp+ziFwS0vw0RQIvEkHJ4uBsMLBqrA3CpDlr434bVBI958C5dpE1BlHehDAh1aR9pli9Aq/JjTwLIULhFga6fQZShEEpashaOww8Db61staXrAmRCfdaRQv1CiP3MdDqKWSCLMkNRIKEfOoyb7I2KGetjSHyLA9IoeK0NwN0YY6MOttNgj91izpX9zOMqCVUNwnh8NN+u2ipvP4/LQHnqClVFhSIf/tswa56xzspMtQoJXYY1tfXZE3OWt+w16DxSSHj4IXezWnJ/JFs3iZf9TPcJ5wNZ2ow0tZWsKNNiICwJ/VJuNO99beG23hTwfS39AQLGMpd37HdbieyhvhRz5GI+gzAQZgI14biROGMEG3bdkQesL9j3MmNs6gwBtoLrlmStcDMGGFDvVe41k71vuPX2ERe2UqpAdIi6hLKWpA1i5ph/dBF1tjJSftuGpu60vcmWVvpHlgl7xdOobQw5HZ0WX1NQy5I7Rwf0ocEUlvaZVKy1vUFg2EwjyJr2iynjHG2so2vAfTtOu2z8m9/JWDRyJrEewnQsRmhrTAOa68cI4ojZyIc2iYTi0LW1EOSsvGMqPVNVuYc5KIJCwmtt8kOx2qzAodst59wnWcb49RKYUAKUDyn79iJ6yi6cuPU2cKmrY4NI2vC/LGLTjiurXLNmqxZKOy1117lqBjtVedRXz+IsLF2uBa5HKZ+IXRwpTopFCXzOEhhGw+qJ9UQqVtOshZkDDnUh9pGQR+HbLjWLlY7TtvtmyVZC8yEP5E1/UjJGrSZqmvMGfv6AjlOsjbuLB9+fZK12eK5pp8mrCd5lwJFKeo63XsYAPXqzKSOZGI7wDjQRSJrdV2FY6gawh7O/WGMutS0qH/tePxbeMbOw7aB7iJrfVewowZaraxRDeV8jAqDCt9RRGzIkBPUdZDqoPcKzcktWSmyRpHpEwZFpoR2kG5qIFW3b+Fo60OQu+6jrDlrD97Im0UJdYiqY5xb8AzKhRpWj9gEg/Aja30SvuN5NVmbt7KmbQiRxHFkTbjPIiBOoB+krNU/92+J7bG7Ujvac0dOoxAbpV8xv5C16M/2PLKTNEKPFLiuL3b0HQdxzlqc7D9KWUPkKdbIGuVZ+G8QqWzXQTuMO+Q8jvSpr5lHzproghxN7w6y1tcuOcSafaTK2bSCdHflrKWy1ne0/d91SdbGx2zd3iGvJbZmC3VJfp2kmLxWXcJG9flAsyJrcXRH/W3QYfXsUtZqAyNUS64XckFKrOhnUQaRtS7nNO77JiFrQh5ChIhMhEFHKSLqBStkwq4/Sd+IXvtYgkXZYGCxoZ7UjTjeYVxs+14vp8ohuMLLNqlw0I6bkKs57gYEDp664hmcqbysUSUS2CMMqi/tuESE6jJrZQ1Zc0Bs5DBa7MTxKDFeBtW9TcqC2NZ4UUWRQUpTnHUo3UD+k9zMrgR05AHBpfhQ1pCnScu4ZM17LCQohUir3ZJdX2DoU582aZoHWVM/yhr1MnJ0h22GaJNHtlIY1LhjK+s+zTBon17uvibJ2uTYrbs7hVBMYuoBh0dlGvWR6zZIjI3kU0mo8k6shCVPd4VUJw2DzpqsUW2sFh26GZ+v6rvSHDZIFo2sWUXLA2JchTX7knGGXE6OYxHk53HObeVnUcgaEsqBGLcc+6gE50kmeT02EAu7+YTB5NUJLVvocNrjjCHHMsSOSuQvdrH2qV/kSzmTTL5dmyjMmqwZD3IDfe4szjyLHMY+4b8al1qFjJ8Ls8cmEeoNIiY/0O+Nwfb5aX4u94mSL99MiNZRIpOWccha1NkiQWQCkbQRoE/OYdRv2DiZJVmL99iEIWxOjXRGH5s3qt/iXnPKIlzKCEW3/R3XJGuTjroldXkJ5DMmvz3vXE8IWJVKHpUML0TG6VBSRk3kNkbCOJ7jDCaGVQ5Q1zMoWZzppIfijqOs2UAwaDcoVcQuNRI/Q6S+szjrZ7ly1vqGQeWqCC1ZUUsOpwb0IRSUlDgeQn/Jz2vv2BISo9rJ25KfOOzboMaCBQFyYoGgLhxsVxl1KG59DxLBWSCh2kjpCIVl3DE87rxHXhAKm0zMm/aBraOe5ww7hEf4r97lPKp/LIz0CbLHAQvNdqlXsRt0FhsMtMWGC/l98d3dcfKehmGB8LIdNnyYi5Qfizrv0jbhQn0cX2oIRcjfFppUSTioX3xHdty+H3eDgT5iM70fiaE4jUO2h+Hhub57O8tz1ixKqWPOhHPWHTsVO5u7sKrVTwSdmixky863z6NMsjZqpg/+fZK1ybFbd3dSCeSfyPlh6OR+2O1TT9Y+oDgNWwiDQxcWaq++4hmMcHxuyjleru1TxlXWnL2E0AwiawwsxUkekuNLrOwHkY0+9YtrFoms6UPEx85R+YTIqzBhnzAoIsFhuJ+CVn/HM9rqWZxsKC2DvkeoHv5YoSPy8oLa3watMRb+soGD+ulIhlGfm6IWqIcz04QVqVTt74aO04d9rtUeBNXBzpwddS/yHvsSBc9AXqkVCK8FjFzIUfdzuBwv8htn57XrPGtlzfOFgJ0rZvdl3yN0RmGJcMX3bm0WiG/5uk9/aqfxoH+lK8QXUSKE6igRpJnqi6wJB4/Cr6tO45C1INN2v1P2jFMLG7YsNipNUoeol7PMzD3pJNMe3RHElt11XIbQu5285i4SPGxh4HcW8/pcG0VOkFKlvi/J2qhRnmRtcoTyzg0TLoxwnMFjFW47OSPUtzAAknvtlqN8DfpmZ0zy+MoBAoZU9SmzJmuMDaKmvsgLZWbKtbwAACAASURBVK29Jb1PvdrXLBpZY6xt9BDelsjuYNNRpIKqBheG2S5SyfVdRFboyLEnsLSRIT7E3YUbguF8KU4R3vvvv38nAXQvx4Ls2/DiZHhhsWFFfbURqRQO5IjG2fVaP3uUqlVfi6AZMwgEotD16aBRY0iep7kTx1Q4UmGYo7e4cmCrkB9iR9Gz2FgOZc1YEvp1vtioU/5HtTt+D0N9LB/KQtG4Q1KiHyLn0uKKuuP99W7fOO4DfjaXjDovEcF1oG87v20SsqYNcRah3bHGQJ+vDYzCRsiS4moeWOBQGEeVYees6Tfjgzpuc4B0AZty4ribYc92nUNxbQyR59t1yHeStVG9k2RtcoTyzo3ImonM0Mj7iXPH5Dc5oiDy12LC105BzojE80jOZ2A8xzEgwxwOZ8O5O0SVE/fh5XZpJ79OStYiebudT+L59WeKkBGGn+PjDOrk51CG/MxqGilV5/q09HAucVCm1SsjJp9lXJVy0PBsbzBgyNvnvHXdKzRNqUKuYO5ohPhYeFwfdeQUkVjhKCqBvBwOtKsgDhQPBFDo3C4+6kg7cdxuxTjhHO5C4ZQ1eVeDirCmsaU/PHfYYbTq7vw7CoBwD3XFOKS21N/0dF38Xz2MXw7ReI2zv/yc45OjJ4eKk+r6rqy+QAyoeDZeuH6SBHPKJYVZ6EufUGck7sOwPYf0jetcT/GQYwpHdV8OsqavHMuDkMBbu51JFt8H9fs22Y3+FrptfyJOCoJnaUt8paA9HuSusS8OuZYLSwGvN1NQ+SjG7AjchE3l8dXqsTqpB6KGDFsEGCd1CbJG9TWv6sOj23Wq2+gwX2NVCNciCCGSuxj9EbYjPlfm/8a/cYfwdh0zo80+5I60Ca0i9F3fi63rNepQXNfC2dlu0hDYL3bAoqY+Hy5wM7eFl4VM7X6mYCLLXYWdYwfqLxgMs/+u0w9wzkNxM2ct6dgECHA8wl1IDKdrRSeUKMGcoeUUGF2GzqnpHAsnxQgI5whX9Tn6g8OhnHA+wmJWbgwsYypZ2gGTcSxANGPSc9YiDDoo+VeohVNmGBE2K25hWkcCxOGq8tuEgFwrT8jmCTslOYma7DBQ8yRr8JI/QoHQL33JmjpSm5ALISUknJqjD6gzMOJA7CrUpxQ1DsM11Kr2twDroaW/GOoIXVIaOAC7TxERzlVumzHl1H1KEPI1LAzq+XFgrMUCxY6iYgwinvGZnyD54TyNRW10/hYiof6ckzYiexyQdsmR0pd2DBtzHGx9xpmwpPCm0KQ5QHU2BzyDM0cykBSqD0XH35xan/By16JEqItTlrtm/miDd5qD2s+5qTMVyrvMNyolBbt9mHM9Hmf5BYOaiMFL6DJCZHC2k9WcNZYQWQsaBMYuRAQKOUHqY04Zb76Laaxpp3HXpUzqW3mX5qR7tBt5qY/JEI5G6IxB+AmdsxcWEIowuXebm/oOubIwm5Ss1ffpf/OQ3dBGCwaLGykBMbe0Qd/qQ3bTXBRW1O/a3lWQI2q/Ma7e8Qknz0Aszbn6cOE+ZM17vN9YlRbh3caaZ4moGN/su7ohx6IEFnhsDZszqK5J1iZwtv//lsxZmxy7dXVnOLn4O5K1OUaJpJyP0JmcJKEeKzCTmfrGGMeBslZJdhgxLLGCHLay8h5GwvcYXc+oUogYYytlK7h2OCO+YOBdHNaowkHUGwyG7dTSVqEYDpwB1NZaOWOEkQ2OmnGmJHAudah4OZQ1eHOScnTkoSEMo5S1um85LGE7hAUJ0Eb3+7e2cXaIAUdolxuSxLnWSlkX2XBsApLvGQw+J+UZxggn5R36zCqagmLFTllF0geV+P4lAqZ+nmkcIldW+kgfJxIkIv7WRrmI+st93k0diw+7G2OegVDoS2NEmLVWxSxGKIue5T5tklStTe4zRhF42CCd7dDcqLHZhaGxp2+QCe9UZ0TMv+GqTsahghjAr87faj9Tv5tfCBEnG5+bGifMO6xvkB3tNpYosOprPMWXB4wjZI4S7Z0IkvEaSj3CZy6zJ0JtNr4MIrvshWvYGNcgqXUIz/P1lYUfYqY+VKvYEGO8+KPvpGBYaFkczoKseYax6v1Iq4WCNgYe9bhTB+11fczfQZ9ZQr7MF38bZ6HWGXvGgcVj/a3evmRNfamQ8tfC3nk+vODGxpg7xnccGE1dH2ZnkqyNO+P/7/oka5Njt27vrI04A0wRYYAkmjO6Ji+nzfgwypwbAuRgWSrGuAm1nilvyaqYI2JIGQ05UJw/JaMuDCxVSwioz64rRtu5TRxs5DIN61xGlnJhRUm9gQFnzmAxqFQddaPUUD20v25z4GfbvR2JrpX83fegzD4Dj5Hn8OTcCGtylpSMUQ64/r2VMgUVYYK7fuUMKWEMNlWT0uj5fQsDTyVAyKgpnBKn7XlC45yYcGbkFVEmOQsOa1gRckNKhK04Ke3nNJzWT3UI5aT9DG0UxtcXxoFdotoYJEjfCZlxhtTF+oiZwIpDFA6mvmmT8aCdiJt2GZ/aIPQ17lE3g9psrlFpvFPfILuKPjb+hEkpSN5Zj6tB/a/95g2nTvGM3ZR9+3XUddRoSf/eo3/UV104fXNG/1C6LLTUucYZAZCvStGRFjFIIYw6RF4iMqvfELMad++16KJCISPqgzC6JrBjq0QAQt2r22fMWjxYiPrbPBhV6vQG/4YHEko5jv4LPIzbqIdxrx7DNiMYr+ao3ETEDLbsjWewQWxM/Sk/CxBkVv3ZVbgOs8kWZupq3ppnng9jdTI/pEvYUBCbtEbNU2fwmR+wGxVd8R55zha8wuAWFLO0k6P6bZF+n2RtkXpjldaFkbEK5KQYAM7L5OeEGV0rR/lYfT/t0wWDyU15CWLEKTEUEd6qjY0J7g8D1eedjJ3rlb47A7VZWxluJAY5QNYQGcaWAwoD2ZWb41rvRTz9e1ZOvMYucEA82t9YHDbU6hzACAcizPrV75AQbeQ0609v9SHhgQXsQnXSfmNEf9a5ferv/bAZFjaMZ1JmjBF1dZ8x55nDPvwcOUpImr6MNho37lcvDlsd2v1Yq83wDFXVeFB3TgVO8txgNooojzv99QXHqd5UwBi/8c4ay1HPrsdiV17bqPv7/B4m6qt/1BcecDVnwkbU4zTwGjSOu/Cs7zEGPK9tA2J8ey7iwqawX66Nca2/ho1n9ijIlbb3GfuBUdRR/eDh/TUexpt6GH/jzFtj2PiPseAZoVy3+6dd/1FtgJlxHWMtsA1VN8baIByCrHoPmxfY9cHNu9xT92Wf+/qMydV0TZK11dRbC17XQc6sXe1JnVZ936B/e1e9ip01ZPHe9qaGrjaGAZy0vbOu+zjPm3edRxEfxjgw7lMX1/jT3iTgZ/WOwS4MusbSMCIwLo6jHOE4zxt3LvXBrn7muNdPWvdB7xn2/vacG9VH9e8Rs3GIT5tYDcJ9EryG2a5B7+1j02p8xq3XqOtHvX/U/ZOOk7Dn65GctTFLsjbNKMp7E4FEIBFIBBKBRCARmDMCSdbmDHA+PhFIBBKBRCARSAQSgWkQSLI2DXp5byKQCCQCiUAikAgkAnNGIMnanAHOxycCiUAikAgkAolAIjANAknWpkEv700EEoFEIBFIBBKBRGDOCCRZmzPA+fhEIBFIBBKBRCARSASmQSDJ2jTo5b2JQCKQCCQCiUAikAjMGYEka3MGOB+fCCQCiUAikAgkAonANAgkWZsGvbw3EUgEEoFEIBFIBBKBOSOQZG3OAOfjE4FEIBFIBBKBRCARmAaBJGvToJf3JgKJQCKQCCQCiUAiMGcEkqzNGeB8fCKQCCQCiUAikAgkAtMgkGRtGvTy3kQgEUgEEoFEIBFIBOaMQJK1OQOcj08EEoFEIBFIBBKBRGAaBJKsTYNe3psIJAKJQCKQCCQCicCcEUiyNmeA8/GJQCKQCCQCiUAikAhMg0CStWnQy3sTgUQgEUgEEoFEIBGYMwJJ1uYMcD4+EUgEEoFEIBFIBBKBaRBIsjYNenlvIpAIJAKJQCKQCCQCc0YgydqcAc7HJwKJQCKQCCQCiUAiMA0CSdamQS/vTQQSgUQgEUgEEoFEYM4IJFmbM8D5+EQgEUgEEoFEIBFIBKZBIMnaNOjlvYlAIpAIJAKJQCKQCMwZgSRrcwY4H58IJAKJQCKQCCQCicA0CCRZmwa9vDcRSAQSgUQgEUgEEoE5I5Bkbc4A5+MTgUQgEUgEEoFEIBGYBoEka9Ogl/cmAolAIpAIJAKJQCIwZwSSrM0Z4Hx8IpAIJAKJQCKQCCQC0yCQZG0a9PLeRCARSAQSgUQgEUgE5oxAkrU5A5yPTwQSgUQgEUgEEoFEYBoEkqxNg17emwgkAolAIpAIJAKJwJwRSLI2Z4Dz8YlAIpAIJAKJQCKQCEyDQJK1adDLexOBRCARSAQSgUQgEZgzAknW5gxwPj4RSAQSgUQgEUgEEoFpEEiyNg16eW8ikAgkAolAIpAIJAJzRiDJ2pwBzscnAolAIpAIJAKJQCIwDQJJ1qZBL+9NBBKBRCARSAQSgURgzggkWZszwPn4RCARSAQSgUQgEUgEpkEgydo06OW9iUAikAgkAolAIpAIzBmBJGtzBjgfnwgkAolAIpAIJAKJwDQIJFmbBr28NxFIBBKBRCARSAQSgTkjkGRtzgDn4xOBRCARSAQSgUQgEZgGgSRr06CX9yYCiUAikAhshMAZZ5xR/r/JJpskMolAIjAjBBaGrOUEn1GPrvLHxDhIY7/KO3KFq78o9mQ1judp6zzt/Ss8dPL1icBCIrAwZG0h0clKLQwCi+J8FwaQrEgisAoQMG9TYVsFHZVVXHgEFoasHX/88c0vfvGL5mc/+1lz+OGHN6eddlpzjnOco7nkJS/ZXPWqV23Oe97zlknvz3o1AGu13UHEjjnmmOaUU05pNttss2aHHXYokyd+d+yxx5bfneUsZ2m22267deEA1mp/z8sqBl6nnnpqc/TRR5exs8022zRbbrnlvF7Z+dyox4knntgcd9xxZawas2c961mXtR7TvOzkk09uzEdtOdvZzjZW3d1rvipbb731suM/Tbvz3kRgURFYcbLGoH34wx9unve85zU//vGPO3FicO93v/s1j3vc45pLXOIS5Zr1slqrHfbpp5/eHHHEEc222267gcws6sAap17axand6U53ag499NDmIhe5SPOHP/xhA1n7z3/+09z5znduvvSlLzXXv/71mw9+8IPNOc95zjVF2vUzkvHb3/62udSlLlVIaZK1cUbR/4g9u2Cc3PrWt24sAN/0pjc1e+yxx4pg+ZKXvKTZa6+9yrs/9rGPNbe5zW3Ga9AKXv3617++edjDHlZqwD7f/va3712bL3/5y80tbnGL5oQTTmhe/OIXN49//OPXjb3uDVJemAiMicCKkrW//vWvzdOf/vTmXe96VzGsHNTZz372DUQEkeOoY3V66Utfutl///2bO9zhDs2mm266rgzAv/71r+aggw5q3vKWtzRvfvObm2te85oNkgOH1V44M32MkH32s59tLnzhCzd//OMfNzTr3//+9waydr3rXa+QtXOd61yrvdkb1f/rX/9689rXvrb5+9//3nzoQx8qilCW8REwlr7yla80t7rVrcqYesMb3tA8+MEPHv9BM7gDUdl7770LWfv4xz9eCORqKdOQtS9+8YuFrJ100knNi170ouYJT3jCurLVq6WPs56rC4FlJ2sR1iKVU8oYBaTjghe8YPPkJz+5ucY1rtGc//znLyiS0n/96183b3zjG8vKVBFO+MhHPtLc8IY3HBvp1Zj3FGrB+973vuY+97lPUV+++c1vFpzWUtHXg8jakUceWdSR7373u83Vr371QlaR+nGVp0VMfI42XPva126+9a1vNbvuumshrMJH47Zv3PEwCR71Pd63aAo3W/LVr351Rcla9Bui+KxnPaux6Hzve9/b3OhGNxq3i1bs+mnI2ne+853m7ne/e7Hf2v/Qhz504cbJigGbL04EJkRgRcgaA/+DH/ygKGTy0zhgxuxiF7tYZzMQFJP+hS98YYPk3e52t2ve9ra3FeKm9HVqw67r64RmQfgmeYb23ve+9y1Gj1NH1iZ5zoTjZOzbxq3bMLLW9fK+/TVuxcet97jPH3T9Va5ylZIGcJ3rXGfZyFpdlz54tq9ZNLKmfv7Mg6yNMy6iHpFjO6sxMs1zxiXmfcjaJONh3HpM0+a8NxFYSwgsK1mrydLb3/72suKSNI6EPfrRjy4hvfqa+t///Oc/S94EVUlO0yc+8Ynm8pe//Fh9MY7BHevBy3DxO9/5zube9753IWvf+973mqtd7WrL8Nble8UkZG3RVJ1p0LKJ5kc/+lFDYZO3t9VWW03zuM57+y5qZv7iZXrgPMnaOE1YzXYm2tmHrI2DSV6bCCQC0yGwYmRNiGDPPfcs5EMSsBDfsILUPfWpT21e85rXlBCY/C1hhaOOOqr505/+VEKpwqfnPve5z6S0UeZ+//vfl91Nwks2KdQ7s8KJIYR/+ctfym5EKp9EfiV+b4eqkIbr7DZT7Fj1x46zUStpz4mdUvKw5OnFTjHPULfNN998Ixi8R/uEfrXf9VS2K13pSqVe/p5l3ppnwhpW2qmOsJIjZofmFltsMbKd7pcvJHz53//+t9RT27Rx++23L21sE61hZA3u0X/UVH2jzXDR/+rnZ8N2/XnGz3/+8xJG1pYLXOACG3ALJ69v1Nkf1/u5+rres71zFljXpMlGCmPKQkTIH2njKL3PJgr1VJc6RzP6Rx6j/nGtOga2XfOoJhCeJ58IdvoHJn5vXvmDKJoD7WJM2AABb/mj6iTHzjjRL+c73/nKvTEPvAemron5IhfPHDUe5KjW82s6U/a/u7WjzlmTQvGgBz2ojGlzzh/1in5Vj2F9GuNAH7nXOIWXMewZ+ijmRFs10m4bghS72mEUfQ9Hc8Qud39gazz7PRzH3YE5CLt6PquPuusffWA+a0d7kexZNVmTQ2l81nPWc+SVagPbq22x+cvGAu3z7h133LGMzbhXnrJ6xPXuNRb/8Y9/FAzUJWxN2Oi1tCibxRjPZ6xPBJaVrNUQIxyUNcb8UY96VFHXTM5BE9Ok5rBNdgY/jN83vvGN5iY3uUlxWg984AML8WsrCIyKaxgQuXGf/vSnmytc4QpnchTI4wEHHFCMGJVDonsUJO6tb31r88lPfrL5zW9+UzY+qBNDS+FjzORp+H9X4aw++tGPFtKFNAj/xvZ2hlm9dtppp9IGobBwZO95z3uKosZpKHF0iX/Di8PmNGZVODqbGIRaEYnY+MHoXuYylymha/WBURtnfel+G0a+//3vlzbCyXUIBTINd+FcCeAcZZRhZK3eYGA36Ac+8IFCKoyZpzzlKcVZwkkfDFKPvvCFLzQ3v/nNi9O2S0++ZO1AKJdyxfStMcY5Iyyc8YUudKHmZje7WcmbM+6mLXUd1cl7oy61w3/iE59YErTr6+20M3eE+v785z+XMcThIqtXvvKVSzI9jGBSlyCkhx12WPOOd7yjkQT+u9/9rjhO/aboY89RJ7uvKdh1MW9uectbFjJhLHPiFHIkw3iwcPB/8wbhRZQo4L/85S83kCTXea4xbhzYKDNLZ9xF1nbeeeeyyIOdMa29+tW8vetd77phPLdJm/lNyTee2RntNN/8HL7w8oy73e1uzV3ucpcynuu21LtBY4NBLNjk3Homm2PcPvOZz2y+/e1vl76+6EUv2jziEY8odnGajVTqaWes+UyNj/nMbqj7ZS972ZJSYqHMBtWli6yF/fG3HaLqaK7YvWxzzI1vfOPyCDbAfDGH2rtB3ePaXXbZpTEnzbuDDz642ETz3Jwz3/SZ3ajGctjCaedd3p8IrGYEVoys/fCHPyyOH5GyGkfcGK6LX/ziZ8KzVgVqx+Xf1AEKm+dxVpwYRaw2mpwMoxyOjbNiXKN4DlLCQPzqV78q17773e/esOJG3O51r3sVR87ZKwgSw8IpKYw3A4VIMIZ1PREt5EBivPf4nesRDiTOz8IQMlTvf//7N2wg4Mj33Xff5m9/+9uG4ywQnlA/Pv/5z29EeqYZjLC7xz3uUQxwOCTOVf2sehWki1FWx7aSxTlT/zi06LPznOc8ZeVMwYliVf3yl7+8kJ8ofclavRtUjhclyrv0mbxHpU3Y/N+xIByMVTsHTAXwcwsAzsrmhehb48cfRDOIDIdxuctdroQotWmaUtePQ0aMnS9IkbAQoVoZM4i79ACFkhH4wlL/GGfGkHr6veL/dlgbb+2CnOlf+aL19caxPoviuUiZhUVdgqwhOsK1/q8tFFPKiNxTu1o5aUTMwgZ+5mKoOMihgoQgDAjfLDfLqI9xrP7GrXGhThQumOl/cy761Tx8yEMe0jz/+c/foApGm41xvwu8jQFt9Y56jJuL8Ea4amIxjKyxWeplLiFRSHQob+YCEnPPe95z7GGmjaFswoHdQupjweQdcKGIKdoPKwvRmrC1w6BIXdhUNsecYSeMNzbvBje4wYbf12QtdoN6l/sf+chHFuKsz5Fcti3UYe+P8eF6pNXGKuMqSyKw3hFYMbLGoMemgVCNOAErbqSHY7RC9zOTuEuqD6f3pCc9qXnBC15QDA/F4FrXutZGZI364hy3MBhI4Ste8Yry/yAVX/va18oqjuNyNMRtb3vb8nsGaffdd28+97nPFYKGYIbCwvj89Kc/LSEDK2cOgAE68MADN4RQPYPBoVRoM/XMVnbOTn0RGateip6VpkKhQyjVhVNFIhhv4RzvRBisTP2c8Z1FaI6zZbQpYggjTDkSbfYeKsBzn/vc0l4OgbrDEYRjoFoy2BRI/cZ52b7vfhj7PbKBUGkTQkJJiANuJyFrsLODlHrDCXN+VvntgoDbZYlYUwWpP4p6OAOK8+Bk9a2VP3XJ/zn1Qw45pHnpS19aSJ0Cg3322WdkKLivYUHQ9B/n9ZOf/KSMXSQJAUCGIyyujfe///2L+kDdMxYoYJRc2Bk7L3vZy8rB0siWNsImlJkgUAiIcaXvEBEql/8jJN4LC4qon/l/fdxEkLWYi7vttluz3377FcVVCBdmcPYMJFT9kSXv4XgjdI0YSGPQdvPgM5/5zEbzpS927etCPaw3GBifxmC0F16IijmOTAnhUny11WItCqWHDUBwkUrtoYAha8Y/ggVj89I48Qzk1EaRKMYNdVS99B81WWEnKGvGq/ohPOYbIm2u6Uv/nub4FgTewkY7Yj6LLphv5g2MjBfEnR2iblnABiFrK2vmhnbrK/YPqTJ2LEDbO/MpmMamMddWseH46le/esMC09hhj9XVAomdYMvhBTe2EM6prk06K/K+tYLAipE1E5GDeOUrX1mISr1SDQNGwWAQODIGgSPgxNrKCVXNNZyviR5nG4Vh5BAYJc+i5HmO1SEjFQaeAybZIxGICaOsvOpVryoGl4FFLjn3MKJRDySAmvG6172uPA/RYmS0QxsRUMqJ8BGHRwGMEsaRU3AdBY0KgRzEKf6u9UyrWderH6c+y8LAImsMOSJrBazUWNuSf8c73rE4uAc84AFFHYMhsi1kgaT6PwOu/TWJVG8qqJ9TC12nD/SN0kXW4t3DzlmDJyeqfzifxzzmMRsRdc/gHDgEY0f4jtNSOFwEXXiL0gFjfRQl3s95Ih3qwaEJK0U+46z6oN4NiiDWGwyMa8QXXnLYvB+RrtVjdaX8WixQgoUkHXeDOLvOvciC/qUy6qNQUmLBwhkjUrEooI75f5Qga/5vbvp/e6MLlcTCBCk0zyhnro3wvb+RNO9AdJDsT33qUzNRT7rIGidP3UEY67A7UuTMxuc85zlljFtI1EovW+AoIcSXTUEy6lC1f+uXxz72sSWs59kIKGyjGI8WZp6PyJlfindb2CBrigUCUjPLLy0If3oH0s0uwbs9n40JixfETjtg4XrztmuDAbtjwYCYU6ZdE6HPeh4MI2uRagI/z7B4o47XY5ktRPYQN/MRToNOCpjV/MvnJAKLjsCKkbXaISJbVqHUKasxjjccSPzNiDA+DKA8kTqXw/WkcsqEaziRIGLyZVxv0iNx/jCsQk9yNpSaDFjRciKMB8eGFHF+csoQvvow1prIIFeMMRXHKt4GCqQOEUAE3esEc45jUBH2EH5VkFeEMYxYfXRHkLU2aZ1msCFQVs+R08WB1KtZ74IzpwNbodjI6YMTQiu8aOWO3ETdwoEGcUOcOD7PRpzCgU1K1jhMeU/GEOKFoMSRLvDwXP3h564zxiRXK8aLvqE+UF/le7UJkP97BhWJ6siJ6KOaSE+De9xb7wZF1mpiQfWlPMBSfYXs2gciB95ImL5DMvwbyQyyYO5whDCod1LX40jIzMLHosF4jfMN1bMma4gf9aMu8SUKhBwBM3coWJQpONZ1pgCaV9IeLF5mQVS6yBoF2nyJEnVwLRJw05vetJBHxIxqGsVCRD8b25TxQbmKQoCxiEL4kJ8ow8iaxad+hYuwoUVLTWgnHVPRPvM0VFFkTUi9/ipG9JV+ojxGJMN71aOtrFFG9XmEPvUrW9tVarLWzll7+MMfXsijghxKm7DYa29oQa7hydawJ4h/lkRgPSOw4mQtwEcEhNA4XX8Yc3+QoPiCAQMr3GCCMz51EjUlyAoXqeLsyOtKGB3G0CofyUCEkJ/YgcoJy8mgGDHS8ZkVYTqKC7WAw5dfwcgpQSKj/hw61U14gbPj5CK3CaHwew60S5FhrBBGq1sOwrP7kLVZDlzKn7YKhyK2FBqrZjgiZbXSUxOxIDfaoJ/8XROZcEDqKlzEACPMjDPSgPwok5I1/YHA6DchrnY4S9iW8kZF0z/UlHojC0etfwd9Q1LfITjGCmWRwqWP2gnZ0/YFwoI8ckrGbx0CE1LWPoUS4doYh+33Gsvy3Ki9T3va00oeVRTtRD70Tzt0rk8RdXgh7RYZcJPnFyXImj41F/ypi2fAi5pEkYazMUVtohwiPNIa5lnUQg1wywAAIABJREFUod4NCjsLwa6FjQXUda973dL/FhDqHEU7jA14CVMGmaif4z4LO+8w7oeRtToMCme4sBWUUmRSqHKWiy+2kx0yJy1OjF/vtED1rvYGlHaf1GQNkbWYk65h3NvME/O2qy/7kDV4IpTIslIvkvzfPDV+FWkfXQrePMdRPjsRWDQEVoys1WSnPVE5ovgIMqODZDGKiISCkAmz1KFAv7caYwTs3rIKRACROuEtBIwxNumFCIR4hC2U2JlqhUntocAojBKlTUGyKDbhJNt19n/hBMZdKJVjsxpVwgi7hlGPIxPI/JyjFTZFzv9DVVxusqZeFJswkJw5gsZRWXUzzgitNo36ILX2ImbaSanRRkqmDQHaiZhZ5U9L1gJX6gBVMj5vw/FGETKME9T17TAnwzkLWyPOQoqcOYJGnUVeIhw5D7ImbAmnmqxF+6hqHLtiAWCMtxcL0V5EAO76k1JIxejK9+TE9ZFxRllEFI1Di6M4Cqcma94nX4kS6v3CowhAF8HwLHmn1DkFMTCWqGjmllw6f8cu5lmSlJqsIVOImkXQMLKm3y32arJWG2r3whRmSL8woIVcjGe/08Y+ZC0ILTuEVMphRW6myU/rcirslDxdOYXGrTFArUXUETb5eGyk+dyVD1aTNffBSPEcmMbGl6539yFr6qH9V7ziFTt9YpA1tsbYD5vceXH+MBFYBwisCFmLVTyHwlDUxqJNgqIPEBkGInagxSaBuF5IBZmw60v+GNJBqfMzzoghRuaEiDgwYSerRWFNRI5xEkq12rP6Z5QkSjPi3iHRu2+Sq9WyMEF9PAhH7GeIorZwiFG8i7H2d+yaXG6ypi76Q+4M8sppM9C1gqOOwjdCPQx9+8gQiekIGPLEoVGkYtchDIW6GH6kdlbKmnpLdqZ4UWQRDDjDUt2F8owZDkrYqx2+5ICpUQhYHG9Q70jT54i6xYM/81LWarJGSYjPTSHvVGF1hGEcDzGIrNU2i6KFVAVZ01YOUlgP0TAO6126HKMFCTLtvYOUNX0Hr3pHddtW2l1LefM3lS922sZ12itMZzEld2nQvB/XBrfJmnk96Nugoax1kTXPEfJjI4xpyrPxXe/cZhOQUKR3FFnzjNhgAAtkDQmx4ERu2ucrjtvuruvNPcfbWMgime35rK+FMm2gsoip53OQtRg71HXzyeLLfYh7LJbbfTeMrMXRHWyk9ssj7ur7IGtsjkVEvXFjFtjkMxKB1YbAspK1cDCcuHwOE59y5U+f1TWVQ3I442jnFrUmwhOcjtUiZ8RJcSYcnIR4jkc4R8iD0oKAcdoMKKfhWdQAO7IYiQgRCasyLoyJUFskpuvkQcqgnyMlyGCEPJEH92t3kB8kkaESkkDqKCrUwkjoXm6yFu1h4BFJ5BKxFKJBdmunzoBSr57xjGdsOO7ANZKYEZ44FiHOj2OYqXM2UHB4e+2110zJmrrLf1EfeX6cMOcSYUUkRe5MJHuHc9BW9yHlQuChHOgTddY/+pH6gfwbb/Mma4hZ5KxpFwLNKRrLFhHOEaxz8toGpx6XwsKUC+1FNIWfOW7KoYKcUan90VaLFbtpLYSM1UE5a+Yc1ZlCNuj93omkUVLNW8nsyDTSUC9SzD8K9yycsbb7E7tBEatJyZp6w4E9gZ2CKMPJ2ED+4UVVMzb0k76RLhGFjZPLac5Li4CnYn4ISSIhQpXqOyuy1ibxiCE7ay7oA/PTv+OQYvUxnoRypZdEPWplDZm2wHWPzSPIPOKp34zJcchaHN0hj9HiKcnaaqMMWd+VQmDZyZqJbZIK7TBiwldxlMKoIyiEuRgOipkEaepAnUvCWXO+HDXyIL9HCIzztdpjZL0bgWPIGRv5WUiYulA0EIowPpKHI0E7Eru7OqpNNOv/qwcJH2FgCCVfIzXyd+K0+HgmQy+Eqyw3WRs0AGGOvEnypbhxvJwXB0+FRAYYcQn40R8wFHriiKzW63PvbLzQJ7MIg9Z1FqpEeDlPY8CGAeQESZPnKGyl/+tCcTMWtEd4kSPxf44EmQ8llXOiQHB0y03WjEUqDEfr3xTLQcnu4ahj/MY49Ldd1/pE0VbE1eLGogHBjXmETEvKpypRpeuz1iJnbRhZG2bIkEREAWEUkg6CrC6RSziNIZwVWfMcu53ZBzYJHvIdkTPjos5XlKIRmwoWgayNws8CBWG2ELMBhfKJPApRG2Oxacg8jdxdC1y7QClzcGFXKYryKLtUy2HKWpK1UT2Uv08EuhFYEbLmgFUrao5B8qszzOrchUEqG9JA5UBk7Pxzplq9qgsjYZXr30ig3YeUOwaH4mWVyeFy7ggYkiZXi4JCOUGo4v2IFgKAjHgvwtL1tQDXc/gMoHcjh5Qkhl5Y0Xs4fuRBaKhrFc2IcgbCuQpHVu887doNOqtBHSEfRpwagkh3tZOx5lituqkylEBqAdIWO0k5eOogItou3oMwIA6woWxOuxs03gF3xF+Ij0pDzUSMOSMkWN5iXfQ7sqLuxhCSLKzXlUgu98o4gI+EaM5q1rtBIwxaf8g96muXItVDodYE6fL/eq74tzQAaijFA6kzFs0X/WR8U9vqvMwaE/cj4/qfAw+yFu/oQ9aMEYTSXJUPRTXuCnMhBgiA69QN/oOOQ+mjukc7pg2Dut9i0FwUDjeWELJBR0c4dkh/mNNdOWvLrazBwdjWBuPVQkPqQtduW3ZN3dlG454dtuhSBn0b1I5vcz3OWbNxItI9og9qshaH4sYYSLI2K6udz1lvCCw7WQOwiRuHI3LawilWsfUZam0DjcxIbI2t3vVutLgWCRRGEsIj61PROCiETTiTEeOEJEZTzTgluVkMm1CGc9RqB+h6ioowhTrHQbBtB+l38UUGJEuIw7Xa49wvhg/5kedhld5VEE9EIHK8EEWhljByQdbcK3wS55PNYsAiOlTJOKwSGREybjty/xcOkTuo31wnrwn5gje8AuvaeUafc8zUNhtFYGhlb6WuTLobtK6jUHdsCEFw/EEejK12fpVxgLhQ4oS3KEmDPttFZTB+4EQlrXf6zgJ/z7BYkReFJCAytRppk41QqPEtTCmPqr15JephDDsXDHmgVqk38oQUC212LXLiXu1DLmLnKeJogRIbSvqQNXU1n51niCwLMSMK7flsoWbsWJyom7DqIpA1WLAbxr86U83MvRjD9bg2Ny38zGtkp514P00YtFZFvWccwmpsWyA699CYtiCpz3asbZyFqt2e3iGywHYpXYfi+nksbmPxQPVlS2u1McnarKxCPicR+D8EVoysCZlxrBQuhoKRkCPCqESCPzWKg+JIOWKHtUpOFwKloFCv2kW4gpGk7AjhBZGiMoTBs9kA4fB85Mi1iEeEQ90TJIn6w2BbhSJPiAmiFLu3GEaJ2pwiZQ2JcY3zhLyP42TY/Fz7hOhqp6SO8pEoVvV5UPKu4lNK6kIpihwhScNWqBxEbMH3LgpQfAxZyK8+bmPUoKe26A/kRuI3x0NNCEfNkXP62qWdwiU2EugLGMkTlB8DQ86tPlzWvT6no+3UzgjXyQmMUMu0ZM0zEQAqDaIrrIOI25krlNf+sgGnI++Go1UQMjuEazxhiaBos3GnyG/U3rp9xgalQR04rTgEdhTm9e+RMaFaIUl5Uupfb76RiI90Ggv6yS4/fWAM+BnSqS0WB8iw8W7OUD38n4oYz48z5+oNM+43B+RtxifUjHPE0RgwfvuQNTiZL65FhpE1Dr125vDSFvNCeoAcxmc/+9kbxhqVmgJu3MQH4kelSNQkKo7umDRnzaICaYYbEi3/td4spF4UTKSWLYmPo8eZYlGXacia8Wk+mxfarq/75LXF3NKXlGb/p4SxGfLD4hmeLyTNbsWXP+RKxvdgI11BWyiLnhElPuNl/psvcJDaEap0m6yxydF/qayNYxXy2kRghchaDTwDhyBQZBjHcHTCNvLSYtcbokbOt1JnYISfhB6s2sNR1c9FJOxsCqLGuZLu60N0qW1IBUfhvUId6hL5GmHwOEHXxGexvIcDojggUgyfIx5ih6ffO5+M+qSe7pfnhIhyUNqEIHBewr+MsTAd9cK/EQqqoBLqWRBMdbbahxui4N+exyFw8EijFbKwBDKI2MZBm30GPKfA4FI44KoulEd/q4M+4AQpJ5wVp07dZKyF2eAZOWtChkJoyB7Co43USffqW32JFDLyyIUy6HNT3o0AIKqcgHYjrnWI2P2hmnoeRxNqhIRoKkHXuVLIDJWV84GpOns+ckKF4sT8UTf9xUEbK8iOnL3oG/9HOBSEj6rRPuRzVB/AnhKiUF+NxfigumcZF07YF6ZEspBQdUXqjFHjzJixEQRJp3Da5efaOMYhjmXxbLl5CAlcKHqeq48sQoL4mzsU31hcIIOUpEE5azFv4Gp+Iu8WXoioLx0Yp4ighYh3qSuFEPmtQ2naoq3GCCXQWO57tEUdBoWLsdCVV+U6anjXOWvGN+yQNG2lpmo3zLVJ/dTfIgsx1w72xmLEHIxifFMqPS/OWfPe+NyUxZlne1b7e8LqzjayLeyMMd/1KbVB48r9xmLsjLawNS+1QR0sZGJOmivGhjzPWJwNI2veGV8/YLdiwRah4mFfMAiyZr5pfyjEdTvUjyquTlRZ9aw/BTZqLuXvE4G1iMCyKmtdAFJrrO6QkdhaHkY/rg8FierGcDNwg8ICyJ0znoL0MJbyJurrGTIOMa6RO0PlqfM66usZaIeLcoAcN+NbE7o4egOhENprFytT6gxSE99BdQ0jyZky+HJHtAuxc413uScUPthwsEIVnG+8H26crjoKKcr94RSRrnr3ap/By5FScDhl6kb74FX9wHHDq60Q2j1HXUNeEco2PsIx8BGaQ3gYeQ4Z7jBAmKJ9CDuVTKnJGscVH3Lv2oXmeiGZCHnCTlsCh3bulHpyUOrg/XV7XYvIcEBUCaSF2qhulDptiOdJmI8DlimkQkt9yVqMM23TfgpXYGccGzvxNQPqJCUyPpberi8cKapUqqhP9DuC4N44lb++1/hFCBAmCw1jT96hBQeijWAr9aG4lJthR3fIg6KcGfP1eIhx733y9CTlt3eCIp1Co4g+RYdS2/fzXn3JmnogXcigucUGWQRGMZ4pU2xEu/76Vp9YdFHobZgx7s0L8z/GBaUtSHxN1uJzU/Elkji6o54z2k5BFcJEvtW1K5IwbF4jkRYrFLP2fFbHsFsWCpTaepfxoDBovA85je/qepaxQDXXr9pj7Ma5h7WyFl8wQNYsouNzaO121IfiCvvH4bl97FhekwisRQRWnKwBlerEcFmpCily5IwL44V4WLlZWVG0KCpdRC0MHcNronseo4qsdR2EyjhxkApDbddnXep3xLM5LoaDQiTshVQhDcKjEnMpWQwr48UZRjjV/UJQDDb1iSFWqDMUOobIM+CgLp4tV456xfiF8UdsOVHKBOfrHXLNJBBzAEiFpH9EZxKypk4MPKUPIUAOkAdGPQ7H5aC0s+vMOQ4LkdGPQkjqh4hyytqjDxFixluukl2XlEGqFbKEOMEHpsLcCuzgop3CNsJSyMigLwggnIiKcUAFlfRNlelKcvd85JtKILna2ONgYB4HuMIWQUNUkDUFIavHlPuNJyTD7xxG2pesxZjTfxQ6SojxDzvEC3EKJ6oNsFBXagP1z1jyc9fCN06p73q/thqDxr2+9U7j1VcqYqGgL1xDFYI9whV5TBYGoRpSVRGddol54299bCzpU4uoeB8HTW0z7u3UbRf3ITnayOkjAeOQNe8zd8wRiyAh4C6bYbxKTYgz5ULlhb0xTwGGBVsirxXOMQ+MC6qcNhmbxjyVCNkNFdccpFDFgdORr4r8IXnsCLUMSYyNTbDwHvOBHRNqlCoyCVnzLKq0hYb5bLyY355vbgiV6wOKW4yXaLt5HLmLIgsWSe3CziBfQQQt4Nho+JsH2onIUlmjXTZcUVLhKESOtHX1jTC5j8vDzryzwStLIrCeEVgIshYdwFAwfiZorPwZEYZsHOfH4XpOqCP1N/HiXXGN/yMQgw68bRsSdYs6+l1dv0FqX5COCNWFuibkEPlAcW8oPJ6rXjXJcI171T0IJMcQdfdzjpgiEDl4kw5uhjbaGavwUf2gTv5wfqE+qpv76lP06/5BFuJ3jL77vK8Oe3lm/K4Ll3Ybawz75u1pqz/hrPSLukc41c9jAaE9de6P3zmWAvFAMjjZccZr1F87YRPYxVckuoimuuqjmCeB8yBSWr8j2up93hHjMK7x/mir8VXnLcZJ9sPmTN0fMadDnfK+qOugsen9CCtCTNWzk7cvWfPMQfVvv0/d4pBbbewKlcd4jkN9u+xRPZ5DBdUP7vE7xTisxwQc1dPPusZojAVEUQ7pJGSttkft+ey92jxonNZ1H9bXtSId80K7YpzU4wcOgZVx4LmDchHZkDivsY3dpDYt70sEVjMCC0XWZglkmzgNI1LTvjeIUzxnlMMc533j1JvzkethdU+lkSe0iKXGq41Vn/aOumbY82eJR7xHG6hq1EMhUMrhPMZCXfeu8e3344y9QTiOwndaDGvcBj1LPhkV17Er1Jg+yfU1Ie2LxazaOulzRvUBtYo6LLQYyf/T4j/L+0fVf9J3TYrnpO/L+xKBRUdgTZK1Ps5g2o6ZlzGZ9LnuEzaSGC2HTbL6LD42Pm8sBz2/C4d512XYmBj2biqQcI8woRw5OViT9mO7DsOeM+07pr1/nDkU7+rzTqFdZxIKg8nZirO/xnnfuNd29e88x9uoZ1t4IWhCiEKVFmDDwvnjtndW19cLozZB7tPXk865WdU/n5MIrBYEFo6sTTvBu4Cf5TNrIzvK4E46CPrUt/1uYQshOHldVuJyrtZi6YPNPNvd9X45OHYByq2JROhJ69n3vr7XTYLFvJ5dE7ZhypecNRtd7IaMrwNM0o553zMIp/rnNZlppzQMU0GFF7XfMTTCwLFTfdI2Tdqnfdo4inCNo/bO235Pil/elwisNAILR9ZWGpDV+H4G1R+bAeQDDTrcdTW2bZHrHI5Mfg7sbZjIMj0Ccp4cLm1zSt/z1aZ/62I9gbJmk458LQr5pGRrsVqVtUkEEoFJEUiyNilyC3pfvQt1Qau45qqVjnS+Xboe8a3bHJte5otyPj0RSAQWGYEka4vcO1m3RCARSAQSgUQgEVj3CCRZW/dDIAFIBBKBRCARSAQSgUVGIMnaIvdO1i0RSAQSgUQgEUgE1j0CSdbW/RBIABKBRCARSAQSgURgkRFIsrbIvZN1SwQSgUQgEUgEEoF1j0CStXU/BBKARCARSAQSgUQgEVhkBJKsLXLvZN0SgUQgEUgEEoFEYN0jkGRt3Q+BBCARSAQSgUQgEUgEFhmBJGuL3DtZt0QgEUgEEoFEIBFY9wgkWVv3QyABSAQSgUQgEUgEEoFFRiDJ2iL3TtYtEUgEEoFEIBFIBNY9AknW1v0QSAASgUQgEUgEEoFEYJERSLK2yL2TdUsEEoFEIBFIBBKBdY9AkrV1PwQSgEQgEUgEEoFEIBFYZASSrC1y72TdEoFEIBFIBBKBRGDdI5Bkbd0PgQQgEUgEEoFEIBFIBBYZgSRri9w7WbdEIBFIBBKBRCARWPcIJFlb90MgAUgEEoFEIBFIBBKBRUYgydoi907WLRFIBBKBRCARSATWPQJJ1tb9EEgAEoFEIBFIBBKBRGCREUiytsi9k3VLBBKBRCARSAQSgXWPQJK1dT8EEoBEIBFIBBKBRCARWGQEkqwtcu9k3RKBRCARSAQSgURg3SOQZG3dD4EEoAuBM844o9lkk00SnEQgEUgEEoFEYMURSLK24l2QFUgEEoFEIBFIBBKBRGAwAknWFmB0TKriTHrfSjX5xBNPbI466qjm5JNPbjbffPNm6623brbddttm0003XakqbfTe0047rdTvhBNOKD/faqutmu23374561nPuhD1y0qsHgRW29xcPchmTROB9YlAkrUF6PfTTz+9+cc//tG8+c1vbhCaS13qUs29733vkSTGfYjFe9/73uaPf/xjc+5zn7vZY489CslYtPKDH/ygeeUrX9l85zvfaU455ZRmyy23bK5ylas0r3jFK5qzn/3sE1eXU/zhD3/YfPSjHy2k6o53vGNzuctdbuznIWmvfvWrm0996lPNv/71rxICvcAFLtA897nPba55zWuO/byVuAEWirr/5Cc/ad73vveV/9/pTndqrnrVq5Z/r1cSod3f+MY3mk9/+tMFnwc+8IHNhS984Zl106LjWo+NaHS7zhZRBx54YHPEEUc0F73oRZv73ve+uVCZ2QjJByUC0yGQZG06/GZ2949+9KNmp512ahCwG9zgBs0hhxzSnOUsZxn5/L///e/N7W9/++Zb3/pWc4UrXKH50pe+1JzznOdcKKf83e9+t7nDHe7Q/OUvf9lAJjiKq1/96s3nPve5ol5NWjznDW94Q/PYxz62kFuE9+53v/tYj+OkHvawhzUHHXRQwT8Iz7nOda7mwx/+cHPta197rOet5MXqj4y84x3vaHbfffdSlbe85S3N/e9//5Ws1kK8+wUveEHzpCc9qdTlC1/4Qpln8JqVsutZiP573vOeZrfddmuufOUrL0S7a3JmMfiVr3ylkPknPOEJG9Xv2GOPba5xjWs0v/zlLwu5/+pXv9pss802C9WGrEwisF4RSLK2ID3/05/+tCg4lLKb3vSmzSc/+cleZI0iR036+te/XpwDJ3SOc5xjQVrVNCeddFJzv/vdrzgwZZdddinkB6G4zGUuU0jENGFGZA1B23PPPYvTRUzuete7jtV+BPdmN7tZCc/usMMOBc8dd9yxhGof9KAHFYVttRVk7T73uU+p9tve9rby70VXf+aN8Qtf+MJmn332Ka/54he/WAjVLMv3v//95lGPelRj4fXxj3+8ueENbzjLx0/9LHNx7733bt71rnc1u+66a/ORj3xko2cec8wxZX7+/Oc/L2QNqZOmkCURSARWHoEkayvfB8WJ/uxnP9tA1hCHT3ziE81mm202ckciZQ25EOJZRLL2n//8p7nRjW5UHNjFL37xBikVAo0y7Y7LWZC1l7zkJc0Tn/jEUqWXvexlzWMe85iZ1W+lhlebrAmrK9PivVLtmcV7a2Vt1mTNOHz3u99dSDGMDz300KLcLUpRv6OPPrqQsD/84Q9F6f7gBz+40XiwWPnMZz5T8jalVFg0skFZEoFEYOURSLK28n2wpsnan/70p6Ja/epXv2pufetbl9V8hJ268mjG7Y5ZkDUhVLlzNjxQ2YRnV7sKlWTtzCNp3mRN7ui97nWvhSZrV7va1Zrf//73ZYH3gQ984EzkfbWP+3HtR16fCKwWBJKsLUhPUdbkiwiDzlJZm5YQTWu85alZof/iF78oq3kOIsjaNPlCUa9ZkDW5Oy996UsLWfvmN7/ZXOlKV5rrqJgW0z73v/Od7yybVJQIg3Y1qs+z6vvGvX6uQI758Be96EUlDKhMqqzV7a/Hr5/b0HHPe96zECD5XkKKsy7T4H/88cc3V7ziFQtZu9vd7rYhNUEdx3nusGvrebmeVdxZ93s+LxFIsrYgY0CeCEVnVmStNqhyVX7729+WfDa7Mf/617+WfLjLX/7yJVRjY8N5znOegTlynNI///nPci8nRyU79dRTm4td7GLlfvkvF7zgBTdapVOonvOc55Scte9973sNRyG0Igyjbuc///lLQj9y9JSnPKXkh8lt4+yUNpGLhGjHa7hGLlk4mUly1uxIvctd7lJ232qP3bQw0Qc2PGjf05/+9I1CWfrmd7/7XVHfbOiwa87OW7tab3KTm5QwtJy3tpPSdm0TXrKRQS6TEBSVcYsttii5U5QOGPYtQla//vWvm89+9rMlBC7EZRexzSZIgt2x7Zy1ePbrX//6ErKzOHjWs55V2nPwwQeX+mnDne9854YCY3fshz70oVLH173udWWHYJejdu9b3/rWch31qiuxXv0sSD72sY+V5Hb4wu22t71tGRNyLvfff/+CvfrJGRy36B/j3I7er33tayUH0c5g79CvnousacMgsmZc6Fe/R7gow3IqkRz9Zq7YeFIXm2Se97znlTmibYr32eVsXtlhaXwHdjGfvv3tb5dwqTqrqxzO613veiWnU56kRc0gYqSe5rG8MnWN8esZt7jFLcr7bTRSzEELEjYGzv6vXvpJPzzkIQ8pc+q4444rG3WQOc+xgNGndYm6293t3XZiq4v5DJ/rXve6ZZdtVx6q1A47wl1rl7XNC2yKMSw9QlttkrJYlb97trOdbdwhkNcnAmsWgSRrC9K1HBkDizzMQlkLI88BUxSoK1Su2O0YzeZEGO3HPe5xZRclB9EmGxz/i1/84oZzYejrwihf9rKXbR796EeX3Ydh3CMk1H5fECyOn1PwbIqbdz772c8uxK2rIBSRA7TXXns1ksWnJWucmR1w8Rx/h4OEn00RFAjl8MMPL0REfTnzdruQjOtc5zql/v5WAsf//ve/zSUucYnm3//+d/O0pz2tOeywwwpZq7FEOB/wgAcMHY3Rp0ceeWRxdpQc9Qr11M3bbbddIaGIEMertJU1+Xny9OQS3vKWtyxEQ25hFP1BmZO798Y3vrFggoQg913k4ZnPfGaz3377leuQj3ZiPYL7jGc8oxA1pK0uHLJ2w8cmEeqmuWB89ClRH9hqhz4zztuYOIbCxhtjTOkia8jea17zmtJmfYTI1EXdrnWtazVPfvKTmxvf+MYbFOJaxdTn9bsvcpGLlN2VkaeJ2CDp5pM8TvO9LuYjgmmjAgLlne35aNwccMABZTMNxbo9FpEgpA8eiLDFgv/bAFE/y7/dayxpk7lg4YU4IaVf/vKXN9oNaqFk3L785S8vJA1edVstdvSjULC+jCN54hq7trWLvVB/CwBHqbBRdTGGjU3zDWnMkggkAkv+ZGki/e9wpiwrgkA4m1mRtc9//vMbVtQMMaeMQHA8VrzAxxzDAAAgAElEQVRWvgwgp4kAMbp+d97znrcY50tf+tIb4cCx3OMe9yhOhTHeeeedm+tf//rl3+6l1oXDQQof//jHF4dAkaCaeQ9HzoFyAI5OUC9OmgLAgVOD3EOJ4zS6irrF7j07+p7//OeXy9phUKQnCNawDnWfd3OenJ5VP+LJmVOoKB0UDphpn2e6XqGecX4cITWFsvKb3/ym/M4mCoSOQhAFBpe85CXLtRwY58Qha/ff/va3cq9ne+6oOnPU2v+qV72qtB2OHBty5jlUCu/h5Dlp5e1vf3txoAqckV1kQV3sAERiEDRO0i5kTl7dqIDUKH2NWCBrXUX/ImzIGhIEm1BG4WjxYawp5zvf+cqzjTfqpIR2xf9tllGHH//4x73JWtQHOaAEwkR7hN6NZUQJIdBOz0ZIBilrT33qUwtxUVxLoUTOkBJj2R+EBckXzo/xiDBrC9VK7iOM99133xJOR76M80jUN58satTHwsYYgheMqVXegdwjdza76IMY50G0tBXZUVxnnKqrtlEVYyzqX3UynvULJc6izPEiFobGESws1tgE93sWYk51ZUvq3aB2uBpH6q491EaklbqMCJoH5pNxgOgjW9oVNg4JfsQjHlH6B6G0WDMe4GN+6Hf4xCJGGN/4y+NDhpqF/OU6QSDJ2gp3dBgyq1kGlKGaRlmryRqj71kUMWqHlWxNxhhdSgKCpB6cgDBF8HdG+1a3ulUhWgy+MBUlJgw4x8UZIGBCccIb1B6r8yh//vOfSx04zdvc5jbl3LL6XCsO4Ha3u92yk7W62+sNBkghQhoFkaWGIaIIiJAacoJ4RuEEOU9hI8SOA0ZChJqUCFE6ZkVBroSAhT1hqJ841j45PhwiBZQSxrEiXXVuFFIl1Ie0RRlE1vweuRTCRBgURBIB8OfhD394GTOTkDXPgh0Sh4Trc4SXwoYY+D8ih0QYP4i/cTcJWUOchHxhDwvKD7IR4wyRgIm5EcSnVta8V1iYwmf+UXDVWSguwnkIm2vU35i26EFs1TfmsLFvYaMf9VP7aBAqGGKC3EkhQGZsukGs63oh01IHLnShCxXyhSSHYmf+CFN7J7JEYTa3Q7mjMBqHMICHsY18I43GofA2pdPxNtTvugwjazBkCxBq6QxSBGBeq2fwRXgRVwQL0UK42mTNuDCmkFbXG4PRPv3y0Ic+tISGqaswpsRlSQTWOwJJ1lZ4BMyTrAnXCcnZqs+4cpxd+VSMMMeJRHBSihWyfCaGnkOiWMmrahf1l7tCyWCEKQEUjij1btBZkTWOl6MLB1fnrPVV1uJeeFAbODdOk1LI0QdOSCZixlkLacljkk8UziWu83tONtqO9D7ykY8shKFW1jhVKh6sowQ57kPWOGqhKIVihAi375O/hEwgFcowskbpoAZ1HcA8jbKmTRQe9VMfChUCSwms24sAc8ih2IxL1uRZeYdFA+IgDKu/6nAtQky1cp0QslKTNUoTIqnvLWYQra78QXMCeRXypyzJ1QvF0vsi9O/5nhFhe21UB6ozUq+N73//+8ucafedaxFXRA95Qv6EWV1nHCGU+h9hQg67zooz7321AmlCOOFLDbQoiN2gxpH76/cPImvqjvSpu/Hs7wc/+MFnOlpI3b3Tgs67kHKLn1i0vOlNbyoLAM+z0EBEYVHPA79D4CyOEEzXLNp5dSvsMvL16xSBJGsL0vGUNSTBanjcQ3EZZgnVwi6cUByKK8TGacu/CcVB+K3+Hmc4Toa2PlOJwiI0JnxFKaNeCFm0iYX/I3rqHESGk45PXgVZC2VNmCMchL8nUdaG5ayNQ9ai60NZowZQBzi4aCcig8yFk+JsaiJQDx+khBPiLBEDzhs54WTl8iAFSID+4IjGKd6pP4U7hTnhDbtBz0HOg3gja7Ez1DsjDOrf+tX46SoUDnlGo5S1yFnTn8afMLmi/T5/huQIx8tXqh1zjAOEi7oKe7l/wmGIcZ+ChNncQWmk9MjPG1QcwEzRVIzrqKfQIwyoRtRlamX7fLEI6+pbcwkRRiJ8aSSulS/XdXSHvnM9VU2SP6KOzMXXJur6utZYEyoWTkdAqaVUNuOGEmdDjIWP41m6vv6B8Hg+lY36RpmiEBp/xrbwo/YijFH0RU3WXKc/zAnKOlvgSySIsGcPC9lbALz2ta8tjxbeV1clwqDqB2PktWsu6cPI30RU+6Q19BkreU0isJoRSLK2IL03zRcMBpE1xI/DZfw4AIoQ4y3cSunwb6HLUFVqIiZUw5n5m7H3jnpHWzhahtd91CKhGyRNSBSpULrOWXNv3L+oZE3dkVC76CgJlAxKVoQ/u5yMsDLSgbBoP0fFydbKGrWFgjNJoZAIw3LyyBjls12iXhQJ6gnFr73BoCZrxl2dX1c/bxqypo7y/xBGjh0xGPbFACF24eZxyJq2UpmE06i68hgRgDb5ibFGSQrHX5M1J/pTiswXxM/ipN2/sZiJHEcERp6VRVIoR4PImvpIRUDAEELqFvIT860mTN4jl83YoRaac8iRRRdSiaxRB+WbwWzYp7Labegia4OUtZqsSYcw7tgCWCPw7V2iNeYWZHA2f5B0ix3vCbLmWv3mmV3zCMmP8KnFl80hgxZIk8yjvCcRWI0IJFlbkF6bBVnr+oKBjQuMolCoUjsITsYq39Z9DkqILoyi1bsQqtV5hPz6QGUFT63xzpqstZW1acjarMKg0Z4uZc3vEB2hTBsQ5NUI9yK3gwpn7wPh1AA5fpQRRDfIGmdphx9FZJwSfSKMFOEnClGdD9R+nhwjjp0aN0hZ4+j9HhHtKn3DoF3KGvJEhVRnhBUWCOygUC/CRJUal6xx5hFu1s62Slg7eYpdLCLqMKi8TWMAERunqKujJyIPdBhZ8z67dCmAbZI27J1UO9jIMUPWLQbcT/GlYHWRtUFh9UnJGkUtiKbFC5LYFTaP9zpSRpTA4gWuQpquD7Im3cDiDgHtKnCMz6MFWRunX/LaRGAtIpBkbUF6FTmieAlFSFC3ih62eo1qS263Suc0gqxF0m9cI3RDXeEwkCaqQDgmzpPBZzgpIZFoztkL91DOhO6ocINK2/nYfRqGuA6DInCxwSCcaL0blBOID22334UoxYe3Z03W7FyTY8aJwIijCbImdMdhSHZWh0FnoUU4GJmCtbCntgk712TN5gDOt2/x3AiNOa/L+XL6y6aAOEetiwC1yVrXblD3CanGeVztOvXdYDCIrFFEtFUyPSwGKXjeK//LWXTTkDWYDAuZUYjiDLj4kLt3y8s0ZhEjZE64f1SJPpGjaMcwLGuyJjwauVau1X79ZX4j8ghe17E29XtjXjlqxaIq5or+F2Y01kYpTjVxQ9aMbQu3CIP2yVkLsobYU8komF1kLepuAwMctdXcoq7BNsiaPDXkPcnaqFGWv08E/g+BJGsLMho4TY6dkiVfh9LW5yPKDCMSJBeGOib81XWYJNJlpWtlT2FwnWRgO9SEKxRhUgnBVCTkkTFl4DlRZKZvQXrCmM+KrNXnrM3i6I66LYPImqMvqDZIgD6BDcc8qLgeKRIGsoOPc4Vl5Kzp23HJWv2u+jwvahAyNajUZA15rL8NGmHQWZE1OyQR/TpnzXiDK1LhWA4kXWhtUBFaE3Ydl6xpG2XYu+0+RBAHlVpZk48VZArhQkIQCv+mgPUp3mmsx9mEg8iaZ4WyFiHM2IE96j3IlndQrIXhKVxUS0eMxEfpRz0jfj8NWbMgtDCU00cp6zr0Nt4jfCucTJmOsxNhlGStb0/ldYnAmRFIsrYgo4JzQ9Yk5zNskokRhFE7BOWJCY0wpMJejheIc4lC7RGe87P2ahi5kF9m5S6J2fVBAjyPkiWkwfB6bigwXbk2cX4VI04RjHqPImuRh6Ubhp2z5iiKm9/85qW3lousxVcMKAlIBMIxbGcaRwyrUCVdj6jMiqxRW51rpd8obMjJoJwlZFzoTPL+pGQtSGycqTdIGYvPddVkjWrEqcuts+hANCXYdxXXeoYdueOQNc+iYNmlDBOKa5y/1/UeZCq+kIGsxW5NX2mw+cAz7EREPuu8yvpZxr7+ROzkkxnvMdblWsXnptofcrfDU6J9JOt7Z5SusKi6wMXzvUc/U7g8wxEwFhGO6OgiTZ5n7GmvPtM2oWiLBep9H2WtzlmjxlsQOk4DWaSWxgaiLpyRstj1KQwuNUCpyZoFTaj47WdkGHRBnFJWY6EQSLK2QN0hrMG4KY4IoDREmKM26DWBo0g4SkBY09/OXQoDTgliWBEmREh4tasgTI4IoLwJaUn0Rr44eyRJnpYE8fr8tNrRIATChZyYkJdzyGJLvl1wdi7WH3KvHaFVeByiKr/FQaB16Ma/OS2OKb7rOGuyVuesUUDqD7nLv6O0qLP+QZAGFVi5Fo7USKoSpzYrssaBC00L58WhshGCa9ep3pEnxCgxPEpfZS2+pantktwR1XbYTd/brELZVerdoPKSKI2u0Xdx4Gz7GZLuESekYFyyZmy7l8Js8wcFFjlszxvzQ+hPnaKeseEBuaYceRY12REj1Kz6GTHn7PilLln82ChAkTPfXItkUDBdW5M1v9NGiynvEmYVUrdBoau43nwSdkSyhGjll5pLFmZ2wNr8I0nfAqptG5wVxxawDe7XnlDthUHjQ+5xBEy0c9BuUIsQtsAY8Dxtizy9Nkb6GqE0DpBMf4fdqMkaMhm7cZOsLZATyqosLAJJ1haoaxhBZ55xLAgDosAZh0Fsfy+TUbYJgLpmc4DEdQ4prrd6l8NDIWK8bZdvr8RdKxdKMjl1z8n4HIV3SWLmZN1vZc24t9U591PdhJ9cxwEy0FHqQ3E5KyvqUIPcS0m0incuk6NH7K6rz17ynFAjtNM9y0HWov6IlpCmOih2r+ojpSbNQkzajrT4OXIbye7axjFPGwb1TjtT9SUc9I0wU318h5/DkAIX4e1Bu0FHhUEl7MdOPJjL7WoXiplcrCDgcsHCCYfSiFzYxICYxwGo8RxjTohdrqL6jkvWPEfdEEttt1Cg5tVjzDVC0kLQ8bWNeoOBcB2SFWqXdsK2/vSYf5uXVOhICYjFRbQllDX/92+7ceuCrFLuFP1jLsSBuDGWtCEwdR1ljKJmfnu/elEg9bmxQGFtq+/GIMKElDnzDIk0p6RAsCt+bqxSJcMeeC+iFV8wqJU1v7OIon4qFiQWgfXXCfzcdeoWXzFB7oVu4x1J1s40ffIHiUBvBJKs9YZqvhcydJQTYRSEQJiFQbdyR2KsoBllzg0xkH8jv0a4K4w/B+GMtSBrnKWwhVW8+4UmKAgcp+c7S436xsEJrUiit3rmUBVKA8WNk1UQNvlBVumcBeNPyZBAbFu/51Jx6nBXKGv1btBwgp7JQXsux6FoP+UCSeU85NRxSvEx+Pjc0qDPTdm5SQUYp9TKWhyKW9/P0XOKMFIvTouaYyOH+lC6OHAEIE5m1zccrD6rz1mD5zgbDNrtsFkE6XCmnSMxnGNGvaK8ICL6GtkQsooyjKxpU/vD5HGfvqN6CpsZV0gQwi3Mre9hxYl7L0KKrNdkzXMoKM7M8ntqDFXPAoMyZRxTdT0DkVUmIWvagJRQrZAf/YkoGY/mFKwcomxhEDuba7LmvULM+sY4NjcsXuAcOYpwd/QHtYoCJYGekhrHdphziAmSZKGDqKuH+lDgjHl5qeqFTLueSuY9NqNQYGFgHiCe2kQ9RbTqI0/kssbubrmpiHvMaf1g97f7pTd4t4WYBZt2I3vUdWROf1qMmevSLeSrUoT1jfEcZE291F3d4CN8rH0ImzkRX6PQl/rauDc24GbBQskLe5RkbRyrlNcmAhsjkGRtwUYEI8tJIEoMLOfF8FFmOBEGWciH0oMEMITCPwyjEGRd/M6uq9iFhkggbVbZHC6yxrBSFoQ6EZ32qeocNtUBqYv6cBKMeGxYCLUCYRG6rZWeyFmT+xbfAg0lIP7mPJAApEAbORIEQr04CYSOokHBk8vXVtbUmxroXjs3Z03WkBCOBklTJyRMHeGAUMIRFtrDocEhwlNtsoaMUk4mLfoUIeOAhda0GVb6FHHUn+rEKVNQkKR2zlp8yF0dkIJBR3d4l/C5P/pAn3uX9iMs3oVQCJ3rEw6bM0cuwkHDTgjbmXDqhUDEtyHVzT077rhj+eMssnHJWrwHATJOhSkpOfBHpr0TSdJvlJ44465N1jzHosRciXHo/thZrY/9QXjUlepYf4UClkL95iKCqF+QaZghWLHpxzwQIkcOkSDtjfkEDwss80l/WgTJ96rzEtWTUslGIOTmmjp6l/43X4xFGNhdjcyZ64ETcohw+r9wsfoJ77vWfci5/NWarIVqai5TWi3Q/Ey9/fEu93o3fNRFOodcwrruucFg0lmf9yUC+SH3hRoDYVCpZvJUGHTGu2uLP+LF6VHfOFMr5Li/3SjKArWF0+AQOC7XcroMvWM5qCZyj7o2NCCGwhvCNhw0w+x+joJhprRREYQHQ7mI5yB7VA/Kmt8LNbWdj2s5Wx+/Rtw4RU6e+oJIcDBIoGMXOOM4EDTaiazFJ4A4ib67+eJ+6iWCxXkhG/W3QV2jrf74nZxAdYRjfNyew5LLIy+MI27vxkWqKRCcGSI57jlrXYOUAmRHIeIWTpJTpvRQUyk7FDcbRexmbR/doT/1A8Vo0NEd3quv5U/CFbGKj3hHv8PDOIydw8gQdQZeir6FE4IqDI8ceoaCqFhgGL9UGTl+45K1GhvzBilE+gITY9wYQm5hIsynSDkIxSrmjb8puEhSzD3ESxuCoLufOtiV/0n1Nha1B0GM43EsdOrvtxrDCCxVPMi18a7/4OpsPmPShpqutAP1N5eFwO3oZiPMadfCj0LufguHdjGXEa5QqrXZ/KTKq68QdnxNBUYRpo3nGE/Gjv4KYugZrjOO9L0waI1PraxRzRFRKRXDNhiYR3BHLOt8y4Uy2FmZRGAZEUhlbRnB7vsqxo0B5nw4DUQH6WHQrWKd9SU0avXLKA464qMmb8gFxYCxRR4QQKSCosZhdn22pq4vQ44gWF1z2u5noKkM7o9PXLXbSNlAcjhooRbOoCaEQYQi1EI5QyAoOYikEBHn4/fCkZ4jh6x2BpRGeT2ugQni1EU6u/APpUK4lbOklgxqi/s5V4qV5G/qEsJKXYIBLILc1aQVdkLblA8qqYTrvvVr17nuU9gK7XH+nDVyqx7CjUgG9cg1HCgMo252JhpT1B/Ebth5ftE/3qHdyFaMQWovB208CZ/H92Wpb23SbrzoV/1LEfR7xBIxQaZsiLB5A1lxTR3O7ztvXKdPKE7qGwqVtlvMwAhB8m4q26Dz1FxnTJlz5qHr1cu48qw2gWnXD9nRBs9xLyJr7Nd9h9iZj+aTMQU7zzW3vWPYGIznmAv6RD3Nb2NRm7TVmKzz9uqcOGNXHb1Xv+gvxNX1QruepU9gVH92K95b19148Az1hY+Q6iB8YOo8SOMHUetSdL2DnaFyxnxuRwzGGQ95bSKwVhBIsrZWenINtmOQUlgTojXY7IVq0rA+GFVRZAlZ3GbrbZrNt9h8wyaEWnXzDCSW6iV/jbOPr22Men6f39eq2aQEuc97Bi0E6p8v5/un6bdJ25v3JQKJwPwQSLI2P2zn8uS2o5vLS8Z4aNTHLYOc0aLVeYzmnenSRXGCg3Cfdf3q59XEpw8JoY5IQt92SfHbcymncPel0FZXkcdlwwbVl9InxDZJadc1njEuSeozpiep36B7Zt1nk9RtFnN0EdoxSdvznkRgNSCQZG3Be2mQAUzDON+OS3z/D99JHflhS2EvYe8jlvKkdt1l13Le13bbb7dRxwkRy3GSFyfsJZfLga/rscxqzM3qOeuxD7LNicCiIpBkbVF7JuuVCCwyAv/bPzCwnLFJU3Is9957n+aApbP75DntvNPOzR5LuxvlqW266SZL+VqHl80WEtlda7OMzRDyu5RxFbFFhivrlggkAonANAgkWZsGvbw3EVivCIwga80SWaPw2DG47777NQcfdFBz7HHHFgK27TbbNptutmnZDIDE2eBgp7Ady3bNTqrkrdeuyHYnAonA2kcgydra7+NsYSIwewRGkTVHdywRM6Tt1KVQ56GHHtIcuHQGnjPC7EY8/fQzyk5Su5od7Otg1zgRP1W12XdXPjERSARWNwJJ1lZ3/2XtE4GVQaAPWVsiZEusrDnj9FMLcTttKdR55DFHN8ctHWnxv6Nftml2WDqeZcsttiykLksikAgkAolANwJJ1nJkJAKJwPgIDCNrfrd0HMcSO1v6c1pzxqmnNKcvETUbCDbZfItmSUJrlg7bapqlUOjpSwrcpkvnvSFzmRg/fjfkHYlAIrA+EEiytj76OVuZCMwWgUFkzc9PWCJqJy/9OX7pSwUnndicsRQG3eSM0/+nnlHRttiqWTp4rVn6LMDSv5f+LmRtttXLpyUCiUAisJYQSLK2lnoz25IILBcCXWTNz05eUtNOOH7pO1VHLX1OYImsnXLy0s+W/vw/9u4DzJaieBt4I4IEyQIiCgKKATEr5ogBs5gVc46gGP5GzIo5BxQT5pwDmLOIAVFUFBFQQAUREMEE3/7ar+7TDHPOztm7e+/ZPdXP3Wf3njPT0/12ddXbVdU9ZY6slbkL5k7ZLxte/H8/cyf2z71+Y87TNudlm9sdagdpcrY1NYD5nEQgEVhOCCRZW06jlW1NBKYFgT6y9t+5xgl/nvnX/5G1s86Y866dPUfYhEP/PedBm/seWdto01I23mzu5aBbzJG1uXPXNpgjbevOkbWLJFmbluHNdiQCicB0IZBkbbrGI1uTCCwPBPrI2r/nvGfI2emnzhG10/9H2k46vpxx6GHlvBOPL+dtsVnZZM89y/q77lbKZluXssk2pWyx+Rx527icv966ZZ05spYlEUgEEoFE4MIIJFlLqUgEEoHJEegla3MetLmXi5e/zZG0v51WyqknlVMPObj8+6gjyyV22aWcMXdkxzpbbV22esSjS9lupznCtm2ZO7/jf2Rt/SRrkw9C3pEIJAKzgkCStVkZ6exnIrCYCPSRtbnNBP8ja6eX88/4W1nnxGPLsQe+oOyw1eZlvb32Kuf/4uhy5hFHlE333b+sc/mrzpG1Oc/aVlvOedg2mSNr66VnbTHHJ+tKBBKBFYVAkrUVNZzZmURgDSHQ61mTr3ZWOf+vp82RtdPLRU49uZxy0BvKuif8vmx9tauVvx53XDlvLtx5icfsV8r2O/+PrAmDzuWtnT+3K3Sdi0Sluc1gDY1iPiYRSASWCQJJ1pbJQGUzE4GpQqB3g8HcDgObCk6fC4OeOff77LlNBr8/ppzkVVNzOWvnz73Efad99inrX+O6cxsM5jxqyNpmcxsN7Ah17lqStaka4mxMIpAITA8CSdamZyyyJYnA8kGgl6zNbTA495y5IzvO/B9hsyP0n3PHeJw+l7/mZ+O5XZ/bzBG0DTae+3tuJ+hmc/lqm8151jaYO3fNWWtJ1pbP+GdLE4FEYI0ikGRtjcKdD0sEVggCI89ZmztTzTlr//j7/7xryNvcGwz+d87anOfN2wvWnyNtG80d2eHYjrmXupf15w7HnXubQT2HrUZAMwy6QqQku5EIJAKLhECStUUCMqtJBGYKgVFkzftAnbXmDQbnzpG2f86RNQfj1he7zyE0R9bOX2+Dso43GWw451GrbzCYI3Be+p5kbaZEKDubCCQCwxFIsjYcq7wyEUgExiGAwCFl/53zonm91BxJO8/bC+Ze2r6O7/CxufeDemPBOsKeF537QdR8FiWdailjiUAikAhcCIEkaykUiUAisKgIeCG7ct7cS9yRt8q/5jxu/4twrjP3z6sK5q5B0ron4SZZW9SxyMoSgURgZSCQZG1ljGP2IhGYKgSCsFV+Nuql7zX02SlJ1qZqHLMxiUAiMB0IJFmbjnHIViQCKxaBLle7EB9rL0iytmLlIDuWCCQCC0cgydrCscs7E4FEYAACSdYGgJSXJAKJQCIwBoEkaykeiUAikAgkAolAIpAITDECSdameHCyaYlAIpAIJAKJQCKQCCRZSxlIBBKBRCARSAQSgURgihFIsjbFg5NNSwQSgUQgEUgEEoFEIMlaykAikAgkAolAIpAIJAJTjECStSkenGxaIpAIJAKJQCKQCCQCSdZSBhKBRCARSAQSgUQgEZhiBJYVWYtT0dfpO/l8ikFeU02Dz7Rg09eWhbZvofetKdzzOYlAIpAIJAKJwFIisNbI2pFHHlm+9KUvlf/85z8jCQYjvcsuu5SrXOUq5UpXutLcqwSbFz4vJSrLrO5pJTM//vGPy6GHHlr+/e9/l/vf//5lxx13rGP9j3/8o3ziE58ov//978ulL33p8oAHPGCVDJx11lnlQx/6UPnLX/5Sx/5Od7pT2WCDDZbZiGRzE4FEIBFIBBKBxUNgrZG1N73pTWXfffetZG1cQdA22mijsvvuu5fHPe5xZe+9907jPQfYaaedVj772c9W/B74wAeWddddd2q8ajGer371q8uTnvSk+t/Pf/7z5ba3vW1tIyJ2u9vdrhxxxBHlete7XvnOd76zioj/8Y9/rN/97Gc/K7e61a0qcdtiiy0WT+KzpkQgEUgEEoFEYJkhsEbJWusBetvb3lbJF6/LZpttVglZG8Jz7b/+9a/y97//vZx77rkVVtftt99+5YADDpg6YrImx/2cc84pD3/4w6t36kEPelB57WtfWy560YuuySYMepZ2Ga8+snbHO96x/OAHPyg3utGNyje+8Y1VZO2kk04qd7jDHcpPfvKTstdee5X3v//9ZfPNNx/0vLwoEUgEEoFEIBFYiQisNbJ20EEHlcc//vEFKXvRi15UHvzgB18AX8QNUTvhhBPKBz/4wfLOd76zICnKYYcdVvbcc8+VOB6D+nTqqadWj9Sxxx5bHvvYx5bXvOY1U0nWfvGLX1Qiptz5zncul7rUpVZ51pKsDRrqvCgRSAQSgTcSzfYAACAASURBVEQgEShTQdaQjUc/+tEjvWW8b6973evK05/+9Br2k+P0lre8ZXA4NDx6Q3K72mvJx7iE/SH1LaaMxfOEEXmkjjnmmOqdFG7kWVuqDRhtvaP6PASLtv1y0b7//e8P9qx161+qvi7meGVdiUAikAgkAonAYiAwFWQN2XjMYx4zlhidcsop5aY3vWklKDe5yU3KRz/60bL11lv3YjCEOCwGeEPqGEUqVqeNZ555Zrnuda9bfv3rX5cnPvGJ5ZWvfOVEYeHus88777yxmzcWixi1ZO0ud7lL+e53vzuYrA3BOq9JBBKBRCARSARWIgLLgqwx8hLqb3nLW9bE8xvf+Mbl4x//eLnEJS6xakzsOnzrW99ak9Gf85znlOOOO6585CMfKX/4wx/KZS972XKb29ym/vCU+UFQhFjlTR1++OHl+OOPL//973/LdtttV/bYY48aZrzc5S5XE/dHFWHan/70p+VHP/pR+eUvf1n+/Oc/13o32WSTsuuuu5Yb3OAG5RrXuEbZcsste6v429/+Vvsjwf7nP/95Ofvss2vu3k477VSff61rXauGDqNIvn/BC15Q2/qtb32rXu9au2V51p7whCeUm93sZtXDNs4jqJ/Pfe5za14YTIRSf/Ob35Qvf/nLtS+whq3n3/72ty877LBDbcLpp59evv71r5evfvWrFdeLXexi5apXvWqt45rXvOaFCN+nP/3p8va3v722x/NcExsMgqzd8IY3LN/85jd7c9ZsNHjf+953gZw1nlUbK971rndVrLfZZpvyrGc9q45xlkQgEUgEEoFEYCUisNbJGlB51saFQV0jP0voj4fNMRBy3pCFICVIAbLC2/awhz2svOENb6i7DoO4SFb/5Cc/WdZbb706jp/5zGfKC1/4wkqWbGRg+BX1uebyl798DTE+8pGP7CU+Rx99dA3LCuUhMUK1bUHyNt1000ow3/zmN1+AWLrO8RVIEuLhfgQqih2wF7/4xSsJe8lLXlI9icqvfvWrmnwPi+5mjPXXX78SI9jM5wlDeBAspOtRj3pUPR7jaU97Wq2/7Yc6tQExkuQPD2SNZy+Kfjp+4+Uvf3m5xz3ucQEMhLd5/pTubtBJyVqMI0JpfBFWR3voM7mYxg0WK1FhZJ8SgUQgEUgE1jwCU0HWGHWkoesNYqCRBx4oBhrB2nDDDQuPTXeDwcEHH1w3LKiD4UYiHP3AU8aDtM8++9Q6kLIPfOAD5RGPeETdsIAUXe1qVytXv/rVy8Ybb1yOOuqo6m1DoDwfkURSWjJw8sknl3ve857l29/+dkFonAGnDl4wdXqeetSh3Pe+9y3vec97VnnpkCUk8B3veEclhle4whVqWFNbkVGePuHef/7zn7VOnifEBA7Iiucjmjx5t7jFLWrfEDykjqdtvgJTXit18XYhf8jida5zndoPRNJ34W289a1vXceBB/DKV75y9fohyrx7+uk7njjt9vwgVvIMHc+ifOELX1jl2USiJyVrxs3ZfPe6172qF/Ayl7lMJWraNp8ncT488vtEIBFIBBKBRGCaEVjrZA1JsFMQUYgQZQCGBAj98V4JN26//fbVm4VodT0pQdaQpW233ba8973vrTluyJBwIYOOmDH4PEAM/m677bbKc+VYEAVBcpjr/vvvX58rzIbc3fzmN181js6Ic36Ya3nHtEnbgjR43te+9rVKyBxFoe7vfe97ldQpzhe7/vWvXwkSkvrsZz+7ErUof/rTn6qninfQNa94xSsqEY1Dgf/617/W+2ODAbI7LlzbFcCWrPlO6NjzkEpkWIG389t4HoP8PvnJT665hRGaRRa13TEs+v7617++Etsoq0vW4ugOHko7gGHlIF2EEDa8gzCZlrc2TPNEz7YlAolAIpAILF8E1hpZi3PWeJnGeUYipOcUe+d2PeQhD+klJi1Zs1vU//tCY3KneKXkhjkO5G53u1vv6PEi+Q4hQVCQA8WZbzx2vGpCg7xofflS2o1gvfGNb6zt8LYGXjDF5giEkVfO0RY8VV0MhCSRJ/3WZ8RJPYiJozvkeiFrkx7d4TkIIM8aAqQIgb74xS+uxCfaYVzk/h144IH1M55MoczYdRoECfn1nTbpL+IYpHKxyBryyhMHE29BQJ5hpiRRW77KJ1ueCCQCiUAiMAyBtU7WeHnkmcXBp0HOovnyo3iSkAcelnvf+97lKU95Sg0LtiXImnAZgiF/rWvIkRQ5ZAgSr5qcLZ6zvmLzgLPA5GgJ/Qn3RX08Y3LWtOmhD31ovb3NEwvC43gR7fD/L37xi/XZipAgsqTojwR53iIEMupyDw+dcCPvoGdHvYtJ1tSNeArDtsWz5NoJY8LUjtM44La9TghVKPJ3v/tdPSvPPdqsDCFr4w7FhdEznvGMiiFv5yUvecnqxfN51ws7TNzzqkQgEUgEEoFEYPkhsNbImg0CjDAiIIx4v/vdrxc9eVqIERKAJLlekj1y1hIt+V9CcLw67373u6tXrOutUhdS5LcdjnK9gmR13zvqc6SK50yYUBuQhSBTfR4dbUMueYJ4nORUyf0SomzJGm+dEC1PkefyzF3xilesifLyzhDJcaf2LyZZQxDlkLVEMfpmjHjuhEYPOeSQGq7uFiSNp9Fv3j87cheLrPGiIZO//e1v62Nhw0OZ7wpdfoomW5wIJAKJQCKwcATWGllj1MPrNOScNQTrrne9a/WKMdbIG3IQJcga4+6NB/EeyhYa+W8S04NwDYUNkeFhk1cX9/LS8fg56wyhQ+YcBeIZvE28YkF6umRNHcKswptITvt+VGFGuW28cDYxIG6OAmnJ4WKStZ133rnm73XJqjYim3bper7QoxyxLlltyZpXX/EmLhZZC2+i+uzYVWzUEB5Oz9pQ6c3rEoFEIBFIBJY7AmuNrLWvmxpF1sIzFt4vHjNJ+0KncpictTYJWfvhD3+4KtzHw+aMsCE5T4jM85///EqclLPOOquSRWeA8frY1NCGQW1wQLjcF69baj1rca3XMTlOBBGU0O98syjahSTxtnkdl12a0dbFJGsw8Ow+HNY2WYOFceIxla944okn1rPfjHuQ7uU+AbP9iUAikAgkAonAfAhMLVlrc9eCSCAVyAuvFZLBoxUeliGeNUdexK5N55EhI0NL5I25XuK9hHxhT14fhELOF8/bta997UokhE6ROZsTujlrbXhWHXaVOrJD7hjyZheqXaRR5GjxFiJvyqyQNTjy6MHWphCEGQHmkUXwsyQCiUAikAgkArOAwNSStT7wna4v1yvIWusRig0GSNWHPvShGgbtFpsGnGmGCPHQfOUrX6mbFtrk/bgHoXK933ZtxgG83jSAMJ5xxhn1uA27PR0x0ZdHhdQhGREGjd2gCJqwHg+h40S6IUjEzRsZEEJhVmeYOWstjv5YG2QNWbSRQGnJ5lKGQePoDvl7vGp2ndoBK4cOibMBpC98OwsTN/uYCCQCiUAiMDsILCuyJl/JwbZIjqMvPvzhD68aqSFkDclA4hAhO1A/9rGP1VdXtQQt/rZRgAfHZgHJ/+HJQc4cUaG87GUvK84ei9KSPs+yESKOu3CQL/LBi4ZM2nigOOqCFy68h0GE5MQ5w8wbDHznoN7ImUPWvMpKrhnPnTrimJL5wrrdozt4KG2G6CttGHRtkzXts3t37733rkRZWNgRKF4JliURSAQSgUQgEVjJCKx1sgbc+V43hWA4Td+OUS//jjPXHI4bZQhZc60DbREseWY2LLgPWWqL5/HcSK6XnyYM6bVQyqte9ap6YK7izDaEquvdQSaRGwn3vGg8a+pDMJEwz0eweOzssrRztXuorfY5BBZB3WqrrVYdN+K5ctucs8brZpOF/DmYzEfU3DstZM3OUgcFj3s3aOtZi7C4/DWbGPTV+XA8l0P6vZIncfYtEUgEEoFEYGUjsFbJWhzd4fwuxjs8UwE5EsSL4hR9SeWO7kB2nN6PDMULxl3fkrVRu0Fd5wXkzgPj2RIy9eJzx1N47RLvFK+V8CgCaXcnIufdmN6fqTjvC8FwOK6jQ1wnvGnHaLxxgccOoUCqtBcRe//73193dyrCuUKKdpPKy/J8xER9SIncuk984hOVWNoFazOFNkTOGgLJI8gjxuuHNMLC2XOjzo0LTLtkbffdd6/1zLfBYJRn7bjjjqvhSeHQSXaDwlNu3lCyFu23KYN3TTjURg7e1Xh36sqeqtm7RCARSAQSgVlFYK2RtXiDgdwtJKkv9wiB4JlCeOJF617d5B2h8sZagjFkg0EMsvwnIUokUEHa5K7JhUKghCrjxerIGFIZp/u7nmctwqLudR4YkoRYObYDaZPjxgvE6+Vdm17FxFMXRf+RNMd2qFs96vB/9WiDPvOqCaW2h9b67j73uU8ldDCAHy+d11KNevH8cidr7c5gRFj4V3H0CG8r4pYlEUgEEoFEIBFYiQisNbImHwqZQWy6R3S0xAKB2nLLLSuRsbkAGeFN6pZuGNSZYOPCY85D47kS3pTQj6QhR54noV9OFE8RD1A3RMnbhxjZuYn48XR5FiLpvZm8XkK0/n/729++Hn5r9ymSoX799fORj3ykegQd/+GgXKFPRUK9A3jVgyh6g0Jb3OtIEIcJ8zQhg4r/H3DAAb2v2eqSNe2Su6efNmr0FW1rz1mLl6a7NrDlWXMoLpLa9wYDXtPYDRvntC3kRe5t+8iMs9bi6BZvgHjmM59ZCWuWRCARSAQSgURgpSGwRslaC54XciMa7REdvu8e2YHc2AwgHImwxYGr3YFAmnjK3M8L5Z5xZM11jD6iZnfo6aefXu+V+4UoIV28baN2G/JuCVcKqyJvnoVkuY+XR7t5DZ3thghqv3a1R4Agh56LqNnIYPepwpumDrtN48Xq3f7y/Hk+omd3rLocIYLYjdshGfgefvjh9ZkIJRLcV4SBhUi1WZgYpi1R87dnC2f6LaSL/MXzjbExgc0ee+xR7/d83kPP13e4CIXGWAkvqw8BRpodheL53QJ3bTOG8FJ/krWVpp6yP4lAIpAIJALV7s4Zz/OXOxTtURJtX0Z9vrb6O0l7YljinsVKop+kDQvFKdrethmZHPLWgfna11f3NI/5QjHM+xKBRCARSAQSgUBgrZO1+Yyzhs53zXzfr83hXtNtm4/MBBaTtmvI9e01Q64fMi7z1bMUzxzSrrwmEUgEEoFEIBFYUwisdbK2pjqaz0kEEoFEIBFIBBKBRGA5IpBkbTmOWrY5EUgEEoFEIBFIBGYGgSRrMzPU2dFEIBFIBBKBRCARWI4IJFlbjqOWbU4EEoFEIBFIBBKBmUEgydrMDHV2NBFIBBKBRCARSASWIwJJ1pbjqGWbE4FEIBFIBBKBRGBmEEiyNjNDnR1NBBKBRCARSAQSgeWIQJK15Thq2eZEIBFIBBKBRCARmBkEkqzNzFBnRxOBRCARSAQSgURgOSKQZG05jlq2ORFIBBKBRCARSARmBoEkazMz1NnRRCARSAQSgUQgEViOCCRZW46jlm1OBBKBRCARSAQSgZlBIMnazAx1djQRSAQSgUQgEUgEliMCSdaW46hlmxOBRCARSAQSgURgZhBIsjYzQ50dTQQSgUQgEUgEEoHliECSteU4atnmRCARSAQSgUQgEZgZBJKszcxQZ0cTgUQgEUgEEoFEYDkikGRtOY5atjkRSAQSgUQgEUgEZgaBJGszM9TZ0UQgEUgEEoFEIBFYjggkWVuOo5ZtTgQSgUQgEUgEEoGZQSDJ2swMdXY0EUgEEoFEIBFIBJYjAknWluOoZZsTgUQgEUgEEoFEYGYQSLI2M0OdHU0EEoFEIBFIBBKB5YhAkrXlOGrZ5kQgEUgEEoFEIBGYGQSSrM3MUGdHE4FEIBFIBBKBRGA5IpBkbTmOWrY5EUgEEoFEIBFIBGYGgSRrMzPU2dFEIBFIBBKBRCARWI4IzCRZO//888s666yzHMcr25wIJAKJQCKQCCQCM4bATJO1IG1+KwjcQohce8955523igiuJELYxSrwmm++BLbjrm/xb+tbyFjM156l+L5t/0od/6XALeucHQSGzGVz5yIXucjsgJI9TQQmQGCmyRqc/vvf/5azzz67Qnaxi12s/gwtYaT/8Y9/lP/85z9V0WyyySZDb19W15177rnln//8Z+3jxhtvPLFSpYijjnXXXbdc/OIXX1UHHI2BsVhvvfXKhhtuuIo8++zvf//7qvHZYIMNpg437dNO/dpoo40mxmbqOpQNSgQWEQF6w9y3eKU7zBPFvA/dedGLXrTOnXGLukVsUlaVCCw7BGaSrLWj9LnPfa7c/e53r8rkyU9+cnnZy142UYgUydh7773LoYceWi5zmcuUE044oVa/UlaJ0Y8nPelJ5dWvfnXZcccdyze/+c2yww47TCTs55xzTnnsYx9b3vnOd5bLXe5y5Utf+lLZeeedax3IznWuc53yq1/9qtz+9rcvH/nIR1YRtqOOOqpc7WpXq2Py6Ec/urzhDW+Y6LlLeXF4C6597WuXH/3oR+VKV7pS+epXv1oueclLVkOUhmcp0V+9usn1KaecUrbddttV5GH1asy7RyFwwAEHlOc///llq622qnryGte4Rp3Pf/vb36ru/PrXv15ufOMb13m/zTbbJJCJQCLQg8DMk7UvfOEL5S53uUv517/+Vfbff//y8pe/fDBZi5XhXe9613LYYYeVS1/60uXEE09ctWpcSWFQRPaVr3xl7eO3v/3tStqGFjghw8jWu9/97krW4O63ctZZZ1Wy9utf/7rc7na3Kx/96EdXkbWf//znZffdd6/XPeIRjyhvfetbhz52jV13zWtes/zkJz8pV7ziFcs3vvGNsvXWWw+WoTXWyHzQKgSOO+648va3v72O1Re/+MXq5c2yNAggxc961rPKS17ykrLllluWr3zlK+XqV796fdjpp59e6E7jcIMb3KB84hOfSLK2NMOQta4ABJKsrQZZM/48aw9+8IOrR+VSl7pU+dnPfrYCxOLCXVgdsqY2ZO1pT3taed/73leJ3sc+9rFy2ctedixZo+h/85vflOtf//o1tPiQhzykej6nrSRZm7YRGd0e6QrPeMYzyqte9aqy3XbblaOPPnrFpi5Mw6iYwwceeGCdt1tssUX55Cc/Wa561avWyMMZZ5yRZG0aBinbsCwQSLK2mmTNKLfJ92vTmzYkiXehUjkpWetryyicxnnWAt8Ix65NfFvs2v4J6/z0pz9d5Vlb6lDOUo5zn3ys6ecNkdGFtunf//53EdIXThfK/8UvfrEsPGsL7e8QLFfnmvna1W64ibkcmwjSs7Y6yOe9s4bATJK1VsHInbrTne40cRh0PiU1SpDa+0b9Pe5e37WEpbuTNb4ftwtzXNu738X/W7L2rW99a5VXbEg/W0Lbd/18ZG2+STkfWV7oWI17bpuT2CVrCwmDTtLGcf2dpJ7FGLv5xqbv+zDgfcR7aN/mG/MusY55wbOGrL3+9a+fl6yNmkMtxpPkpnbzGCcZq1HzciH4j8Jukr7Ec0fpnyHtQtYiZ60Ng06qF4c8K69JBJY7AknWFkjWgoD4/cc//rEmya+//vqrkuZ9zjD84Q9/qL8l1woD+Fti7V//+tdKujbffPOy2Wab1V2Q83mNKDGegTPPPLPWYQeinZPqtkuy3WXVkjptO+mkk+r3NkF4lnpOPfXUGsa1E0sd7U6tVhlrV0vWvvOd79R6og5kSx36EX3pGktt/8tf/lLbDSe5b9qhjCNrnnHssceuwkpC+CgCYNcZXNWnr/qjX543H7bdOrvGUU6jtjMw2q0dgfm1rnWt8uMf//hCOWvaLofRbyFy7RH6gXvUYfcxmTj++OOrh3bTTTetGxRG9fH3v/99rc+4G4Nuv9ThBxannXZaHV/95+1zD6/Gb3/72xqGkqulXd2++k5/A0vPcC1Z1d6Qs4UqP8/zDJtOYKqN6jQ/9D/kols/nOSbKcZVDlS09U9/+lMNtRsTn7e7cgMj18BE/tR73/veivOXv/zl+mzPhUWf3KrXmPkNPzi4Hq59xbykE/RPOy9xiUvUPpJ/fTAWfXNtPjxj/hsXc1pd2gE346Kf88m5e/RDHX7Dz73q0KZR2Efb3G8HZ9wPO3jbBT9Kh8Fc310r9YGuUNoNBi1ZU7d7FKHq+XIKbeqCtX7wlubxH/NJUn6/HBGYSbLWDpQE4zvf+c4Te9aijnY3aLvBwPcMNa+dPLbXvva15UY3ulF5y1veUjcjMM4U6/bbb18Y+/vd7341f2OUsmXkJeD6sUOSMWC0GY7LX/7y5aY3vWm5//3vX3bbbbcLKavPfOYztY/ah2gdfvjh5W1ve1vdwUgpUnK77rprrUNemJwSCq9dNQdZQxAkBLvXZgG/GUHX++66171u3Qhwk5vcZJVShgVl+pjHPKa8613vutBu0KEbDGxQeNOb3rRq+IJkwNmmhM9+9rM1Bynag1Bd+cpXLve85z3Lfe9732qMhpaoW9tshmDcETKkl5GG1x3veMfqpbntbW9bjjjiiLob1M628KwZY0aIof/whz9cDdxrXvOaGnrTFhsSEAc5fPLyGLR73OMe5UMf+lCvHBirq1zlKnUX4y1vecvy+c9//kKEwXfyAuUEHnPMMXV8GbsrXOEK1YvxoAc9qFzveterskle3vOe91wAEobvkEMOqSRGO7UZ+YDlLrvsUnftPeABD6h9nY8Y9GEN11/+8pf1GeYB8sVox0JC/t997nOfcqtb3aoSgFYGEWXPNb48Y/e+973rfPrUpz5V+2oR4x593XPPPcujHvWoaryjnQ996EPLO97xjtqs7pmKdiGbJ1E8V53vf//7685luZPaGXJuh/K97nWvuiHGM1ssYHab29ymbjp56lOfWvvynOc8p8oIcqR9//d//1dlcmjRd3PfjkmbbmBg/pM1c54Mwm3ULm3k3bx1v3Yh/dqpn9pPD/EQk4mb3/zmlfS2Rbt51MnWd7/73Tpu5jSCZt5rA/3lB4FsMbbB4MUvfnEldXaD0nfKKM+a8bRDn9ztt99+Nb9wVDE/tduCDp52m48i0UOxzusSgWlEYObJ2ursBjWgyJrdpIwbJez4CYUS5FULsobAfO1rX6tKHzlybAVlefLJJ1cDwKA+97nPrcqpawQpZobG/Va1Ci8J70GsQBk7xpTx3WOPPS5gdJAYbUQKHve4x5UXvehF9dlW/bwLFK96tQO5ofAcR9EWRsdOWd4HCtlzrO49lzctFL+2u8ZuOwYkSvfoDiRZe5VxZA1hQFAUR3/E0R1BpmCDjH3/+9+vhFsJUhbn58EKCXLvJOfguZ+RtQO1rYtnQJsZKkaZ8WT8kC9kjecEDsgaEmaMGPZPf/rT1bPGi6E+1yDO2hekbhxZQ/oQaTJzi1vcojh2hlENLIwH0o9cMM4KAwkX32kvgmk375///Oeyzz77VNIUxQKAwfve975XiYBiMaCdDKtivO3mQ45jg8gFBGXMf7QTQUO6YcMYq9uYkI94pv+Td0S27V9L1sijRYvdhfrnHl4f9UQ7EVoLCkTTc4wlwqOf6mLUkT9EBAl94xvfuKr15OnhD394nc/qDSzUH9iafwijI22CoLhO3be+9a0rKbrZzW5W8xnJgHmij56n3cZ8XIlxpUfIPuyif2TGj3mnGFv1WVRYlHVDnfrmCI12npIN9YVOUQ/ZNU/IYetxhdvDHvawSli1H3Z0lvujTfCAmQVJ3OvaZz/72RORNQsOC0dk2aKIPGprlJbAG18LTM+xeKFzFrKIGCrDeV0isLYQSLK2mhsMWs8ar9IPfvCDOpZB1hhHnjVGh6K+wx3uUFfbVqIMKAWDPDH2FCBle7e73W2Vd0yo4glPeEL1CFBCVvQU9w1veMNKSqwoecnsslIfQmb17CiMaAePAbKGZMSBtPvuu2817Agb40WZewbF614rYMYlFJ9jTaxw3c/IOnaDYuaxYzQQCN9rB+Opnx//+MdXhVUWk6yFIUBeYOXcN31jGBEBK3dt/OEPf1h3oR155JEVi1e84hXl8Y9/fMV2iELnBXS9tiOxcOclgYE6GSXP9iyle3QHLxUvFuOjMDwMF2IAL0SUoRGWROr0ZxxZcw8SzbvXkjV1kxPtM4baRxaNmd/ajxwzwuQlQqVdsoYcWTC4n4eFcY7NEr/73e+qN4vXg2FE+l/3utcNwjGUG4LGE8X7ySOEGCI7FgwIEYLEc8o4W9AYO/jHWLVkjWzqF1L0yEc+ctXxLhZNxtkxMOSS501f9NlcJZt2gyLgSA3PsGfFYcyeBWeeNmQLWTUm6uC1MofJ1UEHHVQ9VeYszMzpNnFeu3jSIoTMu0RWPR954wUbUjwP1gcffHBtIxLDQ41kerZxsXDijYUHj+IHPvCBOq8Vz6eTkBhESx94g7WP/iC7PJ36g/wbB15xOHoe3MibBZr+WGCRK/LnfkTPTng7Pi36kGaLEu307IWQNe02T174whfWPnzwgx+si50okVunv+ajaIF5gcwaryyJwEpEYCbJWrtiXJ0wqHooqzgUN8haG57jWWPYKS6GSThUDksU11KMjDalSIlSToyRYgVOUfLkMPJvfvObK3FoyYbvGOmnP/3pVWFrD+9YeJGQNXVQcgyY89J4+trcI0SPsRauUPfznve8qjCjL0HWtCm24COMbR1IH8PG2CKNwiWRExVkIg7FXYhnjZFqvR8MMXKmOD7lpS99aSUXsfL2OaKMlCJGPI6wQBTmKzwQyB/vDc+MMKYwdpsPg2AjNMZICbIWBAc5acmavgshdnNqeFuHeNbIByLdR9YYKgsDXp+99tqrEnihrbYwtuSMJxBGLVnzf/cz2HCyiDDOSsgaEkM+YdkS0/mw9D0SgPCQbeQIOeAR7YbbkA9tRITME97k8Ky2ZE2d5hPC6LpoIxnn9XvgAx9YCSxCKHQXBfkhy4in8J2+tN5W5MWYIurIivlqzLohdGFk3r8gCNrL6fUulAAAIABJREFU66mEZy3IGo/WM5/5zAukBcyHWcw7smVBhGjqEwLb3W1s/iO55qv+mcfCrOpADo0zTHj/yLExbMfV3zytCKo20xEIXJylqG/GCtnjXUceI00iwskIG/nxPAtB5M0CaqFkzUJHeNM8pM8Q0AhvBllDQpFG42zBq89ZEoGVisDMk7WF7gYlEF2yxpAKa3XJmpX0TjvtVA0QA9EtlA0PgtChFTHFR/GrB/mRf0Q5CmcyxH0FSWOYeLZ4KnhAkEfFSjfImhWvPndfq+VZFL2cIQZMHhzSFSv0yFlTHyInpNRXEEakSf08JUJm6tbHNmdtIWRNDhKyqj75SYwQTITjeAK1uSXi2heHcjJWiBNjNyqBP8aUAYK5vBmFseU96dbtOwZDuI0xbcmaaxl0z0RyEERy0E1iVweyhvjOl7OGpPEgdMOgDCRvCYMtXBSEK8anDYkhuzy1fWRNP5Ajciw9IMa+rQd5QModVGxshyRzexbSHIehtgSqD1NziIcICYG9nwjFRs4a8sTD5f/dOngyETyhRx5Li4a4Jg6/5mXkWeues+b/7iFfxp+XuluiLvMEyXZteBp9J9TN48NrJzSI1A9ZIHSfgzjyRJJtY2E+kvG+gqQjYTy9ZMS8sMiAgblKp8CKt3tUab1ZZDIOrTZXjZkFHfLaXehFfRYj+kk2IlewS9bonkixmG83KPzNQ3MGBqIR4RX2TKRUm5FXcqt/WRKBlYpAkrXV3A3aetbGkTWKR35FvP+uK1DCGDwFVqNW/YgJo6hOxpmiQn4Yqb4QHqXIWPMa8HbxOvEIKC1Z0wafdw1c/F/OHG+FcAIvFBKhPOUpT6nhJd4Gip+Xqa8O1wgJKYwkw7fYZE3dDCBDxgMgxKtfbd5Qiy+jz0iP22nYEhJ/89gJlSGdcYZanxLgMYIF0sZYMBqMpD7zDuh/kCveqr53z64uWeN9QMYZam1hkEeRA3iRKeSyGwblnYQjbxcvCY8GLy4y3HqfwnM5JJQcmCHZyDrZFD626CCzSrcec0p/eNl4e3jj5Ee1njXzgYewryBLFiU82ggHfIeQNdfwPEXYFBHglY12tjKizfoCJwTP8+COLGtnkDUEFWkbQmq7fRGy5uVEuNTPex5tab3H7vM57xIvInJjsWbhpSBykSMZ3tLus2BmIcOzrrRkjfybYzzFvG3wESoV1kd4x+0ORjiRxdhgMISsRdv0FwmGNd3GsxgFxkKjPJtCvPrd5rX1CkZ+mAgsYwRmnqytzgaDrmdtXBiUi9778WLbeldmKHSGlgeKgkLYGAEeAs+R42JnWl8JQ8SrxrjwsjE0PGAKskbZInoMuvDCKLLG84LwaSfDLc/Gtcia8KkVPtIYq+62Pa7rI2uuWYyctfCsqc/OTIYSEXriE59YV9kRJunz1kwyRxE7RpKxZ5wkmfeRrKhTuxC7rmetJWuIUOxE7LZldcmaBHThIPUgOeRk1Avv9Q35gluXrCHhDKDcOQZSOAxphwGyoG6yM9/xDt3+tQZbvcgsPLuEI+7zuY0j2opY8hQin0HWhOx4kXh8+uSYpysS++VYyQmcj6z5HuEx73iR/e2ZcSRGV879X1+0ExlCXHh/YNWSNQsKXq5JiK26tcc8s1jyN7I6imgFjvptYWKOIp12dfYVxE0bySfZ5rFDfOkbdSgtWaOTLMBgox+IJ11iHJFmm2yEanmsu/009nRRvG6quxt03OumtMkcRxItMOXtBTE0/+XFkmOhWZ7lhRDiSfRCXpsIrE0Ekqyt5gaD8KxZMfaRNcpG3pMdY5Hr0TfgFKX7KVK5MEKi7U5IeTyU1TiyZms9BUbhIlfxaqbYYCCHiQHoC8VFvUIZEtUpXc/j7VMiZ00Y147HeAn72iJrdjTy/CAWVu4MQnvO3KTGse0HkmAjB0PGW8ZojDMEcnR4I8eFQeVBySPrK6tL1loPDI+gUNUoQsWwC1EheN2cNYY1NrxoEzmKzRPajQwLYTGwFg/dnLhRigyZQah514yLeoYYVm21WOGxInetZ62bi9YSPYSF5wfZDrIW37dhUO3naYwjQnhJhVzlW3k2DIeeKWdOIWV2hMvtCs+a+dgeCTKJsreQRPYUbYmE/1F1hMwjdvQH3RMkFTHTDmTJ2PJaxq5W9SHmxoWHrUvW/B/2Fmu8nDz+7m3JNoKIHDoaRgg7FjerQ9Y8I/LtyKzxjA0EL3jBC+pYwSTSLVZnzk8yLnltIrA2EEiytobImtWfEOMoIyWnR8gM+YsXlrdkbdxLzEMhU8Q8YXJL5I5FSCPCoFbCQpM8K6O8TwiFnCbtRNwkFivtobi8c3LwumVNetbsAEPW5HlJ3qa4R3ktJ51YDLqcQTsKGV8GPRKpW4MQGFrVI+Nri6wxvGQnjuNAssedNcX7w3h3PWvRHzlfFhhCu8ba3zxI8b26kSHHfow6pLjFnNFF9nlteYeE6/rkp70n8EY8EESewpasjfI0a+NCyRpiITeRFwh58TeyGG3Rvhj/rlcQJhZbPE6LRdZ4DiNH1aIJERpSzF2LjdiIIAdQCNqiIwiaDUxCmAgrQsuDZ8HYFwaNZyKzvJR2yQr3iwaYG3F0h+uQNnpOJGHIBoP5XuQuZ5C3V59sSrFotaC149v85GFFkj0rydoQ6chrlisCM0/WVmeDgUFvz1ljBOVShVGLQ3GtCHkWYodUn7BoRyjm2IlpBYwACMlE2Kc1GN165L0Jt1GqwpFIlyJ/BbGxCuWR6p6h5ppos2cL1zI6FKUQh++QNUdzUPCTkjX3L+YGA+1FZOHFQ+ToBmQpQn9dIspDxBsgpyVO4R83YeEnbCz8Js9NqIXxjtI1Cog0kisUBpvIWWs3GDjmhLHpK+1uULmNQlh9hgcxlbyNOLVHd9h4wJvBcPKm2Dk36gBg+U/aKc9NaEmoO0ofgbfpBHkTdkLOeN6MpWvJc+Qnjgs9k19k2lEMcjad2RU7EidRnEPImvqM9xDPWneDgXbySvJK8wwJW7dHRrRtHdffNgxqPCyWJi3dMCiyJrzdJxd9oeAgmMZO3p+8M15CqRY8wchcvHkgFpDGyNxXyCQS10dUoy9IMdkjE+TInDR3YhdvbAhoz1mbJGfNcxDfIJI2c8hRE7Yl79ot9YP3MonapBKW1y83BJKsrcYGA4Pd9waDLlmjKClMRrQvUZuRQK6sRhlZpMv1lL5cIZ4NhoWS8rtrNPw/8oKEPtXBsDo2RFuQDuTDNfJOhDmVrpfItVa6jIsVtxwmhl0Z8m7QUZ61pSBrSBpDCFvhF7s9GZ/weLR9Y0iEB726RnhoVC5PiytiEaFVO9Lk5PQVXgXGhLdhnGdtHFljUBFohFKfkJm+kC7ChISQuZasCV3xgPKs8ggKd406yZ5nVT4XEtaSNXXymvC48SbxvvblHzG2iANDLbGbrER4bpTBNCa8tML7SoTo4wiGLq4wJXvxOiwhd3gsNVnTDtgjaPCxCLBRZ1RBTGCO2Jkv8ji1s/WsLZSseSayz1tHPuwCleYw7nVrPKGe7RqyiBhbqPGg8tjzuhsH+qGP4BlXCwWF1yrmPrkkFzy3SFLfQoA3HwlUv0WTo0/iYN3VIWvaEgtI3jOLTefK2c1L1mEyamPRcjPG2d5EYBwCSdYWgazFGwzidVN9ZE2yMsUexxe0g0IZ86gI7TGUrkMs1OMAT0dhWEUKH7WHb7Z1UNLOYRPqYDQYUQqbAY2cNcbRapch7HvZuNwPJICx1B75KUEapoGsteesaaPEfoobSdPf2Lna4sJI8TYyQgiMoyf6Nkd0JwmCDE9ECEGCYfe1Qu6RT4UoIcIL9awxdAyPQ0UZZWGrvsM95enEkSktWUMa4kBbxAE5ZSi7RXiX94Q8KS1ZEwJDYpE2JMXiQWnDfv5uNygw3Lwq85E19egb2TYeQnBkjXz2Fd4SIT/yb+ehXCn9Wmyy1uasRTsksyNIiAmyaCzaIyFaksPLgwApcssQlAjXRs6aBRPCtJBiviJaFnmwN8ZPe9rTalXdRYlxI6dO/SdDFnzknKcw7hGGljsZ97fkGjkznhZBimOG1KdIqUBahXotXHjn+or6hUDJQ3gltXOhZC2wNhcdK8Oz7HBhePpM5MDO4vSqLUS68p7lhsBMkrVWWbW7QSkahmzI5LfKQ6AoSd4oilsStBVoH1nzTGduCZfJg6LQKGMhNgpVgrrVPMVqJRkJ4sKqDLPfdlvFsQfhoWOoJZi7jxLTdkqMhy3yloKsaZd2WwHLIYrzxuK0f+RHyLaP/LRkzeo2DsxsBX6UZ801i7EbtHsorpwe2MvDEdZhIJDR6DcSxLhou/CfnbKMDo/DkDGGh/wv1/J68kiGZ8NYwYG3KF4ublyFQeNg3qFhUPjwwMi9UeLQ4jimBcFxcLL+kxdy033dlBCoz4RIGWshVztahW8jj4scCMczekp3gwGS4lBUyfL6zQMXoWXPRJbghzCGN5gczVdiPiCKCAfsEAMyKqxLJl1jHHlKkGveHOOEhOuXMWh3g0ZYsCt/rhsXBjVfjCWMEWJkU/6T+2LO8aoixoipOWvOOQYjvtdOXixE0nyHscUAb7jSetZ4ZJHPSUtgZpML7zrySK60Rdgv5r+5S84QIm8/UciptADtJf+OvKCnEHhyEQdu6zM85DzKz9MH4+rZPKgRqua1jlwxGztgQ9fFm0DgBAfjZsFpjpib5uRCD8UNHe23BZPn0tVCs+ayeh3XAYssicAsIDDzZI1SsfplQKz8HRXQZ8jbz5ABhIhnoA2DjiNrPAMUI2VjlehZDBIjLJRH4UkSlyfW7rKjlHhKHJrrWRJ4KW9HKFC6VsR2Z8oXUazou4nfSBxSQwkLGWgHA6Ue+SUMgnYgfQwPo4rgtJshpoGste8G1VdGE9HVXnlUktYZdmeD+T9cedLkZzEgDDPclCFkjbeJkUBgESfkB2b+5sFg0Bgp8qAtCyFrYZQZIknzwovGSD4egqAfvAhIoOeQMQax+7opcmLcETrkjmeWLPDYaRsSRk7U5//htWnfDYrskmvE2v2eQcbJGRKIoKgjZFXIcMgGg1Ckdu4iwO6DP88P703kZcJZ4rp5Yb7wIiOGsXFkdckarP3IvRSKJd+8Zua8ttiooiB7Fm7IDzIkJGzO8pzGq8Z4niygkFmLHwQm2rlYZC1w47FCMLvzn5zwBGqLMLwxldclty0WU4gY/UY/aCuSLA+VHOknuTBH5KiZP+QaRjzGdIZi3Hg6pVMYF/MLkfcM1wqfGzfzRTFmPGBBwid9N2jX8OqXMbMgDY+iRZn2jAr3z4Lxzj7OFgJJ1v4/WUNgQhHMJwJ2tCFVcXL9EM+aFTZFx1PQbntntHxOgQqjtO/jbEMuCJtwBK8IA9K2ldHhhRCSodi7OSXtobg8e37s5GqPZWCE1MGIIWZtQj084ugOod5RnjXX2fUaSedIRbysGgEY9wYDOVsMBZLCGxDPF9blfVG6njWfwUGiu+fGS6Zj/GDLYDAuSEnUM9/4xvfqRvh4FRiieFF8kD2eCzKA8KqfMecZCs9a+27QcTlr6lM3g498MsrtQazGhlFyMCjDKkTZ9axpKzlwv3oQm7YO3/GkIv28x7wVPEPCyFHitT28N8arlY/oc+x6JKt9x7f0YdvKMSJmHC0OYqNCK8v6ymsUOwrjPLZJPWtC2HZYa6NFSFt4IX0fLzX3HeLhugj7m2d2+SKWsOgejOs6MmpzCU+4kGnIIzlEiuQYLtSz1spgHHjtOcatO/9Dh0gDQDDDY+4+35mvPJEId3dM413BvKy8xBaM9BMdwPMZixrYIGzeGkFW2zFzjR/k0fFE5C/GXBsQNx5VelMEwkJRGfUGgz4ZQuQtluLZxsY8GLLoGjrf87pEYJoRmFmyFoMi4Treozd0oJAhCgnBYHAQHMqE16sNecRuUAZfiEBoQqjLitB3DJ+QFYNPuY869DLaxQPmXkZAOIw30D1ICA+FXJK+5N84FJcCpSwZMEpdPo7VtXv0BVHiZeg7owsJEA5BTJyXNeqVTUiLA2IpUdfxIFLY2kr5Rz4eLMKDiJwgRPHGhnhdlX7zDCAVyAYPAay7hQLn9eHpQu4YAdcjloyPfCLekUlKSzCEoIwr7wHc9U3bYS4ZHZEWQvKZPsdJ6q5lzLVHG+QfjitkiQeNlw2hEMZVFw8bo89LJrHaQkHuY+RytW2FhY0o5IQ3xfgiEmTEosJiwBjzvjG+EsKDZOiXsWLc9dX9sTggIzwv8LSxYCGvT4rnID+8QXInkQBhLX0gUzxdFi7ksT1+xPfwQCqQLHNG6K6vRN5dpA6Q226BszlggaDPCCIsgmh7HiyRbwSZB1s7FfOcXAsTwrJ7ADHvKG9b7PK1mFiMwsNqXP22C9OcQpDMZ+STDum+Iiyei7jylvHAIZP6p6/6AUv9UGzEiZ2gZK3dEAV3kQiLMAsR9Si8sPSYcUOoWoINW6FXeoEc2uAUGxfgZE7QZ+RZ+LmrA0O29ZWnmNyo37hEmxcD26wjEZh2BGaerPGoMVytwRs1aO01vFDh5ne/FStj1yq3lqzJG6G0ECFGmSFAKCierlEat1qk/Kx8wxNoZcxYjDsQtiVryBKl5371aLd2qCP6E/1v2xHhs/DiRb5KFyt1ulahnNt2tf1m/CPMClcGVlvgw2Ph2RG2otT9H07tifLd3YTuD2w8v3v96kxGbdF+RiPym+Jw18BGX9vXgWlfeMlcC+MhngDPiLExJjG+2uBzPz6PV5f11TlqfBEwRg5hElaKzQYtYfM3LMloyJmx0odx57dNiq9++vEMxdirf9RBtEHY/A456XtmK0/hOepeF2Qszh2DYSuTLR7aF1j4HPbkUN19esO4h2eyHadJ8Wmvbz1V2hIeJm0YOi7d+dH2I55FlxmTeEtB91xI7YhxCy9dXz1RXyuzgXGrEzwPvoFTV5aj38bJQgHZ5FW26BxysPLqYJ73JgLThMDMk7XVGYxQJBES6CqaPrLWJWYtMZqPMM73/ai+9JG1Vpn2KUjfx+ej+jcOu6Ft7dbdYjqE2CxGG1ZHBhbr3i5ek2DO2MlL5HkV8kXGIyzXHWchZonmDGa8g7YlJkGQGcK+MYx2tfKxOhiMesbqjn0fOetr83xyOt/3a0r++uZFOxaLNR6tvExa57ixXCiOcZ8oAO+hIh0gjoFZHdnLexOB5YRAkrUlHK35yNoSPrpWHcq83Q0anrWlfnbWv+YQQNaEBHnJhLbkWQlHdYmaMKJ8MSEpYUzh1sgfWnOtzSclApMhQL6FSB3YK9xKn/m92IR+slbl1YnAmkUgydoS4j2NZK3dkr+EXc+q1zACvKc8ZsJjPBDyBu3440ETlkPU5CDZiCGk5JgJpG2+PMk13I18XCJQEZAfh6Tx8MrBtHFBnpwcUPmzbTpEQpYIzAICSdaWcJSngaxZfVqJSlDnaUuytoQDvharltdnB59dmgibs9IcJYKMyQtyFpwkecWGBW9yiGNM1mKz89GJwIUQoKfsFo53KTuexGLDhiGLEhttMl8tBWfWEEiytoQjjqw57NRO0XaDwZpy30e+h11gcdK6s8biHaRL2PWseg0jEIncdqMKGfFMdIuNG+RQyFS4dE3J4RqGIh+3AhCwEQYpiyNT7LR2zIy3bKTcroABzi5MjECStYkhG36D3VKOPuDOt3MvQk5rStkEWbNbUTv8n5G2u3ChCb/De59Xrg0EGDdHoHidk2NMkDay57gEp/HztgmNrikZXBsY5DOXPwJ2nPL+2jTj4GXHzrSv/Vr+PcweJAKTIZBkbTK8VszVSdZWzFBO3JEc+4khyxsSgUQgEVirCCRZW6vw58MTgUQgEUgEEoFEIBEYj0CStZSQRCARSAQSgUQgEUgEphiBJGtTPDjZtEQgEUgEEoFEIBFIBJKspQwkAolAIpAIJAKJQCIwxQgkWZviwcmmJQKJQCKQCCQCiUAikGQtZSARSAQSgUQgEUgEEoEpRiDJ2hQPTjYtEUgEEoFEIBFIBBKBJGspA4lAIpAIJAKJQCKQCEwxAknWpnhwsmmJQCKQCCQCiUAikAgkWUsZSAQSgUQgEUgEEoFEYIoRSLI2xYOTTUsEEoFEIBFIBBKBRCDJWspAIpAIJAKJQCKQCCQCU4xAkrUpHpxsWiKQCCQCiUAikAgkAknWUgYSgUQgEUgEEoFEIBGYYgSSrE3x4GTTEoFEIBFIBBKBRCARSLKWMpAIJAKJQCKQCCQCicAUI5BkbYoHJ5uWCCQCiUAikAgkAolAkrWUgUQgEUgEEoFEIBFIBKYYgSRrUzw42bREIBFIBBKBRCARSASSrKUMJAKJQCKQCCQCiUAiMMUIJFmb4sHJpiUCiUAikAgkAolAIpBkLWUgEUgEEoFEIBFIBBKBKUYgyVpncM4///yyzjrrlO7vuOy8884rF7nIRVZ9397unihRh//7u3td97PFkpFo92LV19YTffdZt69L8bxpqrOVh3aMJ2ljYNbKV2AZ8rCU4zdJW/Pa2URgOcpf2+bFbP9i1rUmpWnWdPOaxHZtPivJWg/6SMlZZ51V/vGPf9Rv11133bLhhhuWjTfeuBKvSYlWn5FeCkXQPmcphGop2rwU7ZzWOrtGJYj8uAXAtPYl27VyEFjO83rUonqS0VkqsjdJG/LaRGA+BJKsNQj961//Kl/5ylfKoYceWo4++uhyyimnFIb0Yhe7WLn0pS9drnnNa5a99967XOUqVxmJ689//vPy+c9/vvzzn/+s1+62226rvHDq/t73vlc22mijss8++5RtttlmvvEZ/L22v+997ysnnXRSueIVr1juete7Vg/gYhU4/Pvf/y4f//jHy+9+97uKx93udrdy8YtffLEeMdX1/PSnPy1f/OIXK6Z3v/vdy8477zxxe93/k5/8pKy33nrlAQ94QNl6661XEf93vOMddew233zz8pCHPKTKSJZEYCkRoKM++9nPll/96ldVFu9///vXRelyKx/96EfLr3/967L99tuX+9znPlVfT1IszN/whjeU//73v1Vf053LtbAxP/zhDysG97rXvcqlLnWp5dqVbHcHgZkna1ZVfkz2Jz/5yZWsUWKjCiP68Ic/vOy///7lMpe5zIXCpYzuQx/60Hr7u9/97qoAI+z1pCc9qbzmNa+pCvH73/9+uepVr7poAknh3OIWtyhHHHFE2WuvvcqnP/3pctGLXnRw/eGV+89//lN++9vflk984hPlgQ98YFWAiu/PPPPMStBgdJ3rXKd86lOfKtttt93gZyzXC/X9zW9+c9lvv/0qef/Yxz5W7nznO0/cnYc97GHl4IMPLltttVX58pe/XK52tautImsINhm8xCUuURD+bbfdtjfUPvFD84ZEoINAeJLOOOOMSm6+8IUvVF301a9+tcrmJOXss88u3/jGN8qJJ55YHvnIR05y66Jde/vb374ukC2iv/nNb9YFz9DoByy0fccdd6ztscA2v0PnDa1n0TqzmhU98YlPrDZmyy23LJ/5zGfKDW5wg9Qjq4nptNw+82TNQCA4FM2Pf/zj6jnZYYcdytWvfvVKxnhBkJTjjz++/OhHPyp//etfKwlCiJCxLbbY4gIT22cPfvCD6wTxNw+KwsgjeCYSb9S3v/3taqwXq7Rk7U53ulNVOJOSNYrpPe95T3nBC15QeOoo71122WVV/zzjHve4R/U8Xve61y2f/OQnZ4asveUtbyn77rtvHcePfOQjC1p9P+IRjyhve9vbqkGE7e67777KqFzpSleqHg5kjVeXp2M5h6cWS66znsVHoCVrFmQWXXQRmWTkhxZpIk94whPq/RZx5sjaKHe84x2rh9AC8rDDDiubbbbZ4GbA4uSTT161KL3nPe9ZPvShDw2+f9ouDLJGxyCw9HTqkWkbpYW1J8naHG5Cku9///trbhpP2Ktf/epKqNpVFSON1Pme58l3j3rUo8qb3vSmQWTNRYcffngRTuNZo2CsABerrC5Zi3Y89rGPrX1CVL/+9a+vCveFZw1Z4xWiGGeFrMGG1+tb3/pWHfdb3epWldBPWpC1t7/97dUgMoy8GaFIGbxTTz215kXy2pGRVLKTIpzX9yHQlaP4/9/+9rfqPeeFXwhZ+/Of/1yufOUrl9NOO63qQt7nhZbVkXWLU16ka1/72nUhGQvoIW3xXOkuES4UOvzgBz/Ye+vqtHFIW1yzus8QvWG/LPqQNXp6desc2va8bmkRmHmyJk9ILtqf/vSncuMb37jIfxiXS/azn/2s3Pa2t62rMYb1Bz/4Qc1ziDLKs7aYw9g3+VqyxtjrB/LZEs5xkza+e9zjHlfe+MY3VjKCrO20006rmi5sgqxZvXY9awtRCHJEtHGpykLaNERhzoejOvrCJ13P2uqEwZcqKTrC4QsN/0zSrvbadqdxKw/j6ou2xvXdXbZDiEv3mqEyM+q6ofeP6uN8cyHqn+Q5o641nyf1rLV10Zl0H7L26Ec/etXCtW8O9bW7b2wn6VdgdYc73KF87nOfK9e61rXqQnLSRTAbEOkeo8haK2vtTv9W9uYbu1HyOEpfDKmvi1d41lqy1pW1hT6vi8FCZbh7X/RhoTpnCE4r4ZqZJ2uIBy+XPLUXvvCF5ZnPfGYd13FGK1YvhEuOGoUXgrYmyVo7UfvI2iRh0BBmeVmvfe1raw6HXJTI5fD9OLK2EibD0D4sxKCouyVrX/va12oYFGEVep+UVA9ta143HIGhRHWh4z+8JavvYRnyrIWQtZaInX766eVyl7tcTQ3pkrW+5/ctzhZjwRZkbVwY1OYoKS19ZQhZ697XlYFJZEKKyfrrrz9kiCa+ps+zNnElS3zDUKyGXrfEzZ2a6meerFmJSVA1gZ7+9KfXfK2u8eyOFoJn95DJzwALi81H1gjeO9/5zprvtOmmm5aXvexlFyBC8QwK1I5BSfwSzSX8SxK9y13uUi572cvW0KN6rAS5u2NbfJ/lAAAgAElEQVQV2SVr8i4oId4xfVQvV7+6bnazm1XPWewWpcj0R3KuZ59wwgllgw02qNcKx/ltxYbQ9nnW7HJ83eteVzF40IMeVK8ZV2zkkJe16667Vrw32WSTwRPinHPOqV5Nu2rlEApPei4cJBjf5CY3qat9eSujJjtMhT6+853vVEL6hz/8oeb3yRuzSYOntU1SVs+XvvSlVTk5//d//1eud73rXah+yda/+MUvaigGjtp1jWtcozAm2iTEfNBBB9WctSBr0fHHP/7xdZetFTGy3PUOaIMx/s1vflPbIr+SzPICM1I3v/nNa8h6IQRdG3i2eEp4irXt97//ff1MmIt864fwbd+Zge4XEjMeZOiYY44p5557brn85S9fbnrTm1astLOvbcK/b33rW6s8vvzlL687jr/73e9W+VePkNaNbnSjcrvb3a7KrzrIIZyFvo488sjaTl6VwLlrCGH2tKc9rV534IEH1nr0kzdGSoOUB23UTxiS/VFFnhZ5CfmTnK7NxksoUX9tFiHT3TQK6QVyq8ynZzzjGVX27OAWjiRz5ji8Y16SU7jajORaY6JOck5OPS9yzEZ5JeTb0iM2EcCMHHm+0CE5tFmKTpGjC/P5ctbcbw5a1B133HH1Hp9Z1Fl8aPNTnvKU2r626KOcTPpIdEK7bKK54Q1vWDGjz9pdnJN4WdqcNbrIPCQbZJEcGg86zzzpk+GWrMlZ+8AHPnChnfRIJQ/iUUcdVfsQulm6iLrJjz6MixSog94xT4wn2TPW8oJFdWKewG1U/8kf3UmnS8uBPdyNp9/knF0wtsZcn6PQF+aC+SMqJGqyENKIpBtDedfmH7zl2JJhWKh3nE4nP2TZ+JjrcLVxz/3mILvg/lHe9sHGYoVdOPNkjfBe//rXr6tDQiIB3MTpuujbCUSIQpDi3LW4fpRnzfc2GEQ+HKIQOUtRN2X2rGc9qxp7hjmKZ1AEPHgE/VWvelWdEJR4hGy7u0GFQl/5yldWAkBJREEwkZLnPve5q5LkTV6k0+aCvmKH1CGHHFKNUh9Zo7goGpPWZJWPNSokxQAH3ryY2jGUYMjpeslLXlI3TzCSxqAtnokIG7+XvvSlFwhPx3WUHXJgVya8W2xcw3Dvueee9TmUvGLs3NNuMGBYWxlhuJ7znOdUIvWXv/zlAmPnmBNjL1/xXe96Vy9ZQ+YoYbtrKUDKL56tXxQzohHEuw1JMBAUvrwhP8jGJMaO7CANiKQ2tLuh1YOwI0wHHHDAqt1lIbOMM+OGiOgf49gW8oZcaBcZ6xbzgTeAoXn9619fZdZiqK2HQSOz5B4Zh4PxQNrbOQK7xzzmMRXrMPyBHblUp0UMwmTRRF6jeMYlL3nJujnIHIRhVwdYxFhkIXkIW1d2PIsRRBpf9KIXXSDfk6zqP0+8xaENSuSF3oly3/vet25KMp7aakwsoshpd4e658jReupTn1rltc/o2hT17Gc/u+akIUchM/qKZGiPPEwEB1kjW+N2gwYeiJc0CLqz1Yshr7GxyvV+GGTzyW/3tiXaQq9YBE26G1VdkbOGsCOfNnHRM61+MJ4WNPSNtrdzqyVriJ/8ZXog8PLb7niLKPOQDm4L7NkOm8lsVKOD2vr9TVbYFnMMaUac2kJejQEdIxTbd+zSH//4xzoHyS8S33qCyb4UFmPuGUhpbDCI5+inFB7YIPr0KN00STn22GPrfLWga22UOrTZ+FlYiVJF3e080j662RzSnnYOmT/aHboGHkNSGyZp/3K+dubJmsFzbpbJaHKbpJSmiUcZjjuzpzWYobTGhUEpVt4DXh9KkhELQUY+rHgJsM8YDkqd8FrJxU5V9yItPABW931kjbJgRCl4ikm9f//732s94YliRClPCk6/1UUZUCiR90HRm3y8HggQ49ZH1jyLgnEGG6WoLhOtr1j5MXg8JlZmPAlDCuVGkTLk8NEuhtv9CJjVKvKKUPoeWX3ve997gXPgtNPuNbvWXEO5UAzGGT76jdwqyIFnIcktWfM3Q6/+GDseKTJDgSnGjmfB2FiJw5mChw0jbEzDsxYyRHm6lteHV67NmyQbvA8IocLQtvUj98aQYkMSyNmQXEDPpix5N/1EW6zGEWr/hwGZ8fcVrnCFuhqOtrkXwUKOwjCSpz322KOulI2vcTEm2kZJ87q0RNL9xoQ8Gw/eBh45BASJ57n55S9/ucojBCfjB2My6TcDCmPFily+5q1vfetV46MNDLV2kBdk2HXmuNW8+xEjHgNtQyyRpJjT0V7nb/EEwoJx5BWyaDKm5qefMOSOxGD0lcBZvRYJZB9pCcNGHuCMyJNFBTHg6VcfYqadvjOnnaOFGOsPUu858AoZ0F4eHDKC6Hk+OXYNb5b5aa74nB7wjCFkLfpiHjG25FIb6QX4OprGd+alKIDCg0lnuFbhgSPL2oG0WLTy+mszHWJROHTxFnojyFqc+Wgu64/xgRdskQTF/OLVEr6N+TuOrGkXL535rV7zyjzQRySNh0kfjIV2m3sIle9asockIjAKOTeW2uc+88Scj+8sfJDOlrDxPpFXBEwhO8aTbqY32BN60Lzzu4+sWWyYF+YzTzkSPwlZQxD1O2yIOugK0QCfmavmkKJt2tqGnsmGhYwFLVzdxz7RtcYAjjFObKO5tpDzLEMuVtrvJGtzI0rJyrmwW1MJbwKjQZBMLL9NcMI97sDScWSNUeMdQLhM0Dhcl7IUGjRJeTGEEk36UHhWMBQG8hRkYhxZ0wdtR4q4lSl7hQLnNWAUGFrPsOJtlQLDyYAiBJTafBsMGEt4cbkzZpSjfvJ+dAkDUoMEIB3IDoI8xAPECPHe2LWrrZ6j/pjI6qD0KAsrUwZfu/y/9Y6Z/LyT8OTJecUrXlENfoS9eGqQaeOgH0K/nkMJW63CpiVroQzgbGxgyuAgPtE2CopStBqliGL12JI1nyEhFD9jgkyEh4FHRH9dzwDwHGmX8XGfZ/pO25Aa/RXWYlCGFMbUYoWnyL3Pf/7zq0KNw1EtDOBEbmEMPztaYeJeYaM4p4ps+X+EQBgNCpsH1WoezogFr2SMO1IipKYwtsbP/ylyRbscEszgxipb+4xLEH3t4pHTdqQePuQ6jL75jUwYd3WQQTIeCwqfIXQwRGQU8qYvoQ94IRAwz0IO4BHH2rjG5zxUjCw5t2BCiOiN+N7YwU5BVpBKCykyzRhHiI5n2lEYCJ02IrmIVxg+smnBAG8yRT/xtqhTQR7Jo3EjM4gGssCw66txcb35H8ZxKFlrZYpskLNROWsMt7FG8OlMYwtjc1Mhu4gnjxpdo+iTtk8Snguy5n5yow46NFIhEAHywKtJ15pPdGCEqvvIWuhMsoPg6CN8ha+dCBA7TvUB+fBMhEs4XN1xDiPdZT6aN0itOfa85z2vep/iGeTSQtcYCQ+yMXakInNBKG36stAh3+p+8YtfvGqO0zFkj97l7YzFbDcMSp7IBDtAFqReDN05q079coYo3eD5yHn0QT8tDNRJH5FpuNzylrdcJZN0oB3DZNDCW38RvijhuXaN+uD+4Q9/eKKjWFr5XGl/J1mbG1GCgUAIyfDGWOlFIVgEjyGhCAiXFQ5BCq9b6+YdStashBAGhZE1eU1U9TJofeEAIRzGwORmKHgTRnnWeMjC2LRCa0IICekvJedZMeFcF7tBu0d3+G7cBgNKhOFh9BhRRCmUsnthhLQIqTI62kfpDSmMCyVBgWmXVX1g197PYFIAFAmlycAycuHZYPSNL2yFfIWi2rFTF4VGkSDTwtRIsme2ZI0CYYQUq23GXyjYmCAnQiJtIV8U573vfe96fV/OmmeFZw1ZC7Kirww3A83owo3ha9utfgSTMWTkKHZ9HVLk0VGO6uPVQEi6JBv+ZMWYMoDGOMKucDE/PN8Yxb1t+/SdsRIeZmg8JwhdS9bIPhlv8/XUg+BECBUuPMTtDmz9ZKSMG1IIL88IEh6etZg35Cg8WC1G8DcPEUR1kRWkS//VySDyZPEAWAx1ZScWQIic4vrb3OY29W+y2ZI1hITRVoK4qk8bjbNx572DeRC+tq0MtH7EodvIKpKqWKzAmV5h8MmrurrtRUh5+ywIFkLWGH3jgMj0Hd2BHBk3uJANea19C10eG54Y+CMRiKT53W3vKHkOskb2LQwQp3h/c9SBpFnsWSDSmcgRbBQRhfAwGWc6UV3mHIKE2NP1wqv0b3d+mH9kkj6hB3mbEG42Qx33u9/96vOQcZhorxKeN+OvDrnI9K86hOOD2Ps/byTyTxfBp7uT3P1IMb1ET7fnrMWz4jntc4e85Sb0p7A90mshypvfnsEZMqzf9JBFp8UA/es7pFwUQ18sTC2+ItWjHVfyj2jDy2ILQYTfUFkYovOW6zVJ1pqRI/Bc85QYIsSLRZFZEVE4IeTIBg9KJCu3g78QsuYeSkD9jHHsLg0Bjd9W7JQJYzGOrJnIiFG7kzPaqD+UhZWsyYPQtCG3SclaeNbUz/jwblBSMGT4olBaPCZCWIwPY9R67cZNINgbFz+MHk+Q1V2fVw5+DAQjy/uAACjGkGHhSUBWedlc0yoBf/uhiBAL1yOeFPUoskY5yQPRLiEhRHFUscq06mzDoHFtl6xRtvptJc8QaytDo+2t8o37EX0KjreWMgwvyzhcKUYrfZ4FssJYds8XjPsZAiQAHtoKTyRVDgtyavFBjroy634EmKE05oyxcDOyo7RkjVeTh7k1Jq6BMWPuc2NvXLuFVxTBQsyMOayCGLRkDYlFTlvPTeSfMuhkh7Hm1Ua8eY6Mg7CjfD5eK3N1VOEtQ8rd434GXGnJGhKpTxFqbuUYUXeP/mirsGng0T4zPGTCzjwaxl04l6x6rtCjOUceI/Tc4upvz7B4ElEgM/PlrHX7PI6s6b+QGT1KpnioYsz7sLNQ1k4G2vggK0NLkDWyRcZGvQ7Q2KgXLkgHT5TSkjUyZMFAv5gXyA+igYCpuyUYXTlFsmNzAqIuqoH4I1psCbn0fXcTR8wZOocHmJ7TF5jRA8bHvCefcuLGHT6svXRbH1nznCHkrA93c0SKhRAv+aXnw8MYId/wfJP1mF+BETlEohFd9i4IWDwrMFCHkKocaHrDfLdomvQVYkNlZzldN5NkrWtQ+gyM1SJlJsRDUfO0CFOZ2KHcedmsWtu4+kLImgmIZPBwMeZ9q35CxVCEK3kcWTOxud77TvJG1qy6rQQZC9e176iclKy1r5tSJ28e7Kyq5GiYfH5gKQdPqMAkp3CGvv+yqxTbCcbDoE8UHaMl94hS5rlBXsINz/MVOT/CLkGqhoRhPX9UGJTSR6goIcqcJ2XUKtDKVIh0qGcNIeLFRTyQKitqBHdIm4coIUaIQSVXwheIk9J6etr/t3UKFzIsDB8DiFSMapf5QsmTBzKuPwyZ0pI1CwzGsiUn6hRu1U6rch4phqKr5BEH4VHETN3kOuSL0TMnkFPeCiSor60IhjAR7wz5acnxKDzJn3p5h8gfoodM6gOPIiKvuE6qhefz4sC+9TxH/TBAbI29fsA4ctFauQovCUMWb7xg1JFMYVMyyWBajJl3fcXYaROPzup61rokgp5EcMx7qQb0Wtcj1fbH9wyz0CndYX4OJRZB1ugzhHOUXqF7YKFNCLc53SVryA6yBjs6gzxaCJmHdNa4zTvGgmwhK7yI5hS7YaEB6760k3ZcjDMPJVvQEnpeax5wY06+LAa6JbDkQDD2kbPW7gbtzplJvVX0O/x4mpFZizY/xtfCVppQ3+YKJFP7yRnZNy/GvV8bVuo0R8ilcOpivkd7iG6cxmtmmqx1J0oQi76BItgMglUfAx07QpEnyjHySRZC1kLZID4m96ikSs9k8Bi+cWQNGWMwtKk7IVvP2mKTNYTJSl0f1M17F7hEmCB2uVmFLqQwekJensE48ZRZAfssdlgZR8a29awhOnCJkCEjpQxRWKPIms+FtoJ4Uu7jvIXh9RtK1qws4cmQwTNCOKMI1KR4qk/9ShiXoXUIY4TXkoFgiMaV6Ltr2tewCS1F+A4B7DsSpSVr4X3rPqv1rHXJGiPNu4FUUfzR7r72aptcHHKLgAoLt8WYR2I8YhjyJ/za3eHXetZassZbxwsWCfFt/cLzDHZ3x+F840LeyQlPmzBUhBx5PC0qRxHpyKNdKFljdOXbdckaL6wwIxLbbrYYRTJ4dREjeCL/5GW+I5SirtCffvMqjSpSQJBfKSCeFde2njWEEVnzbGQBeSNbPL4IZPeg8fZZFgXkTKoDwi/SwIMa8mbTCtIyrgihh8ePIyB2yZpjxpDjYNRh2hYbQuMiM3LR4g0G88nOJN+br7Do7oRGbnlnLdYtNtqFCDx4rHkVeeZFLuIQ4r5nI7siV/QTr71FMCI462UmyVoMOuIgjEOJE65I6O/ztLWCYrVKoUqwDcITzH9SsoY8iOsjNkiacNMoQQ5XNA/NfGRNGymWNUnWYEShUVRWtxSVnYHaQAHDRniOkRs3WfsmpdUWTxlihKTF0Q6RU0g5IUr6LLeDVxFZCw8OPCgSGMobmSTMMo6skQMrdP3leW2Tzrv9mJSs8TIgmIipkLX+I3qL5Vmj2IOMBCZDyKt+IQZxlpbFil2+44qxl4uiWGHH3y1ZY7DbHdJR32KRNQQIeUEIR5WWrPGCWVTAhNzw2lqskV/kK7AiczwZcb4UbLph0JasMUAIZJ8HiKfRAlDdvBWt57qP6PiMPCCXDDr8YpOQ+vXXTtJRJQ5RXWyyZvEkh5WOHELWeAd5RhEpsgH7ITua9SvIGu+XHKdR80NIkodVSFKoGQlQWrLWvsEAoTb/kDUhWmHAcTtVkXj2gD0JssbTF95VuW8iF+NKeNFcg9zwokmvMMc8W5tGvVOazLgHDktF1rQL2UJoyTD7iYzFbnDYs4XaLYLBrvreAsg9ZNqCaZz+N1cQPmQVSQuytlh6b+wATPGXM0vWCDala+VCiVuNUHZDigROhp/QEiYTMvLDxp2zZsLLP4qjOyKJlkKQyE7hy/EYtZOPAbBaE0qbj6wJBZrcS03W2pw12PEwCDdSWDClPK1okTaeSat+q8ehIQ51mrzO1TL5TXyrOEYJfvLfhAjhry3CX7xmMEbQIgwqh8RqWl0MIoOmtPiMIio+R7SENfwdGwz8zdghHMICSEXfxoeQqUnJ2pA3RowLEY+S5einkFucFxdv74gQf9w7CpPWsyYXhUyOe57wIu8bUkFp25GntGFQ+Vrty+1jfHg4hEV4rhbiWYucNbKjz0I5fYpf35ExuZXCUAwfAqHwVOknuY6z4xhN7TVfyZ90AuSIwVfXKM/aOLKGyJJfc50nRl1DC09dHB8Bb32gm5CmUSVeT7RQsjZqgwHPmufytsuzpY/GlfBi8ZLzPsF7qI4IssaDZZ73jS05RiyEJKW2IJDClsooskZu1I2skQn2YdRbENTPHpBr9sS19L3PgqwZk/CajcIiiBmiKhrgXpEUoX94WMzHxoi+Oiwolsqz1uoafbSYRHx5xC3Mzd84+1Bb6UYE17wVdrY4pK+FQc2XUbo3jmmCHflyvfBpkrUYgaEaYQVdJ5GRkuKlIRQURhxZMK6bYvaYP2JA8RKqeLH3pGTNcyIUQbmqi2HqK/JYeHIomWkla9oteVRuBfJpAjNawiSTnq0WGFCmjKYQAELmqAxKsRtGIsqIIDd9l6xZ6QsHwZAxQBLCK9dirQ7KgQteQjRjaWz7yJr7ePoYV3UxtBTlqDJpzhqFKAeGkosVZnenaSg8ipNyjBP/kbBRxi7uEbZFosmzMbODcpRCRESFBWERO2HjIGSLjfDk9vWd8kXUYM4zaGHCA6GsSbKGaPGCWuX39TM2iZAhu07NRfpBLpr2Ckv7XDK88HGfZ4xBZqSVdjfoUM+ae3glpCuQY7I+qhhH8mycGXeLGP2ysBGe9xmZNLZ9JTZL0CeLTdZ41IRkLdQQWt7wcW+GQEwQKLJo4WBhNtQ4ty9yR067ubph4hBpxDFyaqWzjCNrCKdNUn6Tebp93Mn85MbYI+oWqXQBwmfBaOElFMhzNspjaJ7wilnM0J086siN+R8eXrIXR930jSl5QfjCsxYHAK+u2YahBUSE+rsbvHyHBNMhFq/0kXw5iyN9oZssProbH/raZVFFdiz86RhzQi7cUHlY3b5O6/0z61kzIARPQrh8KitSq3Zu6vkOZSSUVufCNhKfIzylzoWQNcTAZGQsKCoT3oTuejkkulJMjKyQ6aijO+JF7mvasxYkgOJFcihek9eqWn6IVa2JNzQXBZ6UAEVvnBhbRwA4mqK7O8izGR/jJ6SHyCGMvGkK4sPgIo/dc6naycmoUoY8LEJQ2i2MNIqsCX3KU2HIEUqKVRJ91yOlXtdZhQ7ZDYoU6LsVuqR6hg6WkWMWbQ5DpF5hSeFi3ksKc5yRp/hcCwvyRIn6LUzdpxR5zqzwjR0FLPeH7AvLuEfor++IiTCGcoEQPl5QJCiOSljTZA0REmJrj6vRRjgyMOaX3dYMjcUYGeBJtTiLozmEpPo8jvBUv/sUeiE8iEPJmlCaEB0dY3FBN0XSdnc8zYfIvUTmERxyIg2ADuDVskgiC3276eSHaZ9w1mKSNdj4QRLNB94oMhMeplZ2Q9Z4uhlz4yJvL3AbYjiDrDkuwkKgG/aNsZKi4WgfWJjPkajfetZ8xqOqRAgXARx1LE+0D7mWckFX0T08YMYPMTQvQ+9Y1MTCvu2bNloU8A4K18pLM1+MJ8KLtPBatTvZu/f7P9kRZjSfhQ8txhajIFAIqAUznKU99Om59ugZmEXUyULPIon+oEcsXLslxonOFfFiDxFc+n4+m7wYfZz2OmaarBkc5xhZPSFuVk1WLvKZ4pyeruGisCluSkjhnraSCWEaR9YIePsGgwiDmpyUq4lAaSI07TEIYUxi6zQSt9ieNRNFn3mdrP5MSO1ow3pDwnLa6ogRSoMRgC1SS9FQlrwFytBVEiPHeKoH+TPhKfXW+MQkl+ALR8oX2eVFidw048aDGWcmCbOoq2s4hGqFGbj3kavYVTvuUFwKnkG32kQQ40DMtm7PjRXxELIWuWkUNmKEbCJWjIDntGQhdpp5RpzgH7l6fQqovRcZJL8+I8uxs7W9htFieMgpuWRUrNzdGx4QckO2u94T9bhOCJHc8hS2ZLvNWUN8hbfb3aj+ZgAXIwzKkAhVMph9r5TjJUUa4v2WPC9x1IBFgvbzECJrUdoFFQ8y4hDJ1+pDlpShZI2BivMA3ac9MIJDjEkQ9CDQvuMxiiNNjBeZpNsQaYun7g5zddB1dJK2LZSsxQYDaSE8Qm1BNHmVYIR8wCfeCBK7Wf3m8bKoQngsQoXU+o4dGmVMg6zRX/AmX139QicgOrxkiC3dFvmlo17kDiMyIP9MsYudfo+62126Mb99R1fBPMbdvA+PmjQW862tQ7vZH3MpdmRboCGWUcifRai5j/gY37aP2ioEyjPn7yEerL4FxyiMjQ3PpzFENqVB8PKHLMZ4IqcWZnKwkWY4WPBwNFioxXtJkTgENOZP/EZM6V+6Rp2I5zhdNqq9K/HzmSdrBtUkoRAJktAGDxBPDk8B4xerbmSKoo83HVCA3ZXSpGTN8ynoeG2P/zMkvGsUIVKCQPBOUa6RWL/YZC0mPmPNGHkuJWU17JBSydNWV32vm+pODIoHKUOqGG/GAEFBfMYld4+aYCa6dghb88gw/oiUFaxJjhzy7MAw3gnIyDKWlFwUZI7CcQ2jTWkaa14suBpfYQSeCXULITGCyjiyxiip1ziFh8OGALLD42a1z2MKP2XoblDXMvxkgQEiJxSXkALZ5LGw244HR995hngkeI7meyF3YIKU8uoihe6Rw8RDCBNyz9sGE30UXoJpeCQoVvci0/CyiGHQHNwJf0aQl0JYTriOAWbQ29X+miRr2kBe5JiZ83KqeK0CQ/mkxsgYCoX77XpyQd7cbxFjHvLSwsOYuB8+QqC8VXEmI++stIUw2nF0x6ictTY8bRzjRd/q4KWCK8POY8ZThRxrr41R4f2JcSUTxgPJ1w9kWZvJpPbyXuhHvKtzIWTNnKEXyD0ShpAwzD4Lz7BwrHmkb7xGyKf+0y+erd0IkTlMhsgxGRq1WO7TES1Zo28swvTdWNFF9DViy2uJ7NAfFheRJjCOrFlkWnzxICvqpVPi9Wh2whoLiz8k2ViQ8Tb8aNEq0iAVg7zJ30JuYUa+EEl2g+ecjLErQtNt7jKdZN6Zc8hSHDhLBhEpXjSLeWRJv/rCoGRFFIeeMD5w69uR3GIcMqmdvJFwI99sFF0hbxOmdDwc9cN4kw02QJvizDXf8fpb9Hf1JNtrngklC/+6x3wh46PyBFciIRvXp5kka90VBQEnFO2KmbAQ5BA0wkfYCaXJwLXNKHZXgJOStWiLScoIx9k/JjVCoQ2Uq5/4PyW+mGStPcOGwmAc4j1z2kHJW9UhdPORteiPFRWDE4YLeaFQ4hUvk0w0CpdXLk581yakzY9xYSApe2MlTMjrGQeCMsrRJm2xirf6FGaiBPQdSWHUGEGKBGHnZWJY4viTPrIW9WqfEAFFRj7cr15hgjgDTjt5F5AfijReNxU49L3BIFab5I5ypiz1AXnWZs8hu2QDaaDceVfiDKMh3kvPQLYYD0ZXf8mZZ2gzxc6oMq6UrxBGhNf1X56nexkR8wIRZQiQNcYLptpMOSPvyGabSzeOrAU2fZ61dkXvunFHd7QbDIQ3neyvTcbIWMT8gqE8RXOgJZQ+1+/IcSJ/CAkywFtHltSBKJA3cmr++B3hnqGetegzD6pdkXZHwtt4M8zGwZgjCWTcWCHD3bAhmSSz2kO3kBXXtv0ln+o0dsgaT9xQkh/tRGSQFbIW7UMMY9cjD4m/kcO4howw8OYaGTH3yBuMh6ShdHVHkDUyZgyQMh5FcqhuY2OcPNMzEAbXxfwdR9a02fgiW1INyC6MtNdcMb9j/tFtvF50UJuXRlX9wXsAACAASURBVNakrNA7Fp7qMBZ+tMEc8eNv8meeI0OeHXOYDNJriKixJQfyd7XDHNUG81UkxM7avt2g+mn+kX+ecmMy9N2g2kaO4ggOY6C/MDYftIlcGk/9pe+R1tjNrB/mgIWfhWu885YskBvzxb1kAj4WJ5E7OomtWMnXziRZ61s5+Ixr3GSj3E1uwmmSKCYHobQaMnFNGhOlDU0QyHgbAYH1t5WY4joGlwCaSFz9sfMt6iDMSKP7GE7PVzzH+TRc41brVs0UEyPbvm7KRLQC5BkZtxs03teHhHXfYOC53PZWvBSRtmknr5h2MMyUutWfVVqb49SSYMaE54IXSxlyxtC4icYwmehIkboDG+NCeXK5U/R+8zq5RggGQezmOwi3wdI4IyLqpiAoDf1h4PQzVnT6RYFS8golFK+MadtMfpBKYULYkQFGksKyStRWO0q1F75tyM8KlZFBAIyhcY0wC7lSH8+F/lPs5FO7GB0Kz+LBYmOhh0ciBUJiDBJMKH7PJfMw0W4J090NOGFsGGh9orApXsW1+sorBdN4T2uLmbAPEqiv8nps9OmSTHhQ/uaHlXp7TEjIHLJmTHgxeEvNkb43GPBQGhckkYFjNEKGeEMY81HnWCHwPB4WBu7T5iA8SCBPg3ZKjtYXf/OqMmrajsxb4DHIZK+bN9eVf9fQBzEmgav2motkhndY2KiPmGufOUoujC+ZiTYjCtpr4ccrFK8AmpSsSXEQtiXzZMZ48Dy1ifTazYvHy8qLBDtjEP2g27SF/hp3jtko/YAwmufCnHQE/YWwmDNwseA1L+hfnmDPbcm+NvGI+YwnvRvO9Vyk01gYz5Bx15MxYyFiQMbbd12G3o+x4VkjX/S2ORZn6ZEDc1j/zaP2WAvPCBlXDw8uObToCx1jnpmjUj7cKxRs3sKkPRRXP3k3F0LWAnvyY9FiLIMEs5HGDc7kysLBIqVvs555QCbNP7tz9cH9dLQ2c34gau17R1cyAZukbzNP1rpg8WKYmBSyn9htxZCbCFzQbT5ZV0kKK/HeREI5UhWKgSHh6iXEcrriHYgtybFCsdIlyJ7vO6t4Co1hNiERMYaedybeIep5ErdNINczkG2eS/QzXniOlJng8qEi/yv6QhkxNia3ehkbxIdSoSys0Ch1RnHcid6x4oWblWVfYu0kwgoL5A82yJiibUISccaVa+DAePO0URzdNrrGCs5YwZrCQMy0k8cSYeqOK0UrFOFemPVtJfcd/LXRatxYkhVhH23UbjholzA7DGPsrXKtkGEsf6dd+beeQbLJwBobhVxqs/q7ynGIZy3wj5WzNvJUagsFDBPkQn9bOW3v8zdDjRDA0wqZUtd3RtC4j3o9mNA2XBlvHon2vaBh7Mgjw6NOxqf7XlDXMXzyaFyLHJPXMPzt66Z4oRgC/WTQ9ZMMwdDPuN1+SD3PCLkJj6E5BJuQP20xR1zHeDHA8VozHkKG0v8tmMadIxZY61eMSci8MYep9o7afBDY+U0mPde8NZ8ZVF5YYwMbhIsekWoQRGao7GinvqoDATFG8DBH2v753Jwwj2BnbrT9iB2cfTI2n46weCSzxl0ftMOCzFxRzGdzsG9eh+wEQTOONs5E/9vFuDbrKznXh5DxGH/jPV/72ZeYJ2TVc2KeICrzvVZJ/eQAOaYDyKSxM0fZGvOPVxb2sKBjoi9kyYJSuB+B5hEd6llrxwAO9KtnkSn10p/wJ5d+2te59Y0fHUEWjJG26Lf7yKRxasn0fOM/K98nWZtnpNvJ107cuG2oUus+phVGCtSkI7DtyrI78SMnyWTkJjfZ+l4ptVTC223POMVEmQklUUyMI8/UYpR2DPqwH9Wm+ZTopG2b7zmr87xuH0fV1Sa3r87z2r63dXZ3I0+KUUsY/N1NiO5+tpD6h9zTJWvxUvi+OTmJTHVxi7BVn84Y0s6lumaobAy9bqHtXIo5M7TN48ZkdeV8vvu7dmM+m7GYRKU7n9VtAwCSZIGIGE1ahmI+ab2hL/qcDAupa6Xdk2RtCkZU3k+cOi3EEyG27urO6pXLHwHiYRMSnW8ltia61zd5I2dNmIAncDnv6Onr31IqrDUxZsvhGYuF8VCythwwWcltXKzxniaM1nafukSRR054XqqMzUJDzhVd03iubczWdH+HPi/J2lCklvA6E8h2byTMJLIFuxveiC39cgXiWAoEb75V2hI2e2TVcmPksSBp8U5L4aIsicDaQKAla+1xGmujLfnMRGBtISDsKu9UKobdzlIKptF+rC18pv25SdbW8ghZRchjsAPTGV2IGC+UnWBi+L4X27fxQWKqySUfx461hSaTL0WXef2ciSPXSg6JHCPhXcnLtu+3O5uW4vlZZyIwCoEkaykbiUCp+dc2KMln7nsHb2I03QgkWZuS8ZFEbFecQwclcCJtks3tUpQAL/cAEbJbyY6nyDWYFpdxe3hrQCqJGsmU5DpfXseUDEM2YwUiIM3ATkGJzHaDWjxkSQQSgURgOSGQZG2KRsuOOOdkSca3NTsOrLSJwLECDlP0mqv2KIppIWt2nNnhqt3y1OTU2erenqmVLvcpErYZaor0AkeERHh+3IuwZwiW7OoMIRCbFnQ59fDyHPgka1M4bjwA7XlVtoQ7fHC+7dBruyt2gGo3DyDPX548vbZHJJ+fCCQCicD/EFjMXaaJ6ZpHIMnamsd8Jp44LR6/mQA7O5kIJAKJQCKwohFIsrZMhjfJzzIZqGxmIpAIJAKJQCKwyAgkWVtkQBezuiRoi4lm1pUIJAKJQCKQCCxPBJKsLc9xy1YnAolAIpAIJAKJwIwgkGRtRgY6u5kIJAKJQCKQCCQCyxOBJGudccsdM+MF2XlpSnskx3IT/Rhjv5dzP5Yb7tneRCARSAQSgYUhkGStwS1zxOYnao7miJfOO+x2uZEdZ9mdeuqpxeu7HDGy1VZbTdW5Q2Tw9NNPL+ecc07Fduutt77AuXoLm+Z5VyKQCCQCicByRiDJ2v8fvdNOO6042PUKV7hCvhpphER7LdZTn/rUcvjhh9dDer1JwRlwy6UgQs6Cc2DvKaecUq55zWvWE+2n7fy6Zz7zmfXVXciwA5J33HHH5QJxtjMRSAQSgURgCRBIsjYH6re+9a36Chrv3HzVq1617LxFSyAXvVV67dU97nGPcthhh1WsvKjd2xWWU0HSbnzjG5ff/va39R2s3mHq8N5p8qre//73L+9973vLdtttV77+9a+XXXfddTlBnG1NBBKBRCARWGQEZp6s8RZd5zrXKb/61a/Kvvvum2RtjICtBLLGg/qABzygnHTSSdU7+PrXv7561pKsLbJmyeoSgUQgEUgEFg2BmSdr8oN233338sc//jHJ2jxitdzJGkLmxztX5a5d7GIXK5tsskkNeydZWzSdkhUlAolAIpAILDICM0/WvNz5Sle6UiVr++23X3nlK195gTBoGPH2tzHoexlukAGJ4X3Gv1tXdyy794zamTofsRhaz6SyNISszde2vmeOe8nwqPq62PRhtZC2aN98O4Ln+34crm2bRrVvn332Ke973/tqGPRrX/tazaOMMrRPQ9o4BMMhMjK0TUOwHfK8vCYRSAQSgVlDYGbJmpel/+AHPyjCYo985CPrC8j33nvv8pCHPKR6XYRGGUtkTkK96/fYY4+yzTbblN/85jc154lX5spXvnJNBO+Ws88+u/zud78rf/rTn8q5555bQ23bbrttuexlLzsyz8uzvvOd7xTHY9zoRjcqm266afnXv/5VjjrqqFqPOnbZZZey00471ceNI4S+t+tRW3kPEUjPv9zlLlfbPer+cROgj6xp44knnlh+/etf13bDTBs33njjsXMp2m7XIywl/vt73XXXrXWMw6mtWBj7mGOOqfd7vt2dO++8c33xfR8Zhud3v/vdYnzstDTO3R2t0TbjBj/9Q84333zzSuz9nrR0SZp2HHvsseX444+vuz1tIoCb/rc5a12yJofNOCBwfmyK+elPf1rv8/9LX/rSVS6++tWvVrkz1je84Q3r932FvPE0aoM8RL/7CpxhYVGz4YYb1jy6y1zmMvVSz//DH/5Qtthii3KDG9ygftZdzLhff08++eT6Pbkhi+ZTlkQgEUgEEoHxCMwsWUOkbnGLW1RjGcal9fDwbNz3vvctP//5z8ttb3vbaqQ+/OEPVwJ24IEHVgKk2FH47ne/u1zlKlep/0fq3vnOd5a3vvWt9VqkIIqdk4iWzQx2JArDtQV5vMlNblIJ2hFHHFH+85//VG/fz372s1ovg4uE7LXXXuXZz372KtLWNYyS6F/3utfVDQD6pz4Fgdphhx0qOX3oQx868U7OLlmD0Vve8pa6YxE+8GOEEZoDDjigJvD3GX/XIRIf+MAHypvf/OZK1hCGKMjAJS95yRqWhpM6u4Xxl4T/2te+tvYR0VMcx4EA3Pve9y5PetKT6t8tPkgFQoGAIcQ2S7inJVOOJjn00EPLi1/84jr+nqUgdQiRdj3oQQ+60PiNm2ohWwjlkUceWZ773OfWzQMIuoLw3+c+96nPfNzjHlcOOeSQ3g0G22+/fc23s2P0Nre5TR3LX/7yl7UOfX3+859fHvawh9W/LUCMtz4EQe+28VrXulb58Y9/XDEyBl2s4fqZz3ymvOhFL6qEHDbxrIc//OEVCz/G0sLFwqIlv2SPnLzmNa+p8yGwJBcWD3e/+93r/ch5n7d6HKb5XSKQCCQCs4LAzJI15OIJT3hC9QjwDDAqDCHjxqC+8IUvLHvuuWc5+uijK1lj3O90pztVjwVjxIPDuCFfjNmlLnWpSqoYnm9+85u1DoYPubLbkAeP8fQ50mVX5Zve9KbqpQkj9aMf/ajc7GY3qwTP8w866KBywgknVE8R8qLN2svzxzBKjr/5zW9+gbAd4oJIaAOCwNuBCCB+vE/qZihvfetb1/r1eWgYK8gaIoOc8uJ88YtfrJ4W/WfIeQCdYWaXKCye/OQnX8iTZzPH/vvvXz7/+c/Xvm+00UbVywUnJBiu2qudd73rXWs7W28WguP+97znPfWZgbNJC2P3q3e33XYrBx98cN1IEAWR5WlCHHiSvvCFL1xgNyiMnvKUp1TyQSYQ6mib75AN7brzne9cCUh4soYQDcQHsUe0tFM95EP/yQd8jSciy/vXtxuU903bkRwkDdF1nbrPOOOM2u673OUutV3kBblExjyjb5yvf/3rl+9///vVa6sN7VEs6nz6059eFx7aBAvjTP6Ms98IOZl21IiFCy90ePGMpfuNgfE0TuaNfsNSf7XJOL397W+v4zQEx1lRztnPRCARSAQCgZklawwxY8TwC2/yVjz+8Y8vz3ve86oBYbQYsP/X3v37WlV0YRznnyGxQg0WdvaIFYkUmNAZDYWx0hhDQyEJJDTYEiqiMf6MpRYmJhYWVNT6p+hn3neRxWTvc/a9oBw8zyTkwr3n7D3zzHDX9zxrzWwBkYMB1gSZc+fOnbl79+6ANMHI+954440BQSDpu+++G8H/6tWrA1YEY3AnkP7www/DOfE+1+LAXbly5XEQLVgDBIKrAPfRRx+deffdd4cr5hrewz3RBE7HjoA5TfB0PQ6gvguU3BrgZEwCO8cLcAqKn3766XB4th5s2521qst75ZVXxphefvnl0V9B23VBER0chcJJ7Pfg/Ny/f3987/Lly+PsNkCkTxxE8Osa5kbg575xcapxDcGaMXHQ/J0WmtTvrVu3zjx48GBA41tvvTVcKs6S+63BWuknDc4JoqWxWQ9SpfpmDdBUatK/OXccJ3O5BTKArXUBVMC3ubhw4cLQyTpyrx9//HFcy/13wZr3AJ+bN2+O9Wkt//rrrwNurd1y4E4DawV1n3322egjHV3HWIGun4Mya8cHFHPkNWCNO0wPr6G7uQfUPpzQrubZPIFdkGa8PhD5/7GWhs2v7CgQBaLAMStwtLBWAQkA+WTPhRB8BfoOFt1Zk7b55ptvHtfl9IUjSHHe1BABCG7QUupJylBqU3AFGUCnAhQHhLNWsMaB+eSTTx7fRgAXGB1Ge/369REEP/zww5GWFbz//PPPEUwFfnCjD9VqvGqGuGrqh0AmMOG+bYGN7qzRyHlloKhAqe71yy+/DHDl8r322msDYOs1+gh+BGvOFidIAJ/bt99+O3QE1a7F3QGgoFjg54hxhdRczX0HjV4Djs6ePXvmyy+/HKlZbYY17l4diuuab7755gAN1zY26bneABtX6/fffx+QDJCA177GfXJtfQLP3CY1kr3v3CpgDtiq/m8+Z814QLcmFe7PEix2Z82HALB/EmdNOlO62FoEaubwpZdeemKY5lJ9nTlw7Q5r5uD9998fMEZ7AM4V7JsauHWXLl068/PPPw93lptY87RPz/w8CkSBKHBMChwtrNUkc7m4ZdKLBWsCaAXRDmtASh0YR2NugjYXSYoPTAnMSwDk5372xx9/jGDmPVW71p01IAUyAOIMXNJ8wJCrxv35/vvvR/pWTZH3CfocIkAwv7fcL+NW4P3qq68OWDkprKmJ4uC533wPgAUm6wkHXsc50TgyHBvjBxqC9dKuRLCif4CAO+YaasvANTdKYJc243ItpfjU/AEOuoDDqsXqsKZmEazRX5+vXbs24MJrARMYnZt+qdMDj7TjcrrHWitAevTo0aiRM3dvv/32cBYBytx8aHj99dfHelxy1jqs+YDQU7z9WuWseb0PAWtPmlhKg/pQYFc0V5e2NOHQzs3Yvv766wHG2gxrXETAC/LAmvmcmzkCvta5Dxqn2bxxTL+wM9YoEAWOU4HA2glgjVulTmzeGLB2TILAXulCrxEEuSIABbS99957Z+7cubMIa1JMUlBLzXWlzNS1caW4HlK5ao58VdPkvorz3cPOPaDDgdma8ly6b0+DAg8u49rzQdW1gVJwqAYMuG2pjSuduIZg6eHDhwNMwRrduTHcJyk2gOk10mughXvEYVzb3WlMa7DGcVTrBSZt8gDAzwIcasxSflxQfQbhBThLOju0d22DQcEaWJaiX9qJ7JpPA2vSz9LpAIvTZS45db3V2ua8cRildjusWetgz/rWaGqeAC7H2Tyt7VA9zl/FGXUUiAJRYF2Bo4c1TgdnTXpryVkTELlCCv0FH2lLbRf01MPCAYDrKyYHUJwvNT52A3JydjlrYAGkrDUpTrsG9UMqEwBqatqkVzlnwEBgdCwEB06gFFDVl50GRHoaVK3ZvXv3hvOy1DiS0micMK4Mh2VuAr4g7w/QlBrlLNGcTtwxOnVYcw1OkfFy3bTa4GB85hK4OehYenKep7U0qGMpOHjmCEhxvpbGtgU4a5z1Wl/VbnHkOFyAkNu05maCcK7jkrPGnZLC7q7ikv4Fa0CdXmtHqSw5a5xZtW+cO+4jUJYqX2rGRjeP7Zpr1tzX3NNWo6c5MUfmh4NoXfped7PzCzsKRIEoEAWeVCCw1mAN5KhZ60G0bzAQQKW9lgJ2fe+3334bqU1BH6yBDe6SAmx/+rWl3W7fvv3YWQMntRtUoBPI1gK6Yys4fa7PhXHMiOZeUrX6WrVNgAUYcTMEbbVDUlTePx9bses/SIc1LpHi9v4Q9K6LNJ60FshVAK8eTDMefZH64rqAOjV2tOk6eS3nBfjOsOY+0qAcO3rXdSvggwKwwtn7+OOPxyaP6tvaBgPHW0iv6rdjTWwi2Zce3gdu9XNj4HKaJ5AMRDlVa3NLFx8cdsEaiAJI5m+pLe0GXXrdEqyZM9rRBLTp965z86wlO3M7rLmXebaOrRU7Ts1vnyvzJP1pZ60NJWtAmF/aUSAKRIFjVyCw9oxgTTpIoT9XRANGHB8BSICWrgRf0kp21S3VrHVYAzOK89ea4CgdCASAG6erwwN3xM5Mxf6cPEDEbZNGrAbWwOnWh7F3WKsUboeFfn+bCzgn4OjixYtjpx84EbClRNWt1TEYrqEOsI7g4JA5wsKxH6BXMJc6nNPP+mN86tbAgDFy5+wordS0NKnaPelDbQus2dDgWBX3WwKqfZBW+q7BmvnYVef2vGGNy2zOQKWvXNG1c9qM0SYD7u7srJV2NtPYKGGebEbgnpon3wd0mrVus8lSXdux/5LO+KNAFIgCgbW/YU1Kpm8wWNsNWs7a0rJxfpa0JACRegIzoAOEADbBjjsB0jg4UllSYwq5y8HpGwyknua6pp5W8z6ukbTaV199Nc67Wmpqv6RhjU+d3E8//TRqkYCbeieg55DdLa3Dmvoujsta4TpHhbMGDh3cKgWogS5Hd9CJ+8VdVGcHZkEjsOW4qK+rlN8arFWfuXLSzZxM6WZHk9hNCgq4cwBaCnsJ1mo3qPkAJuBQWg986MdSupsOwFqfneK/L6Vs3twfGAN40GLMc6v5BfPWmvTgvBu0NFlz1uoa+mXOfTjQ176ZoQOofkjL9nPWpKXtVLVpBuyqTVx6IoT++7CgHo3Tab37kLFWi+a11p15AvPmydrVT83/B4cce78+boXiLWs3r4kCUSAKvMgKHD2s9Qe5Sz1JS/Zg1neDrsGaoMJFEvRAhoJszlBvFXgUzIMCAWtOg3ZYc/aYNOOSsyP1CQbVValHA18OqS0wMyZpMCBVKdCCDgHTJgnXBzk3btwYKagtrW8wEORtbOi7Vfs1OH92pLqv+wE2x25I84IHbhqgql2is1bG4rgPY5EGBXneo8/q4DgzYHPtcUWeTMBt9H5g6V4zrPXdoGrmHMkBjjhEXMmePu39A1uOHQHf0uLSfGut5p07xYHiJHEVwds8t1W078gSsA7W5sdN7YO16gdwctiz9WHHZUF1vyeQ9nPHzXRYM0/StkCKA+hojTXHi1Ppw4lNCe5pbmtTDU2Bnw8q8waF0kWZgQ8awFqNozXlA87a83W3rNO8JgpEgSjwX1MgsPZ3MOesCRYOxZWC6s7AFljrD4PntnBnev1N3y0quHN6pAPtuHMERBWyd1gDDI5F6Od8VYCTngIw3AkuHReIK2VTgh13nDQujl2FSw3cARlpKC5OP8tt1wLvzhpQ4iYCz7mBKXVMUp/cM7VVispBgeAPxHzlZs2HoBojaAHNIJJO6qrAFziSQgR+3mt8HMalpqgdMEuNqrui5S5Ycx8wDpDNh80TNJpbHUsi5Q2AQF09D3OpHzVnoIXTqF82eICS+Qw37ze3npwBRk8Da3U/NWf1hAhAVA+D72tR2hFAAvgOa/Q3fmly37epRj3n3Ghm/XKUtQ5r1gqHUt0bsK0NG+7vT314AIbmiSPHxQPV1lactf9aqMl4okAUeBoFjh7WgBZXSlE1B4YD0lNGzseSJlTHs+asCW6AD9iBD8X0Am5vAptrc8TqOZZSTYAHhAhOHdYAI+BxiG5PxemnnZBeK+hxP/zb+wU8B95KCeoPkFCk3hs3xWO21HGBDX0S2Le0Dmte7ykOgKyei1rXqCMbuGCASv2XMdIaeNEUBDjLbE7fAgeuEleu6uuAnpQch4Yj6T2uwYGxmYJb1xtdHJUBQoGhY07M3QxrIKIfisuB4pCqeQNKtJkdUk4XwAH33g8u1uq5Zk2BsfPnzJVNDBzHvkHDA+mtCWPTnmaDgQOVgae1aSMGB7XX/IFe5725p9ZhjX7WkBpL683cga1aZzUu5/zRop6v22EN1HIqzTH4clab/19zc13/J8yT9LinVVQadMuazGuiQBSIAsegwNHDmkkWZAQvjopgyQ1SL8bd2uKsuQanRSAWpNQJOZaDmyHwcHecXM/dKRet0ntqxkBThzVug2J7X7k2+sKx48p4PecOUApu3QkEhOrYPI4JKEk9SalxcgRjzhaA86cexQTaKu20b8F3WOMcghrvlTKjlZQYeFMXB7o8GeKLL754AubUJIE5wVkKjisDCgCp/gFdDqEGLjhSruNZp/UcVTBn7OAPSDgegisjTep7ithBrLo4YwddnqW6BGv1bNAaOzimIXeS5u+8884ofgcwIAp01OOivHbt8OMlLUENraRazbez6gCTdCunkEPKBTO3tH0aWHPshrUMbl0POEk5GwcolaZ2D6ANhJeeDSr9yf21WQWQWkt1CLKUv9S0a/hjvuc0KPcQdHNavR/smSd/N09gj7sHyjmtwM6HjLQoEAWiQBR4UoHA2t96cF3AFoCpJr3msVCC5z5nzXuAhiDvnDMNpNUuS9CgnT9/frgc3DRA4t9goR631J017pcUkiJs1xJMy5ET7PRNrVR/ELx7cEQ4OAr66761qxFIclr8W9G+1znGQzvpEwy4JOqYuEPAC4TWMSXcRe4XkASsvVBcYLfLU5rN+0on99dfwAmOpIvBrfPkQB3YdTaZa3kNaJKeq+J0u2/dVx+Ag787i0w6WH1dpbaXdoNWKlYfvBfIWBPcM602gOiv1wA/95aCrudgbtFP3wG3VLXUcI1f38tFVKxPMyD4NLBmLQNxWoP+eRycQ2PwM+n/2VmrNCTYVt9IZ9/TV1/13frmXnLtzF2HNferB9dL+5eW9HKvOsoGpJsfae9d6eT84o4CUSAKHLMCRw9rlfL5/PPPR/oNdPke58YTBBy8ylEQbMARIJtb1QEJQJwC11F75N8CGueIywFwgBIQBBH+zk3hsGgd1rhjXB01QQImyABmnAm75gTGtQZm7M7TD6lRqSyQZjMA58KZbFyWk54gz1mTvuOIgD2pRo4XYFNYLhBzaujFyVnbKQpMOHB2k3KrAIPX0sl11ZgB0oImAZ1mNOwNSHMajVU6z7hdR9pUvRTHbX6kk/kFWdLa4IC25mHeeWhXKfDmLnG9AAo4dWacWq4tzwNdmx/rgvPHmbJrFmB6CgDn6YMPPhjjlsa0ecJOzF7cD/CBU+/7rl9gXFjacc8U/HNEpY2NgRtqDnyAMD4gWSndrocdzM6dkwL2/4Cb6f6u4St3lVPmetbbfMAt/cyTY1b8HejRnOvpg5D1kjPWjjkMZexRIArsU+DoYa0EEpzAiEAKbKTUFGrnzAAAA31JREFUBC5Oi+/7KkitndjvOgVtghEHyXUAEYDgSFQDK5wIrwdzVbfUYQ0ASRF6jUDommBIenQfZFWgdX/9KEfOffS/92XfAuk/7xq5VgV2faMRqKLR0jMvl+5DB6DWdSot3Mt1jV3wn687u3V1tlrp3WvB+r3No7Scr4DBGNZcsa6fsVkTuw6HPYmWXtvHX9d2H2Ohi78D9JpvY5ae1S/jsxZ2OXqlkTXter6ae2Oua+pDaVzHc9T7usbu6Rpe39eh99q1az3b9CL1OfeprlNrsXa9+n8xn513Ug3z+igQBaLAMSgQWPs/ZFWAKeCqyd+S3poXimBU76uvFaB2LaoZ1hztoa0FvwLEtZ9vuedpF/nsRK31Zev1l67XQbqPcddrd92v5vYkczrf67T33qfDWt+elc4dwOrvleqsuauNLNYN55OTZgcrJ7Jc0rmfjqLh9vm+HaPSmfvaEgzue09+HgWiQBQ4ZgUCawc0+0vO2gF1L115ARU4DVx6j7SnuklOolSp1PTcOJ9KBdR7clOllHc9z/YFlC9djgJRIAochAKBtYOYhv91IrB2QJNx5F2xFtWjqaezG5djptatHi+m9s8GBs/BdSYcB84xKuoiT+JcHrnMGX4UiAJRYJMCgbVNMv07Lwqs/Ts65y7bFHDEio0u6tTUujlXz05VNX8eXQbYgJkNBjZL1Jl0gbVt+uZVUSAKRIGtCgTWtir1L7zODlI7AhVrO1bBmVxpUeB5KSDNyT3zx07R2gyiPzYZOHLGuWt2sDpMOC0KRIEoEAX+GQUCa/+Mrie+qqLu2vnpq12b2Sl3YhnzhmegwNIuUM8Z9WGCmwbUnH3nGBk7QbNOn4HouUQUiAJRYIcCgbUDWh59p91pdi4e0FDSlRdYgQ5rWzYobHnNCyxHuh4FokAUeO4KBNae+xSkA1EgCkSBKBAFokAUWFcgsJbVEQWiQBSIAlEgCkSBA1YgsHbAk5OuRYEoEAWiQBSIAlEgsJY1EAWiQBSIAlEgCkSBA1YgsHbAk5OuRYEoEAWiQBSIAlEgsJY1EAWiQBSIAlEgCkSBA1YgsHbAk5OuRYEoEAWiQBSIAlEgsJY1EAWiQBSIAlEgCkSBA1YgsHbAk5OuRYEoEAWiQBSIAlEgsJY1EAWiQBSIAlEgCkSBA1YgsHbAk5OuRYEoEAWiQBSIAlHgL+Hn6RKjstqEAAAAAElFTkSuQmCC;" vertex="1" parent="1">
          <mxGeometry x="-309" y="434.65" width="289" height="185.35" as="geometry" />
        </mxCell>
      </root>
    </mxGraphModel>
  </diagram>
</mxfile>
